
<svg width="540" height="350" viewBox="0 0 540 350" fill="none" xmlns="http://www.w3.org/2000/svg">
<g clip-path="url(#clip0_244_169)">
<rect width="540" height="350" rx="20" fill="#2B5AF3"/>
<g filter="url(#filter0_f_244_169)">
<rect x="351.138" y="-268" width="590" height="253.339" transform="rotate(45 351.138 -268)" fill="black" fill-opacity="0.1"/>
</g>
<g filter="url(#filter1_f_244_169)">
<rect x="-28.8623" y="-7" width="590" height="253.339" transform="rotate(45 -28.8623 -7)" fill="black" fill-opacity="0.1"/>
</g>
<g clip-path="url(#clip1_244_169)">
<g style="mix-blend-mode:hard-light">
<path d="M169.566 183.022H160.338L168.426 144.904H184.114C187.913 144.904 191.025 145.993 193.45 148.171C195.911 150.313 197.141 152.945 197.141 156.067C197.141 160.569 195.549 164.235 192.364 167.067C189.216 169.899 185.145 171.314 180.151 171.314H172.063L169.566 183.022ZM175.917 153.072L173.8 163.146H181.237C182.974 163.146 184.457 162.529 185.688 161.295C186.954 160.06 187.588 158.59 187.588 156.884C187.588 155.722 187.208 154.796 186.448 154.107C185.688 153.417 184.656 153.072 183.354 153.072H175.917ZM206.187 183.022H197.502L206.024 142.726H214.71L206.187 183.022ZM216.597 169.844L219.745 154.706H228.43L225.01 170.933C224.721 172.349 224.92 173.493 225.607 174.364C226.331 175.199 227.435 175.616 228.919 175.616C230.33 175.616 231.578 175.181 232.664 174.309C233.786 173.438 234.492 172.313 234.781 170.933L238.201 154.706H246.886L243.249 172.022C242.49 175.725 240.716 178.575 237.93 180.572C235.18 182.568 231.795 183.567 227.779 183.567C223.762 183.567 220.686 182.278 218.551 179.7C216.416 177.123 215.764 173.837 216.597 169.844ZM256.16 162.329H250.732L252.36 154.706H257.788L259.417 147.082L268.645 144.359L266.474 154.706H273.259L271.631 162.329H264.845L262.783 172.131C262.348 174.309 263.199 175.398 265.334 175.398H268.862L267.234 183.022H264.302C260.394 183.022 257.553 181.951 255.78 179.809C254.007 177.667 253.518 174.745 254.315 171.042L256.16 162.329ZM274.685 171.205C274.685 166.559 276.386 162.565 279.788 159.225C283.225 155.849 287.333 154.161 292.11 154.161C296.054 154.161 299.257 155.287 301.718 157.537C304.178 159.752 305.409 162.747 305.409 166.522C305.409 171.169 303.708 175.181 300.306 178.557C296.904 181.897 292.834 183.567 288.093 183.567C284.112 183.567 280.873 182.459 278.376 180.245C275.915 177.994 274.685 174.981 274.685 171.205ZM283.696 170.498C283.696 172.022 284.13 173.257 284.999 174.2C285.903 175.144 287.098 175.616 288.581 175.616C290.716 175.616 292.544 174.781 294.064 173.111C295.62 171.405 296.398 169.445 296.398 167.23C296.398 165.705 295.946 164.471 295.041 163.527C294.172 162.583 292.996 162.111 291.512 162.111C289.378 162.111 287.532 162.965 285.976 164.671C284.456 166.341 283.696 168.283 283.696 170.498ZM365.647 154.161C370.46 154.161 374.025 155.94 376.341 159.498C378.693 163.019 379.055 167.194 377.426 172.022H356.854C357.107 173.365 357.704 174.4 358.645 175.126C359.586 175.816 360.743 176.161 362.119 176.161C364.869 176.161 367.131 175.108 368.904 173.002L375.689 176.27C374.242 178.375 372.252 180.118 369.718 181.497C367.222 182.877 364.526 183.567 361.63 183.567C357.649 183.567 354.411 182.459 351.914 180.245C349.453 177.994 348.222 174.981 348.222 171.205C348.222 166.559 349.923 162.565 353.325 159.225C356.763 155.849 360.87 154.161 365.647 154.161ZM368.036 162.711C367.131 161.948 366.045 161.567 364.778 161.567C363.512 161.567 362.263 161.912 361.033 162.602C359.839 163.291 358.862 164.253 358.102 165.488H369.718C369.501 164.362 368.94 163.437 368.036 162.711Z" fill="white"/>
</g>
<mask id="mask0_244_169" style="mask-type:luminance" maskUnits="userSpaceOnUse" x="307" y="155" width="37" height="67">
<path d="M343.812 155.227H307.624V221.027H343.812V155.227Z" fill="white"/>
</mask>
<g mask="url(#mask0_244_169)">
<g style="mix-blend-mode:hard-light">
<path d="M317.452 192.515L312.696 185.595C311.846 184.358 311.444 182.839 311.632 181.334C311.669 181.033 311.722 180.798 311.792 180.692L318.231 174.572L324.889 174.189C325.646 174.146 326.372 173.895 327 173.452C327.72 172.944 328.206 172.226 328.73 171.515C329.425 170.572 330.099 169.614 330.751 168.641C331.208 167.958 331.755 167.292 332.055 166.512C332.12 166.341 332.17 166.138 332.079 165.98C332.001 165.848 331.845 165.79 331.698 165.764C331.195 165.673 330.637 165.76 330.13 165.777C329.577 165.794 329.022 165.809 328.466 165.788C327.641 165.757 326.814 165.708 325.988 165.675C324.109 165.604 322.667 165.595 320.787 165.537C319.009 165.479 317.096 165.319 315.318 165.26C311.609 165.135 308.258 159.012 307.624 155.233C312.946 155.233 318.269 155.233 323.593 155.233C326.933 155.233 330.272 155.233 333.612 155.233C335.391 155.233 336.86 155.119 338.54 155.847C340.09 156.52 341.49 157.588 342.473 159.01C344.377 161.769 344.021 164.584 342.842 167.502C342.103 169.331 341.281 171.125 340.39 172.879C339.215 175.188 337.964 177.875 336.163 179.719C332.085 183.898 327.011 183.848 321.696 184.118C323.13 186.216 325.444 188.524 325.298 191.255C325.183 193.43 324.104 195.082 323.009 196.809C321.701 198.873 320.395 200.936 319.086 203L309.579 218.01L307.669 221.026" fill="white"/>
</g>
<path opacity="0.54" d="M318.178 174.574C318.178 174.574 317.099 179.936 321.641 184.119L326.444 183.829C326.444 183.829 333.634 183.589 336.958 178.74L332.45 175.648L327.98 172.583C327.98 172.583 326.849 173.946 325.391 174.155C323.517 174.269 318.178 174.574 318.178 174.574Z" fill="url(#paint0_linear_244_169)"/>
<path opacity="0.62" d="M331.394 165.723C331.394 165.723 340.745 164.993 342.093 169.284C342.093 169.284 338.756 176.676 337.012 178.74C334.765 177.35 328.035 172.583 328.035 172.583C328.035 172.583 331.444 167.926 332.141 166.292C332.262 166.011 331.736 165.713 331.394 165.723Z" fill="url(#paint1_linear_244_169)"/>
</g>
</g>
</g>
<defs>
<filter id="filter0_f_244_169" x="-8" y="-448" width="956.331" height="956.331" filterUnits="userSpaceOnUse" color-interpolation-filters="sRGB">
<feFlood flood-opacity="0" result="BackgroundImageFix"/>
<feBlend mode="normal" in="SourceGraphic" in2="BackgroundImageFix" result="shape"/>
<feGaussianBlur stdDeviation="90" result="effect1_foregroundBlur_244_169"/>
</filter>
<filter id="filter1_f_244_169" x="-388" y="-187" width="956.331" height="956.331" filterUnits="userSpaceOnUse" color-interpolation-filters="sRGB">
<feFlood flood-opacity="0" result="BackgroundImageFix"/>
<feBlend mode="normal" in="SourceGraphic" in2="BackgroundImageFix" result="shape"/>
<feGaussianBlur stdDeviation="90" result="effect1_foregroundBlur_244_169"/>
</filter>
<linearGradient id="paint0_linear_244_169" x1="323.021" y1="184.912" x2="329.774" y2="173.623" gradientUnits="userSpaceOnUse">
<stop/>
<stop offset="0.24" stop-color="#121619"/>
<stop offset="0.5" stop-color="#23282F"/>
<stop offset="0.76" stop-color="#2C343C"/>
<stop offset="1" stop-color="#303841"/>
</linearGradient>
<linearGradient id="paint1_linear_244_169" x1="337.928" y1="165.745" x2="331.431" y2="176.605" gradientUnits="userSpaceOnUse">
<stop/>
<stop offset="0.04" stop-color="#020304"/>
<stop offset="0.44" stop-color="#1B2025"/>
<stop offset="0.78" stop-color="#2A3139"/>
<stop offset="1" stop-color="#303841"/>
</linearGradient>
<clipPath id="clip0_244_169">
<rect width="540" height="350" rx="20" fill="white"/>
</clipPath>
<clipPath id="clip1_244_169">
<rect width="220" height="93.5374" fill="white" transform="translate(160 128)"/>
</clipPath>
</defs>
</svg>
