<svg width="398" height="844" viewBox="0 0 398 844" fill="none" xmlns="http://www.w3.org/2000/svg">
<path d="M394 120H396C397.105 120 398 120.895 398 122V156C398 157.105 397.105 158 396 158H394V120Z" fill="#333333"/>
<path d="M4 120H2C0.895431 120 0 120.895 0 122V156C0 157.105 0.895431 158 2 158H4V120Z" fill="#333333"/>
<rect x="4" width="390" height="843.785" rx="45.5608" fill="#FEFEFE"/>
<path d="M365.57 25.1323C366.664 25.1323 366.664 25.4941 366.664 26.2177V27.665C366.664 28.3886 366.664 28.7504 365.57 28.7504" stroke="black" stroke-width="1.36682" stroke-linecap="round" stroke-linejoin="round"/>
<path d="M355.277 25.4941C355.517 26.4421 355.517 27.4407 355.277 28.3886" stroke="black" stroke-width="1.36682" stroke-linecap="round" stroke-linejoin="round"/>
<path d="M357.828 25.4941C358.068 26.4421 358.068 27.4407 357.828 28.3886" stroke="black" stroke-width="1.36682" stroke-linecap="round" stroke-linejoin="round"/>
<path d="M360.38 25.4941C360.621 26.4421 360.621 27.4407 360.38 28.3886" stroke="black" stroke-width="1.36682" stroke-linecap="round" stroke-linejoin="round"/>
<path d="M360.103 32.0056H355.729C352.813 32.0056 352.084 31.282 352.084 28.3875V25.4931C352.084 22.5986 352.813 21.875 355.729 21.875H360.103C363.019 21.875 363.748 22.5986 363.748 25.4931V28.3875C363.748 31.282 363.019 32.0056 360.103 32.0056Z" stroke="black" stroke-width="1.36682" stroke-linecap="round" stroke-linejoin="round"/>
<path d="M332.052 26.0196C335.164 23.6172 339.209 23.6172 342.321 26.0196" stroke="black" stroke-width="1.36682" stroke-linecap="round" stroke-linejoin="round"/>
<path d="M329.947 23.5013C334.332 20.1148 340.034 20.1148 344.419 23.5013" stroke="black" stroke-width="1.36682" stroke-linecap="round" stroke-linejoin="round"/>
<path d="M333.413 28.6611C335.692 26.8955 338.667 26.8955 340.946 28.6611" stroke="black" stroke-width="1.36682" stroke-linecap="round" stroke-linejoin="round"/>
<path d="M335.301 31.3091C336.445 30.4263 337.928 30.4263 339.071 31.3091" stroke="black" stroke-width="1.36682" stroke-linecap="round" stroke-linejoin="round"/>
<path d="M313.974 26.4268V32.2157" stroke="black" stroke-width="1.36682" stroke-linecap="round" stroke-linejoin="round"/>
<path d="M316.868 24.1782V32.2184" stroke="black" stroke-width="1.36682" stroke-linecap="round" stroke-linejoin="round"/>
<path d="M322.657 20.9614V32.2176" stroke="black" stroke-width="1.36682" stroke-linecap="round" stroke-linejoin="round"/>
<path d="M319.763 22.5698V32.218" stroke="black" stroke-width="1.36682" stroke-linecap="round" stroke-linejoin="round"/>
<path d="M311.079 29.0015L311.079 32.2175" stroke="black" stroke-width="1.36682" stroke-linecap="round" stroke-linejoin="round"/>
<path d="M34.7936 21.592C32.9948 21.592 31.6936 22.8167 31.6936 24.5516C31.6936 26.1335 32.9183 27.3199 34.5512 27.3199C34.8956 27.3199 35.2401 27.2561 35.559 27.1286C35.189 27.8047 34.8063 28.4808 33.7858 30.2285H35.3039L37.0005 27.3199C37.6384 26.2356 37.8935 25.3426 37.8935 24.5516C37.8935 22.8167 36.6178 21.592 34.7936 21.592ZM34.8063 26.2101C33.7985 26.2101 33.0586 25.5339 33.0586 24.5516C33.0586 23.5821 33.7985 22.8805 34.8063 22.8805C35.8014 22.8805 36.5413 23.5821 36.5413 24.5516C36.5413 25.5212 35.8014 26.2101 34.8063 26.2101ZM39.3168 25.4829H40.8732V23.85H39.3168V25.4829ZM39.3168 30.2285H40.8732V28.6084H39.3168V30.2285ZM45.8214 24.9344L47.6967 22.0385V21.7451H42.5046V23.008H45.6683L43.9079 25.738V25.9932H44.9794C45.949 25.9932 46.6379 26.6183 46.6379 27.524C46.6379 28.4425 46 29.0931 45.107 29.0931C44.2778 29.0931 43.6782 28.5191 43.6272 27.6771H42.2622C42.326 29.2717 43.4996 30.3816 45.107 30.3816C46.7782 30.3816 48.0284 29.208 48.0284 27.5751C48.0284 26.2101 47.1481 25.164 45.8214 24.9344ZM52.6336 30.3816C54.6874 30.3816 55.9759 28.6849 55.9759 25.9804C55.9759 23.2759 54.7002 21.592 52.6336 21.592C50.5669 21.592 49.2785 23.2759 49.2785 25.9804C49.2785 28.6849 50.5797 30.3816 52.6336 30.3816ZM52.6336 29.0931C51.3961 29.0931 50.669 27.945 50.669 25.9804C50.669 24.0286 51.4089 22.8932 52.6336 22.8932C53.8582 22.8932 54.5854 24.0286 54.5854 25.9932C54.5854 27.9578 53.8582 29.0931 52.6336 29.0931ZM63.5853 30.2285H65.18L61.4804 21.2986H60.1027L56.518 30.2285H58.0743L58.827 28.2895H62.8199L63.5853 30.2285ZM60.8171 23.2122L62.3096 26.9755H59.3373L60.8171 23.2122ZM77.134 30.2285L75.6925 21.2986H74.2254L71.4954 27.3709L68.7782 21.2986H67.3366L65.8696 30.2285H67.3621L68.4082 23.7607L71.3168 30.1009H71.6867L74.5953 23.7607L75.6287 30.2285H77.134Z" fill="black"/>
<rect x="22.2244" y="55.5869" width="36.4486" height="36.4486" rx="9.11215" fill="black" fill-opacity="0.04"/>
<path d="M38.2344 68.3428L32.7033 73.8738L38.2344 79.4049" stroke="black" stroke-width="1.36682" stroke-miterlimit="10" stroke-linecap="round" stroke-linejoin="round"/>
<path d="M48.1941 73.8735H32.8583" stroke="black" stroke-width="1.36682" stroke-miterlimit="10" stroke-linecap="round" stroke-linejoin="round"/>
<path d="M168.581 66.1154C169.736 66.1154 170.707 66.4495 171.497 67.1178C172.299 67.7738 172.7 68.8066 172.7 70.2159C172.7 71.686 172.311 72.7369 171.534 73.3687C170.756 73.9883 169.772 74.2981 168.581 74.2981H164.28V79.0547H162.64V66.1154H168.581ZM168.235 72.7309C169.219 72.7309 169.918 72.5122 170.331 72.0748C170.756 71.6252 170.969 71.0056 170.969 70.2159C170.969 69.4262 170.756 68.8126 170.331 68.3752C169.918 67.9257 169.219 67.7009 168.235 67.7009H164.28V72.7309H168.235ZM181.696 76.8131C181.696 77.2626 181.932 77.4874 182.406 77.4874V79.0547C181.835 79.0547 181.361 79 180.985 78.8907C180.62 78.7813 180.359 78.5201 180.201 78.107C179.922 78.5444 179.496 78.8603 178.925 79.0547C178.354 79.2369 177.741 79.3281 177.085 79.3281C176.101 79.3281 175.275 79.1033 174.606 78.6538C173.938 78.2042 173.604 77.4692 173.604 76.4486V76.2481C173.604 75.4341 173.92 74.7781 174.552 74.2799C175.183 73.7696 176.028 73.5145 177.085 73.5145H180.055C180.043 73.065 179.989 72.7066 179.891 72.4393C179.794 72.1598 179.606 71.9472 179.326 71.8014C179.059 71.6556 178.664 71.5827 178.142 71.5827H177.048C176.599 71.5827 176.222 71.6921 175.918 71.9108C175.627 72.1173 175.481 72.3724 175.481 72.6762H173.841C173.841 72.2266 173.968 71.8014 174.224 71.4005C174.491 70.9874 174.855 70.6533 175.317 70.3981C175.791 70.143 176.313 70.0154 176.884 70.0154H178.67C179.569 70.0154 180.298 70.3009 180.857 70.872C181.416 71.443 181.696 72.3603 181.696 73.6238V76.8131ZM177.613 77.7608C178.16 77.7608 178.701 77.6514 179.235 77.4327C179.782 77.214 180.055 76.8495 180.055 76.3393V74.8995H177.613C176.702 74.8995 176.076 75.0514 175.736 75.3552C175.408 75.6467 175.244 75.9869 175.244 76.3757C175.244 76.886 175.42 77.2444 175.773 77.4509C176.137 77.6575 176.751 77.7608 177.613 77.7608ZM192.32 70.307L189.039 79.2005L188.857 79.729C188.566 80.5552 188.329 81.1626 188.146 81.5514C187.964 81.9524 187.727 82.2622 187.436 82.4809C187.156 82.6995 186.78 82.8089 186.306 82.8089H184.884V81.2416H185.504C185.868 81.2416 186.16 81.1809 186.379 81.0594C186.609 80.95 186.798 80.7313 186.944 80.4033L187.308 79.3463H186.397L182.77 70.307H184.593L187.436 77.779H187.873L190.497 70.307H192.32ZM203.964 70.0154C204.401 70.0154 204.857 70.1369 205.331 70.3799C205.805 70.6229 206.206 71.0178 206.534 71.5645C206.874 72.0991 207.044 72.7855 207.044 73.6238V79.0547H205.404V73.9154C205.404 73.1257 205.228 72.5425 204.875 72.1659C204.523 71.7771 204.043 71.5827 203.436 71.5827C202.877 71.5827 202.385 71.8136 201.959 72.2752C201.534 72.7248 201.322 73.4598 201.322 74.4804V79.0547H199.681V73.9154C199.681 73.1257 199.505 72.5425 199.153 72.1659C198.801 71.7771 198.321 71.5827 197.713 71.5827C197.154 71.5827 196.662 71.8136 196.237 72.2752C195.812 72.7248 195.599 73.4598 195.599 74.4804V79.0547H193.959V70.307H195.599V71.5463C195.891 71.0846 196.273 70.714 196.747 70.4346C197.233 70.1552 197.731 70.0154 198.242 70.0154C198.776 70.0154 199.311 70.1855 199.845 70.5257C200.392 70.8538 200.793 71.364 201.048 72.0566C201.303 71.4612 201.698 70.9752 202.233 70.5986C202.78 70.2098 203.357 70.0154 203.964 70.0154ZM213.772 70.0154C214.489 70.0154 215.151 70.1612 215.758 70.4528C216.378 70.7444 216.87 71.1939 217.234 71.8014C217.611 72.3967 217.799 73.1257 217.799 73.9883V74.9907H210.637V75.0818C210.637 75.9566 210.85 76.6248 211.275 77.0865C211.712 77.5481 212.429 77.779 213.425 77.779C214.835 77.779 215.697 77.2626 216.013 76.2299H217.726C217.568 77.2505 217.137 78.0281 216.432 78.5626C215.74 79.0851 214.914 79.3463 213.954 79.3463H212.897C211.755 79.3463 210.825 79.0122 210.109 78.3439C209.404 77.6757 209.052 76.6855 209.052 75.3734V73.9883C209.052 73.1257 209.234 72.3967 209.598 71.8014C209.975 71.1939 210.467 70.7444 211.075 70.4528C211.694 70.1612 212.362 70.0154 213.079 70.0154H213.772ZM213.425 71.5827C212.502 71.5827 211.828 71.7589 211.403 72.1112C210.99 72.4514 210.747 72.9617 210.674 73.6421H216.177C216.104 72.9617 215.855 72.4514 215.43 72.1112C215.017 71.7589 214.349 71.5827 213.425 71.5827ZM224.589 70.0154C225.148 70.0154 225.677 70.1369 226.175 70.3799C226.673 70.6108 227.08 70.9995 227.396 71.5463C227.724 72.0809 227.888 72.7734 227.888 73.6238V79.0547H226.248V73.9154C226.248 73.1014 226.071 72.5122 225.719 72.1477C225.379 71.771 224.826 71.5827 224.061 71.5827C223.708 71.5827 223.344 71.6799 222.967 71.8743C222.591 72.0566 222.269 72.3664 222.001 72.8038C221.746 73.229 221.619 73.7879 221.619 74.4804V79.0547H219.978V70.307H221.509V71.7467C221.813 71.2486 222.256 70.8355 222.84 70.5075C223.435 70.1795 224.018 70.0154 224.589 70.0154ZM232.462 71.8743V75.1547C232.462 75.9323 232.608 76.5154 232.899 76.9042C233.191 77.293 233.683 77.4874 234.375 77.4874H234.922V79.0547H233.847C232.948 79.0547 232.219 78.7692 231.66 78.1981C231.101 77.6271 230.822 76.7098 230.822 75.4463V71.8743H229.528V70.307H230.822V65.8238H232.462V70.307H234.922V71.8743H232.462Z" fill="black"/>
<path d="M361.553 74.1164V75.3703H360.139V77.8779H358.827V75.3703H353.535V73.5333L357.121 67.5265H360.139V74.1164H361.553ZM354.847 74.1164H358.827V68.7804H357.821L354.847 73.7082V74.1164Z" fill="black" fill-opacity="0.4"/>
<path d="M375.776 72.8996C375.776 82.9646 367.616 91.1239 357.551 91.1239C347.486 91.1239 339.327 82.9646 339.327 72.8996C339.327 62.8346 347.486 54.6753 357.551 54.6753C367.616 54.6753 375.776 62.8346 375.776 72.8996ZM342.661 72.8996C342.661 81.1236 349.327 87.7906 357.551 87.7906C365.775 87.7906 372.442 81.1236 372.442 72.8996C372.442 64.6756 365.775 58.0086 357.551 58.0086C349.327 58.0086 342.661 64.6756 342.661 72.8996Z" fill="#F1F1F1"/>
<path d="M375.776 72.8996C375.776 82.9646 367.616 91.1239 357.551 91.1239C347.486 91.1239 339.327 82.9646 339.327 72.8996C339.327 62.8346 347.486 54.6753 357.551 54.6753C367.616 54.6753 375.776 62.8346 375.776 72.8996ZM342.592 72.8996C342.592 81.1614 349.29 87.8589 357.551 87.8589C365.813 87.8589 372.511 81.1614 372.511 72.8996C372.511 64.6378 365.813 57.9403 357.551 57.9403C349.29 57.9403 342.592 64.6378 342.592 72.8996Z" fill="#2B5AF3"/>
<path d="M32.758 686.836L31.3183 682.754H25.5776L24.1379 686.836H22.4066L26.9445 673.897H29.9515L34.4893 686.836H32.758ZM26.1244 681.186H30.7716L28.7669 675.464H28.129L26.1244 681.186ZM40.6443 677.797C41.7621 677.797 42.6793 678.137 43.3962 678.817C44.1251 679.485 44.4896 680.47 44.4896 681.77V683.155C44.4896 684.455 44.1251 685.445 43.3962 686.125C42.6793 686.793 41.7621 687.128 40.6443 687.128C40.0733 687.128 39.5022 686.951 38.9312 686.599C38.3723 686.247 37.9532 685.803 37.6737 685.269V690.299H36.0335V678.088H37.6737V679.656C37.9532 679.121 38.3723 678.678 38.9312 678.325C39.5022 677.973 40.0733 677.797 40.6443 677.797ZM42.8494 682.061C42.8494 681.211 42.6368 680.549 42.2116 680.075C41.7985 679.601 41.1607 679.364 40.298 679.364C39.8849 679.364 39.4779 679.455 39.077 679.637C38.6761 679.82 38.342 680.129 38.0747 680.567C37.8074 681.004 37.6737 681.569 37.6737 682.262V682.663C37.6737 683.355 37.8074 683.92 38.0747 684.357C38.342 684.795 38.6761 685.105 39.077 685.287C39.4779 685.469 39.8849 685.56 40.298 685.56C41.1607 685.56 41.7985 685.323 42.2116 684.849C42.6368 684.376 42.8494 683.714 42.8494 682.863V682.061ZM51.287 677.797C52.4048 677.797 53.3221 678.137 54.0389 678.817C54.7678 679.485 55.1323 680.47 55.1323 681.77V683.155C55.1323 684.455 54.7678 685.445 54.0389 686.125C53.3221 686.793 52.4048 687.128 51.287 687.128C50.716 687.128 50.1449 686.951 49.5739 686.599C49.015 686.247 48.5959 685.803 48.3164 685.269V690.299H46.6763V678.088H48.3164V679.656C48.5959 679.121 49.015 678.678 49.5739 678.325C50.1449 677.973 50.716 677.797 51.287 677.797ZM53.4921 682.061C53.4921 681.211 53.2795 680.549 52.8543 680.075C52.4412 679.601 51.8034 679.364 50.9407 679.364C50.5277 679.364 50.1206 679.455 49.7197 679.637C49.3188 679.82 48.9847 680.129 48.7174 680.567C48.4501 681.004 48.3164 681.569 48.3164 682.262V682.663C48.3164 683.355 48.4501 683.92 48.7174 684.357C48.9847 684.795 49.3188 685.105 49.7197 685.287C50.1206 685.469 50.5277 685.56 50.9407 685.56C51.8034 685.56 52.4412 685.323 52.8543 684.849C53.2795 684.376 53.4921 683.714 53.4921 682.863V682.061ZM58.9592 673.605V686.836H57.319V673.605H58.9592ZM70.1489 678.088L66.8685 686.982L66.6863 687.51C66.3947 688.336 66.1578 688.944 65.9755 689.333C65.7933 689.734 65.5563 690.043 65.2648 690.262C64.9853 690.481 64.6087 690.59 64.1349 690.59H62.7134V689.023H63.333C63.6975 689.023 63.9891 688.962 64.2078 688.841C64.4386 688.731 64.6269 688.513 64.7727 688.185L65.1372 687.128H64.226L60.5993 678.088H62.4218L65.2648 685.56H65.7021L68.3264 678.088H70.1489ZM82.4675 673.897C83.5124 673.933 84.4479 674.188 85.2741 674.662C86.1002 675.124 86.7441 675.792 87.2058 676.667C87.6797 677.529 87.9166 678.556 87.9166 679.747V680.986C87.9166 682.201 87.6797 683.252 87.2058 684.139C86.732 685.014 86.082 685.682 85.2558 686.143C84.4418 686.605 83.5124 686.836 82.4675 686.836H76.5264V673.897H82.4675ZM86.2764 679.892C86.2764 678.629 85.8998 677.578 85.1465 676.74C84.3932 675.889 83.154 675.464 81.4287 675.464H78.1666V685.214H81.4287C83.154 685.214 84.3932 684.801 85.1465 683.975C85.8998 683.149 86.2764 682.104 86.2764 680.84V679.892ZM90.9011 675.792C90.5974 675.792 90.3361 675.689 90.1174 675.482C89.9109 675.276 89.8076 675.021 89.8076 674.717C89.8076 674.413 89.9109 674.152 90.1174 673.933C90.3361 673.714 90.5974 673.605 90.9011 673.605C91.2048 673.605 91.46 673.714 91.6665 673.933C91.8852 674.152 91.9945 674.413 91.9945 674.717C91.9945 675.021 91.8852 675.276 91.6665 675.482C91.46 675.689 91.2048 675.792 90.9011 675.792ZM90.081 686.836V678.088H91.7212V686.836H90.081ZM102.041 684.193C102.041 685.105 101.701 685.821 101.021 686.344C100.34 686.866 99.3198 687.128 97.959 687.128C96.7076 687.128 95.7357 686.891 95.0431 686.417C94.3628 685.931 93.9193 685.232 93.7128 684.321H95.5352C95.7296 685.147 96.5436 685.56 97.9772 685.56C99.5931 685.56 100.401 685.099 100.401 684.175C100.401 683.908 100.316 683.701 100.146 683.556C99.988 683.41 99.6964 683.294 99.2712 683.209C98.8581 683.112 98.1959 683.009 97.2847 682.899C96.0941 682.754 95.2618 682.492 94.788 682.116C94.3142 681.739 94.0772 681.205 94.0772 680.512C94.0772 679.674 94.4114 679.012 95.0796 678.526C95.7478 678.04 96.6772 677.797 97.8679 677.797C98.8277 677.797 99.6478 678.015 100.328 678.453C101.021 678.89 101.464 679.534 101.659 680.385H99.8361C99.7389 680.044 99.5202 679.783 99.18 679.601C98.852 679.406 98.3539 679.309 97.6857 679.309C97.1025 679.309 96.6286 679.413 96.2642 679.619C95.8997 679.814 95.7174 680.063 95.7174 680.366C95.7174 680.719 95.8754 680.968 96.1913 681.114C96.5071 681.259 97.0539 681.369 97.8314 681.442C98.9249 681.551 99.7754 681.721 100.383 681.952C100.99 682.171 101.416 682.462 101.659 682.827C101.914 683.179 102.041 683.635 102.041 684.193ZM103.503 681.77C103.503 680.907 103.673 680.178 104.014 679.583C104.354 678.975 104.809 678.526 105.38 678.234C105.951 677.942 106.577 677.797 107.258 677.797H108.315C109.201 677.797 109.961 678.064 110.593 678.599C111.224 679.121 111.595 679.892 111.704 680.913H109.991C109.882 680.403 109.651 680.02 109.299 679.765C108.958 679.498 108.454 679.364 107.786 679.364C106.838 679.364 106.158 679.595 105.745 680.056C105.344 680.518 105.144 681.186 105.144 682.061V682.863C105.144 683.738 105.344 684.406 105.745 684.868C106.158 685.329 106.838 685.56 107.786 685.56C108.515 685.56 109.056 685.408 109.408 685.105C109.76 684.801 109.973 684.364 110.046 683.792H111.741C111.668 684.886 111.309 685.718 110.665 686.289C110.022 686.848 109.238 687.128 108.315 687.128H107.258C106.577 687.128 105.951 686.982 105.38 686.69C104.809 686.399 104.354 685.955 104.014 685.36C103.673 684.752 103.503 684.017 103.503 683.155V681.77ZM117.838 677.797C118.543 677.797 119.187 677.942 119.77 678.234C120.353 678.526 120.815 678.969 121.155 679.564C121.507 680.16 121.684 680.895 121.684 681.77V683.155C121.684 684.029 121.507 684.764 121.155 685.36C120.815 685.955 120.353 686.399 119.77 686.69C119.187 686.982 118.543 687.128 117.838 687.128H116.781C116.076 687.128 115.433 686.982 114.849 686.69C114.266 686.399 113.798 685.955 113.446 685.36C113.106 684.764 112.936 684.029 112.936 683.155V681.77C112.936 680.895 113.106 680.16 113.446 679.564C113.798 678.969 114.266 678.526 114.849 678.234C115.433 677.942 116.076 677.797 116.781 677.797H117.838ZM120.043 682.061C120.043 681.186 119.831 680.518 119.405 680.056C118.992 679.595 118.294 679.364 117.31 679.364C116.326 679.364 115.621 679.595 115.196 680.056C114.783 680.518 114.576 681.186 114.576 682.061V682.863C114.576 683.738 114.783 684.406 115.196 684.868C115.621 685.329 116.326 685.56 117.31 685.56C118.294 685.56 118.992 685.329 119.405 684.868C119.831 684.406 120.043 683.738 120.043 682.863V682.061ZM131.592 678.088V686.836H130.061V685.396C129.757 685.894 129.308 686.307 128.712 686.635C128.129 686.964 127.552 687.128 126.981 687.128C126.422 687.128 125.894 687.012 125.396 686.781C124.897 686.538 124.484 686.149 124.156 685.615C123.84 685.068 123.682 684.37 123.682 683.519V678.088H125.323V683.228C125.323 684.042 125.493 684.637 125.833 685.014C126.185 685.378 126.744 685.56 127.51 685.56C127.862 685.56 128.226 685.469 128.603 685.287C128.98 685.092 129.296 684.783 129.551 684.357C129.818 683.92 129.952 683.355 129.952 682.663V678.088H131.592ZM139.027 677.797C139.586 677.797 140.114 677.918 140.613 678.161C141.111 678.392 141.518 678.781 141.834 679.328C142.162 679.862 142.326 680.555 142.326 681.405V686.836H140.685V681.697C140.685 680.883 140.509 680.293 140.157 679.929C139.817 679.552 139.264 679.364 138.499 679.364C138.146 679.364 137.782 679.461 137.405 679.656C137.028 679.838 136.706 680.148 136.439 680.585C136.184 681.01 136.056 681.569 136.056 682.262V686.836H134.416V678.088H135.947V679.528C136.251 679.03 136.694 678.617 137.278 678.289C137.873 677.961 138.456 677.797 139.027 677.797ZM146.9 679.656V682.936C146.9 683.714 147.045 684.297 147.337 684.685C147.629 685.074 148.121 685.269 148.813 685.269H149.36V686.836H148.285C147.386 686.836 146.657 686.55 146.098 685.979C145.539 685.408 145.259 684.491 145.259 683.228V679.656H143.966V678.088H145.259V673.605H146.9V678.088H149.36V679.656H146.9ZM155.562 679.747C155.562 678.435 155.793 677.323 156.255 676.412C156.729 675.488 157.379 674.79 158.205 674.316C159.031 673.842 159.966 673.605 161.011 673.605H162.506C163.247 673.605 163.958 673.769 164.638 674.097C165.318 674.425 165.901 674.905 166.387 675.537C166.873 676.169 167.208 676.922 167.39 677.797H165.64C165.409 677.007 164.96 676.375 164.292 675.901C163.623 675.415 162.779 675.172 161.758 675.172C160.143 675.172 158.976 675.61 158.259 676.485C157.555 677.359 157.202 678.495 157.202 679.892V680.84C157.202 682.225 157.555 683.349 158.259 684.212C158.976 685.074 160.143 685.506 161.758 685.506C162.864 685.506 163.757 685.238 164.437 684.704C165.118 684.169 165.555 683.464 165.75 682.59H167.444C167.299 683.549 166.983 684.376 166.497 685.068C166.023 685.749 165.434 686.265 164.729 686.617C164.037 686.957 163.295 687.128 162.506 687.128H161.011C159.966 687.128 159.031 686.891 158.205 686.417C157.379 685.943 156.729 685.25 156.255 684.339C155.793 683.416 155.562 682.298 155.562 680.986V679.747ZM173.454 677.797C174.159 677.797 174.803 677.942 175.386 678.234C175.969 678.526 176.431 678.969 176.771 679.564C177.123 680.16 177.3 680.895 177.3 681.77V683.155C177.3 684.029 177.123 684.764 176.771 685.36C176.431 685.955 175.969 686.399 175.386 686.69C174.803 686.982 174.159 687.128 173.454 687.128H172.397C171.693 687.128 171.049 686.982 170.466 686.69C169.882 686.399 169.415 685.955 169.062 685.36C168.722 684.764 168.552 684.029 168.552 683.155V681.77C168.552 680.895 168.722 680.16 169.062 679.564C169.415 678.969 169.882 678.526 170.466 678.234C171.049 677.942 171.693 677.797 172.397 677.797H173.454ZM175.659 682.061C175.659 681.186 175.447 680.518 175.022 680.056C174.609 679.595 173.91 679.364 172.926 679.364C171.942 679.364 171.237 679.595 170.812 680.056C170.399 680.518 170.192 681.186 170.192 682.061V682.863C170.192 683.738 170.399 684.406 170.812 684.868C171.237 685.329 171.942 685.56 172.926 685.56C173.91 685.56 174.609 685.329 175.022 684.868C175.447 684.406 175.659 683.738 175.659 682.863V682.061ZM187.297 673.605V686.836H185.657V685.269C185.377 685.803 184.952 686.247 184.381 686.599C183.822 686.951 183.257 687.128 182.686 687.128C181.568 687.128 180.645 686.793 179.916 686.125C179.199 685.445 178.841 684.455 178.841 683.155V681.77C178.841 680.47 179.199 679.485 179.916 678.817C180.645 678.137 181.568 677.797 182.686 677.797C183.257 677.797 183.822 677.973 184.381 678.325C184.952 678.678 185.377 679.121 185.657 679.656V673.605H187.297ZM183.032 685.56C183.446 685.56 183.853 685.469 184.254 685.287C184.654 685.105 184.989 684.795 185.256 684.357C185.523 683.92 185.657 683.355 185.657 682.663V682.262C185.657 681.569 185.523 681.004 185.256 680.567C184.989 680.129 184.654 679.82 184.254 679.637C183.853 679.455 183.446 679.364 183.032 679.364C182.17 679.364 181.526 679.601 181.101 680.075C180.688 680.549 180.481 681.211 180.481 682.061V682.863C180.481 683.714 180.688 684.376 181.101 684.849C181.526 685.323 182.17 685.56 183.032 685.56ZM194.113 677.797C194.829 677.797 195.492 677.942 196.099 678.234C196.719 678.526 197.211 678.975 197.575 679.583C197.952 680.178 198.14 680.907 198.14 681.77V682.772H190.978V682.863C190.978 683.738 191.191 684.406 191.616 684.868C192.053 685.329 192.77 685.56 193.766 685.56C195.176 685.56 196.038 685.044 196.354 684.011H198.067C197.909 685.032 197.478 685.809 196.773 686.344C196.081 686.866 195.255 687.128 194.295 687.128H193.238C192.096 687.128 191.166 686.793 190.449 686.125C189.745 685.457 189.392 684.467 189.392 683.155V681.77C189.392 680.907 189.575 680.178 189.939 679.583C190.316 678.975 190.808 678.526 191.415 678.234C192.035 677.942 192.703 677.797 193.42 677.797H194.113ZM193.766 679.364C192.843 679.364 192.169 679.54 191.743 679.892C191.33 680.233 191.087 680.743 191.014 681.423H196.518C196.445 680.743 196.196 680.233 195.771 679.892C195.358 679.54 194.69 679.364 193.766 679.364Z" fill="black"/>
<path d="M24.7393 124.433C24.9094 125.247 25.3286 125.866 25.9968 126.292C26.665 126.717 27.5519 126.929 28.6575 126.929C29.7875 126.929 30.644 126.729 31.2272 126.328C31.8104 125.927 32.1019 125.374 32.1019 124.67C32.1019 124.159 31.9501 123.758 31.6463 123.467C31.3426 123.163 30.9174 122.926 30.3706 122.756C29.8239 122.586 29.0342 122.404 28.0015 122.209C27.0295 122.027 26.2276 121.821 25.5959 121.59C24.9762 121.359 24.466 121.019 24.065 120.569C23.6641 120.12 23.4636 119.512 23.4636 118.747C23.4636 117.592 23.8706 116.687 24.6846 116.031C25.5108 115.363 26.6529 115.029 28.1108 115.029C29.6295 115.029 30.7959 115.381 31.6099 116.086C32.4361 116.778 32.9281 117.75 33.0861 119.002H31.4459C31.3122 118.249 30.9842 117.659 30.4618 117.234C29.9393 116.809 29.1557 116.596 28.1108 116.596C27.2118 116.596 26.4828 116.785 25.9239 117.161C25.3772 117.538 25.1038 118.048 25.1038 118.692C25.1038 119.117 25.2314 119.451 25.4865 119.694C25.7538 119.937 26.1001 120.12 26.5253 120.241C26.9505 120.363 27.5155 120.484 28.2202 120.606C29.4959 120.824 30.4982 121.049 31.2272 121.28C31.9561 121.511 32.5575 121.887 33.0314 122.41C33.5052 122.932 33.7421 123.673 33.7421 124.633C33.7421 125.836 33.323 126.79 32.4846 127.494C31.6585 128.199 30.3281 128.551 28.4935 128.551C26.9748 128.551 25.7113 128.205 24.7029 127.513C23.6945 126.82 23.0991 125.793 22.9169 124.433H24.7393ZM39.8289 119.221C40.5457 119.221 41.2079 119.366 41.8154 119.658C42.435 119.949 42.927 120.399 43.2915 121.006C43.6682 121.602 43.8565 122.331 43.8565 123.193V124.196H36.6943V124.287C36.6943 125.162 36.9069 125.83 37.3322 126.292C37.7696 126.753 38.4864 126.984 39.4826 126.984C40.892 126.984 41.7546 126.468 42.0705 125.435H43.7836C43.6256 126.456 43.1943 127.233 42.4896 127.768C41.7971 128.29 40.971 128.551 40.0111 128.551H38.9541C37.8121 128.551 36.8826 128.217 36.1658 127.549C35.4611 126.881 35.1088 125.891 35.1088 124.578V123.193C35.1088 122.331 35.291 121.602 35.6555 121.006C36.0322 120.399 36.5242 119.949 37.1317 119.658C37.7513 119.366 38.4196 119.221 39.1364 119.221H39.8289ZM39.4826 120.788C38.5593 120.788 37.885 120.964 37.4597 121.316C37.0467 121.656 36.8037 122.167 36.7308 122.847H42.2345C42.1616 122.167 41.9125 121.656 41.4873 121.316C41.0742 120.964 40.406 120.788 39.4826 120.788ZM47.6757 115.029V128.26H46.0356V115.029H47.6757ZM54.5828 119.221C55.2996 119.221 55.9617 119.366 56.5692 119.658C57.1888 119.949 57.6809 120.399 58.0454 121.006C58.422 121.602 58.6103 122.331 58.6103 123.193V124.196H51.4482V124.287C51.4482 125.162 51.6608 125.83 52.086 126.292C52.5234 126.753 53.2402 126.984 54.2365 126.984C55.6458 126.984 56.5085 126.468 56.8243 125.435H58.5374C58.3795 126.456 57.9482 127.233 57.2435 127.768C56.551 128.29 55.7248 128.551 54.765 128.551H53.708C52.5659 128.551 51.6365 128.217 50.9197 127.549C50.215 126.881 49.8627 125.891 49.8627 124.578V123.193C49.8627 122.331 50.0449 121.602 50.4094 121.006C50.786 120.399 51.2781 119.949 51.8856 119.658C52.5052 119.366 53.1734 119.221 53.8902 119.221H54.5828ZM54.2365 120.788C53.3131 120.788 52.6388 120.964 52.2136 121.316C51.8005 121.656 51.5575 122.167 51.4846 122.847H56.9884C56.9155 122.167 56.6664 121.656 56.2412 121.316C55.8281 120.964 55.1599 120.788 54.2365 120.788ZM60.0604 123.193C60.0604 122.331 60.2305 121.602 60.5707 121.006C60.9109 120.399 61.3665 119.949 61.9375 119.658C62.5086 119.366 63.1343 119.221 63.8146 119.221H64.8717C65.7586 119.221 66.5179 119.488 67.1497 120.022C67.7815 120.545 68.152 121.316 68.2614 122.337H66.5483C66.4389 121.827 66.2081 121.444 65.8558 121.189C65.5156 120.921 65.0114 120.788 64.3432 120.788C63.3955 120.788 62.7151 121.019 62.302 121.48C61.9011 121.942 61.7006 122.61 61.7006 123.485V124.287C61.7006 125.162 61.9011 125.83 62.302 126.292C62.7151 126.753 63.3955 126.984 64.3432 126.984C65.0721 126.984 65.6128 126.832 65.9651 126.528C66.3175 126.225 66.5301 125.787 66.603 125.216H68.2978C68.2249 126.31 67.8665 127.142 67.2226 127.713C66.5787 128.272 65.795 128.551 64.8717 128.551H63.8146C63.1343 128.551 62.5086 128.406 61.9375 128.114C61.3665 127.822 60.9109 127.379 60.5707 126.784C60.2305 126.176 60.0604 125.441 60.0604 124.578V123.193ZM72.1516 121.079V124.36C72.1516 125.137 72.2974 125.721 72.5889 126.109C72.8805 126.498 73.3726 126.692 74.0651 126.692H74.6118V128.26H73.5366C72.6375 128.26 71.9086 127.974 71.3497 127.403C70.7908 126.832 70.5114 125.915 70.5114 124.651V121.079H69.2174V119.512H70.5114V115.029H72.1516V119.512H74.6118V121.079H72.1516ZM87.5753 115.321C88.7295 115.321 89.7015 115.655 90.4912 116.323C91.2931 116.979 91.694 118.012 91.694 119.421C91.694 120.891 91.3052 121.942 90.5276 122.574C89.7501 123.193 88.766 123.503 87.5753 123.503H83.2744V128.26H81.6342V115.321H87.5753ZM87.229 121.936C88.2131 121.936 88.9117 121.717 89.3248 121.28C89.7501 120.83 89.9627 120.211 89.9627 119.421C89.9627 118.631 89.7501 118.018 89.3248 117.58C88.9117 117.131 88.2131 116.906 87.229 116.906H83.2744V121.936H87.229ZM100.69 126.018C100.69 126.468 100.926 126.692 101.4 126.692V128.26C100.829 128.26 100.355 128.205 99.9788 128.096C99.6143 127.986 99.3531 127.725 99.1951 127.312C98.9157 127.749 98.4905 128.065 97.9194 128.26C97.3484 128.442 96.7349 128.533 96.0788 128.533C95.0947 128.533 94.2685 128.308 93.6003 127.859C92.9321 127.409 92.5979 126.674 92.5979 125.654V125.453C92.5979 124.639 92.9138 123.983 93.5456 123.485C94.1774 122.975 95.0218 122.72 96.0788 122.72H99.0493C99.0372 122.27 98.9825 121.912 98.8853 121.644C98.7881 121.365 98.5998 121.152 98.3204 121.006C98.0531 120.861 97.6582 120.788 97.1358 120.788H96.0423C95.5928 120.788 95.2162 120.897 94.9124 121.116C94.6208 121.322 94.475 121.578 94.475 121.881H92.8349C92.8349 121.432 92.9624 121.006 93.2176 120.606C93.4849 120.192 93.8493 119.858 94.311 119.603C94.7849 119.348 95.3073 119.221 95.8783 119.221H97.6643C98.5634 119.221 99.2923 119.506 99.8512 120.077C100.41 120.648 100.69 121.565 100.69 122.829V126.018ZM96.6073 126.966C97.154 126.966 97.6947 126.856 98.2293 126.638C98.776 126.419 99.0493 126.055 99.0493 125.544V124.105H96.6073C95.6961 124.105 95.0704 124.256 94.7302 124.56C94.4022 124.852 94.2381 125.192 94.2381 125.581C94.2381 126.091 94.4143 126.449 94.7666 126.656C95.1311 126.863 95.7447 126.966 96.6073 126.966ZM111.314 119.512L108.033 128.406L107.851 128.934C107.56 129.76 107.323 130.368 107.14 130.756C106.958 131.157 106.721 131.467 106.43 131.686C106.15 131.905 105.774 132.014 105.3 132.014H103.878V130.447H104.498C104.862 130.447 105.154 130.386 105.373 130.264C105.603 130.155 105.792 129.936 105.938 129.608L106.302 128.551H105.391L101.764 119.512H103.587L106.43 126.984H106.867L109.491 119.512H111.314ZM122.958 119.221C123.395 119.221 123.851 119.342 124.325 119.585C124.799 119.828 125.2 120.223 125.528 120.77C125.868 121.304 126.038 121.991 126.038 122.829V128.26H124.398V123.121C124.398 122.331 124.222 121.748 123.869 121.371C123.517 120.982 123.037 120.788 122.43 120.788C121.871 120.788 121.379 121.019 120.953 121.48C120.528 121.93 120.316 122.665 120.316 123.685V128.26H118.675V123.121C118.675 122.331 118.499 121.748 118.147 121.371C117.795 120.982 117.315 120.788 116.707 120.788C116.148 120.788 115.656 121.019 115.231 121.48C114.806 121.93 114.593 122.665 114.593 123.685V128.26H112.953V119.512H114.593V120.751C114.885 120.29 115.267 119.919 115.741 119.64C116.227 119.36 116.725 119.221 117.236 119.221C117.77 119.221 118.305 119.391 118.839 119.731C119.386 120.059 119.787 120.569 120.042 121.262C120.297 120.666 120.692 120.18 121.227 119.804C121.773 119.415 122.351 119.221 122.958 119.221ZM132.766 119.221C133.483 119.221 134.145 119.366 134.752 119.658C135.372 119.949 135.864 120.399 136.228 121.006C136.605 121.602 136.793 122.331 136.793 123.193V124.196H129.631V124.287C129.631 125.162 129.844 125.83 130.269 126.292C130.706 126.753 131.423 126.984 132.419 126.984C133.829 126.984 134.691 126.468 135.007 125.435H136.72C136.562 126.456 136.131 127.233 135.426 127.768C134.734 128.29 133.908 128.551 132.948 128.551H131.891C130.749 128.551 129.819 128.217 129.103 127.549C128.398 126.881 128.046 125.891 128.046 124.578V123.193C128.046 122.331 128.228 121.602 128.592 121.006C128.969 120.399 129.461 119.949 130.069 119.658C130.688 119.366 131.356 119.221 132.073 119.221H132.766ZM132.419 120.788C131.496 120.788 130.822 120.964 130.397 121.316C129.983 121.656 129.74 122.167 129.668 122.847H135.171C135.098 122.167 134.849 121.656 134.424 121.316C134.011 120.964 133.343 120.788 132.419 120.788ZM143.583 119.221C144.142 119.221 144.671 119.342 145.169 119.585C145.667 119.816 146.074 120.205 146.39 120.751C146.718 121.286 146.882 121.978 146.882 122.829V128.26H145.242V123.121C145.242 122.306 145.065 121.717 144.713 121.353C144.373 120.976 143.82 120.788 143.055 120.788C142.702 120.788 142.338 120.885 141.961 121.079C141.585 121.262 141.263 121.571 140.995 122.009C140.74 122.434 140.613 122.993 140.613 123.685V128.26H138.972V119.512H140.503V120.952C140.807 120.454 141.25 120.041 141.834 119.713C142.429 119.385 143.012 119.221 143.583 119.221ZM151.456 121.079V124.36C151.456 125.137 151.602 125.721 151.893 126.109C152.185 126.498 152.677 126.692 153.369 126.692H153.916V128.26H152.841C151.942 128.26 151.213 127.974 150.654 127.403C150.095 126.832 149.816 125.915 149.816 124.651V121.079H148.522V119.512H149.816V115.029H151.456V119.512H153.916V121.079H151.456ZM174.916 115.321V128.26H173.276V116.888H172.456L169.394 128.26H166.46L163.399 116.888H162.579V128.26H160.938V115.321H164.638L167.7 126.692H168.155L171.217 115.321H174.916ZM182.011 119.221C182.727 119.221 183.389 119.366 183.997 119.658C184.617 119.949 185.109 120.399 185.473 121.006C185.85 121.602 186.038 122.331 186.038 123.193V124.196H178.876V124.287C178.876 125.162 179.089 125.83 179.514 126.292C179.951 126.753 180.668 126.984 181.664 126.984C183.074 126.984 183.936 126.468 184.252 125.435H185.965C185.807 126.456 185.376 127.233 184.671 127.768C183.979 128.29 183.153 128.551 182.193 128.551H181.136C179.994 128.551 179.064 128.217 178.347 127.549C177.643 126.881 177.29 125.891 177.29 124.578V123.193C177.29 122.331 177.473 121.602 177.837 121.006C178.214 120.399 178.706 119.949 179.313 119.658C179.933 119.366 180.601 119.221 181.318 119.221H182.011ZM181.664 120.788C180.741 120.788 180.067 120.964 179.641 121.316C179.228 121.656 178.985 122.167 178.912 122.847H184.416C184.343 122.167 184.094 121.656 183.669 121.316C183.256 120.964 182.588 120.788 181.664 120.788ZM190.058 121.079V124.36C190.058 125.137 190.204 125.721 190.495 126.109C190.787 126.498 191.279 126.692 191.971 126.692H192.518V128.26H191.443C190.544 128.26 189.815 127.974 189.256 127.403C188.697 126.832 188.418 125.915 188.418 124.651V121.079H187.124V119.512H188.418V115.029H190.058V119.512H192.518V121.079H190.058ZM199.413 119.221C199.972 119.221 200.5 119.342 200.998 119.585C201.497 119.816 201.904 120.205 202.219 120.751C202.547 121.286 202.711 121.978 202.711 122.829V128.26H201.071V123.121C201.071 122.306 200.895 121.717 200.543 121.353C200.203 120.976 199.65 120.788 198.884 120.788C198.532 120.788 198.168 120.885 197.791 121.079C197.414 121.262 197.092 121.571 196.825 122.009C196.57 122.434 196.442 122.993 196.442 123.685V128.26H194.802V115.029H196.442V120.788C196.77 120.326 197.214 119.949 197.773 119.658C198.332 119.366 198.878 119.221 199.413 119.221ZM209.618 119.221C210.323 119.221 210.967 119.366 211.55 119.658C212.133 119.949 212.595 120.393 212.935 120.988C213.287 121.584 213.464 122.319 213.464 123.193V124.578C213.464 125.453 213.287 126.188 212.935 126.784C212.595 127.379 212.133 127.822 211.55 128.114C210.967 128.406 210.323 128.551 209.618 128.551H208.561C207.857 128.551 207.213 128.406 206.629 128.114C206.046 127.822 205.578 127.379 205.226 126.784C204.886 126.188 204.716 125.453 204.716 124.578V123.193C204.716 122.319 204.886 121.584 205.226 120.988C205.578 120.393 206.046 119.949 206.629 119.658C207.213 119.366 207.857 119.221 208.561 119.221H209.618ZM211.823 123.485C211.823 122.61 211.611 121.942 211.185 121.48C210.772 121.019 210.074 120.788 209.09 120.788C208.106 120.788 207.401 121.019 206.976 121.48C206.563 121.942 206.356 122.61 206.356 123.485V124.287C206.356 125.162 206.563 125.83 206.976 126.292C207.401 126.753 208.106 126.984 209.09 126.984C210.074 126.984 210.772 126.753 211.185 126.292C211.611 125.83 211.823 125.162 211.823 124.287V123.485ZM223.461 115.029V128.26H221.821V126.692C221.541 127.227 221.116 127.671 220.545 128.023C219.986 128.375 219.421 128.551 218.85 128.551C217.732 128.551 216.809 128.217 216.08 127.549C215.363 126.869 215.005 125.878 215.005 124.578V123.193C215.005 121.893 215.363 120.909 216.08 120.241C216.809 119.561 217.732 119.221 218.85 119.221C219.421 119.221 219.986 119.397 220.545 119.749C221.116 120.101 221.541 120.545 221.821 121.079V115.029H223.461ZM219.196 126.984C219.609 126.984 220.016 126.893 220.417 126.711C220.818 126.528 221.152 126.219 221.42 125.781C221.687 125.344 221.821 124.779 221.821 124.086V123.685C221.821 122.993 221.687 122.428 221.42 121.991C221.152 121.553 220.818 121.243 220.417 121.061C220.016 120.879 219.609 120.788 219.196 120.788C218.334 120.788 217.69 121.025 217.265 121.499C216.851 121.972 216.645 122.635 216.645 123.485V124.287C216.645 125.137 216.851 125.799 217.265 126.273C217.69 126.747 218.334 126.984 219.196 126.984Z" fill="black"/>
<rect x="22.2244" y="708.017" width="353.551" height="45.5608" rx="18.2243" fill="#2B5AF3" fill-opacity="0.05"/>
<path d="M41.5722 735.685V726.407H47.1715V727.404H42.6957V730.539H46.8816V731.535H42.6957V734.688H47.244V735.685H41.5722ZM50.1207 731.499V735.685H49.0516V728.727H50.0844V729.814H50.175C50.3381 729.461 50.5858 729.177 50.918 728.962C51.2502 728.745 51.6791 728.636 52.2046 728.636C52.6757 728.636 53.088 728.733 53.4413 728.926C53.7947 729.116 54.0695 729.406 54.2658 729.796C54.4621 730.182 54.5603 730.672 54.5603 731.264V735.685H53.4911V731.336C53.4911 730.789 53.3492 730.364 53.0653 730.059C52.7814 729.751 52.3918 729.596 51.8965 729.596C51.5552 729.596 51.2502 729.67 50.9814 729.818C50.7156 729.966 50.5058 730.182 50.3517 730.466C50.1977 730.75 50.1207 731.094 50.1207 731.499ZM59.5401 728.727V729.633H55.934V728.727H59.5401ZM56.9851 727.06H58.0542V733.692C58.0542 733.994 58.098 734.22 58.1856 734.371C58.2762 734.519 58.3909 734.619 58.5298 734.67C58.6718 734.719 58.8213 734.743 58.9783 734.743C59.0961 734.743 59.1928 734.737 59.2683 734.725C59.3438 734.71 59.4042 734.697 59.4495 734.688L59.6669 735.649C59.5944 735.676 59.4933 735.703 59.3634 735.73C59.2335 735.761 59.0689 735.776 58.8696 735.776C58.5676 735.776 58.2716 735.711 57.9817 735.581C57.6948 735.451 57.4562 735.253 57.2659 734.987C57.0787 734.722 56.9851 734.386 56.9851 733.982V727.06ZM63.991 735.83C63.3205 735.83 62.7422 735.682 62.2559 735.386C61.7727 735.087 61.3997 734.67 61.137 734.136C60.8772 733.598 60.7474 732.973 60.7474 732.26C60.7474 731.547 60.8772 730.919 61.137 730.376C61.3997 729.829 61.7652 729.403 62.2333 729.098C62.7044 728.79 63.2541 728.636 63.8823 728.636C64.2447 728.636 64.6026 728.696 64.9559 728.817C65.3093 728.938 65.6309 729.134 65.9209 729.406C66.2108 729.675 66.4418 730.031 66.614 730.475C66.7861 730.919 66.8722 731.466 66.8722 732.115V732.568H61.5084V731.644H65.7849C65.7849 731.252 65.7064 730.901 65.5494 730.593C65.3953 730.285 65.1749 730.042 64.888 729.864C64.6041 729.686 64.2688 729.596 63.8823 729.596C63.4564 729.596 63.088 729.702 62.7769 729.914C62.4688 730.122 62.2318 730.394 62.0657 730.729C61.8996 731.064 61.8165 731.424 61.8165 731.807V732.423C61.8165 732.949 61.9071 733.394 62.0883 733.76C62.2725 734.122 62.5277 734.398 62.8539 734.589C63.1801 734.776 63.5591 734.87 63.991 734.87C64.2719 734.87 64.5256 734.83 64.7521 734.752C64.9816 734.67 65.1794 734.549 65.3455 734.389C65.5116 734.226 65.64 734.024 65.7306 733.782L66.7635 734.072C66.6547 734.423 66.472 734.731 66.2153 734.996C65.9586 735.259 65.6415 735.465 65.264 735.613C64.8865 735.758 64.4621 735.83 63.991 735.83ZM68.4985 735.685V728.727H69.5314V729.778H69.6039C69.7307 729.433 69.9603 729.154 70.2925 728.94C70.6247 728.725 70.9992 728.618 71.416 728.618C71.4945 728.618 71.5926 728.619 71.7104 728.622C71.8282 728.626 71.9173 728.63 71.9777 728.636V729.723C71.9415 729.714 71.8584 729.701 71.7286 729.683C71.6017 729.661 71.4673 729.651 71.3254 729.651C70.9871 729.651 70.6851 729.722 70.4193 729.864C70.1566 730.003 69.9482 730.196 69.7942 730.444C69.6432 730.688 69.5677 730.968 69.5677 731.282V735.685H68.4985ZM79.841 735.685H76.9779V726.407H79.9678C80.8678 726.407 81.638 726.593 82.2782 726.964C82.9185 727.333 83.4093 727.863 83.7505 728.555C84.0918 729.243 84.2625 730.068 84.2625 731.028C84.2625 731.994 84.0903 732.827 83.746 733.524C83.4017 734.219 82.9004 734.753 82.242 735.128C81.5836 735.499 80.7833 735.685 79.841 735.685ZM78.1014 734.688H79.7685C80.5356 734.688 81.1714 734.54 81.6757 734.244C82.1801 733.948 82.5561 733.527 82.8037 732.981C83.0514 732.434 83.1752 731.783 83.1752 731.028C83.1752 730.279 83.0529 729.634 82.8083 729.094C82.5636 728.55 82.1982 728.133 81.712 727.843C81.2257 727.55 80.6202 727.404 79.8954 727.404H78.1014V734.688ZM86.002 735.685V728.727H87.0712V735.685H86.002ZM86.5457 727.567C86.3373 727.567 86.1576 727.496 86.0066 727.354C85.8586 727.212 85.7846 727.041 85.7846 726.842C85.7846 726.643 85.8586 726.472 86.0066 726.33C86.1576 726.188 86.3373 726.117 86.5457 726.117C86.7541 726.117 86.9322 726.188 87.0802 726.33C87.2312 726.472 87.3067 726.643 87.3067 726.842C87.3067 727.041 87.2312 727.212 87.0802 727.354C86.9322 727.496 86.7541 727.567 86.5457 727.567ZM93.9582 730.285L92.9978 730.557C92.9374 730.397 92.8483 730.241 92.7305 730.09C92.6157 729.936 92.4587 729.809 92.2594 729.71C92.06 729.61 91.8048 729.56 91.4938 729.56C91.0679 729.56 90.7131 729.658 90.4292 729.855C90.1483 730.048 90.0079 730.294 90.0079 730.593C90.0079 730.859 90.1045 731.069 90.2978 731.223C90.4911 731.377 90.7931 731.505 91.2038 731.608L92.2367 731.862C92.8589 732.013 93.3225 732.244 93.6275 732.555C93.9325 732.863 94.085 733.26 94.085 733.746C94.085 734.145 93.9703 734.501 93.7407 734.815C93.5142 735.129 93.1971 735.377 92.7894 735.558C92.3817 735.739 91.9075 735.83 91.3669 735.83C90.6572 735.83 90.0698 735.676 89.6047 735.368C89.1396 735.06 88.8451 734.61 88.7213 734.018L89.7361 733.764C89.8327 734.139 90.0154 734.42 90.2842 734.607C90.556 734.794 90.9109 734.888 91.3488 734.888C91.8471 734.888 92.2428 734.782 92.5357 734.571C92.8317 734.356 92.9797 734.099 92.9797 733.8C92.9797 733.559 92.8951 733.357 92.726 733.193C92.5569 733.027 92.2971 732.904 91.9468 732.822L90.7871 732.55C90.1498 732.399 89.6817 732.165 89.3827 731.848C89.0867 731.528 88.9387 731.128 88.9387 730.647C88.9387 730.255 89.049 729.908 89.2694 729.606C89.4929 729.304 89.7965 729.066 90.18 728.894C90.5666 728.722 91.0045 728.636 91.4938 728.636C92.1824 728.636 92.723 728.787 93.1156 729.089C93.5112 729.391 93.7921 729.79 93.9582 730.285ZM98.5212 735.83C97.8689 735.83 97.3071 735.676 96.836 735.368C96.3649 735.06 96.0024 734.636 95.7487 734.095C95.4951 733.554 95.3682 732.937 95.3682 732.242C95.3682 731.535 95.4981 730.912 95.7578 730.371C96.0206 729.828 96.386 729.403 96.8541 729.098C97.3253 728.79 97.8749 728.636 98.5031 728.636C98.9924 728.636 99.4333 728.727 99.8259 728.908C100.219 729.089 100.54 729.343 100.791 729.669C101.042 729.995 101.197 730.376 101.257 730.811H100.188C100.107 730.493 99.9256 730.213 99.6447 729.968C99.3669 729.72 98.9924 729.596 98.5212 729.596C98.1044 729.596 97.739 729.705 97.4249 729.923C97.1138 730.137 96.8707 730.441 96.6956 730.833C96.5234 731.223 96.4373 731.68 96.4373 732.206C96.4373 732.743 96.5219 733.212 96.691 733.61C96.8632 734.009 97.1048 734.318 97.4159 734.539C97.73 734.759 98.0984 734.87 98.5212 734.87C98.7991 734.87 99.0513 734.821 99.2778 734.725C99.5043 734.628 99.6961 734.489 99.8531 734.308C100.01 734.127 100.122 733.909 100.188 733.656H101.257C101.197 734.066 101.048 734.436 100.809 734.765C100.573 735.092 100.261 735.351 99.8712 735.545C99.4846 735.735 99.0346 735.83 98.5212 735.83ZM105.647 735.83C105.019 735.83 104.468 735.681 103.994 735.382C103.523 735.083 103.154 734.664 102.888 734.127C102.626 733.589 102.494 732.961 102.494 732.242C102.494 731.517 102.626 730.885 102.888 730.344C103.154 729.803 103.523 729.384 103.994 729.085C104.468 728.786 105.019 728.636 105.647 728.636C106.275 728.636 106.825 728.786 107.296 729.085C107.77 729.384 108.139 729.803 108.402 730.344C108.667 730.885 108.8 731.517 108.8 732.242C108.8 732.961 108.667 733.589 108.402 734.127C108.139 734.664 107.77 735.083 107.296 735.382C106.825 735.681 106.275 735.83 105.647 735.83ZM105.647 734.87C106.124 734.87 106.517 734.747 106.825 734.503C107.133 734.258 107.361 733.936 107.509 733.538C107.657 733.139 107.731 732.707 107.731 732.242C107.731 731.777 107.657 731.344 107.509 730.942C107.361 730.54 107.133 730.216 106.825 729.968C106.517 729.72 106.124 729.596 105.647 729.596C105.17 729.596 104.777 729.72 104.469 729.968C104.161 730.216 103.933 730.54 103.785 730.942C103.637 731.344 103.563 731.777 103.563 732.242C103.563 732.707 103.637 733.139 103.785 733.538C103.933 733.936 104.161 734.258 104.469 734.503C104.777 734.747 105.17 734.87 105.647 734.87ZM114.817 732.84V728.727H115.887V735.685H114.817V734.507H114.745C114.582 734.861 114.328 735.161 113.984 735.409C113.64 735.653 113.205 735.776 112.679 735.776C112.244 735.776 111.858 735.681 111.519 735.49C111.181 735.297 110.915 735.007 110.722 734.62C110.529 734.231 110.432 733.74 110.432 733.148V728.727H111.501V733.076C111.501 733.583 111.643 733.988 111.927 734.29C112.214 734.592 112.58 734.743 113.023 734.743C113.289 734.743 113.56 734.675 113.834 734.539C114.112 734.403 114.345 734.195 114.532 733.914C114.722 733.633 114.817 733.275 114.817 732.84ZM118.914 731.499V735.685H117.845V728.727H118.878V729.814H118.968C119.131 729.461 119.379 729.177 119.711 728.962C120.043 728.745 120.472 728.636 120.998 728.636C121.469 728.636 121.881 728.733 122.235 728.926C122.588 729.116 122.863 729.406 123.059 729.796C123.255 730.182 123.353 730.672 123.353 731.264V735.685H122.284V731.336C122.284 730.789 122.142 730.364 121.858 730.059C121.575 729.751 121.185 729.596 120.69 729.596C120.348 729.596 120.043 729.67 119.775 729.818C119.509 729.966 119.299 730.182 119.145 730.466C118.991 730.75 118.914 731.094 118.914 731.499ZM128.333 728.727V729.633H124.727V728.727H128.333ZM125.778 727.06H126.847V733.692C126.847 733.994 126.891 734.22 126.979 734.371C127.069 734.519 127.184 734.619 127.323 734.67C127.465 734.719 127.614 734.743 127.772 734.743C127.889 734.743 127.986 734.737 128.061 734.725C128.137 734.71 128.197 734.697 128.243 734.688L128.46 735.649C128.388 735.676 128.286 735.703 128.157 735.73C128.027 735.761 127.862 735.776 127.663 735.776C127.361 735.776 127.065 735.711 126.775 735.581C126.488 735.451 126.249 735.253 126.059 734.987C125.872 734.722 125.778 734.386 125.778 733.982V727.06ZM141.14 729.307H140.017C139.95 728.983 139.834 728.7 139.668 728.455C139.505 728.21 139.305 728.005 139.07 727.839C138.837 727.67 138.579 727.543 138.295 727.458C138.011 727.374 137.715 727.331 137.407 727.331C136.845 727.331 136.337 727.473 135.881 727.757C135.428 728.041 135.067 728.459 134.798 729.012C134.532 729.565 134.399 730.243 134.399 731.046C134.399 731.849 134.532 732.528 134.798 733.08C135.067 733.633 135.428 734.051 135.881 734.335C136.337 734.619 136.845 734.761 137.407 734.761C137.715 734.761 138.011 734.719 138.295 734.634C138.579 734.549 138.837 734.424 139.07 734.258C139.305 734.089 139.505 733.882 139.668 733.637C139.834 733.39 139.95 733.106 140.017 732.786H141.14C141.056 733.26 140.902 733.684 140.678 734.059C140.455 734.433 140.177 734.752 139.844 735.015C139.512 735.274 139.139 735.472 138.726 735.608C138.315 735.744 137.875 735.812 137.407 735.812C136.616 735.812 135.912 735.619 135.296 735.232C134.68 734.845 134.195 734.296 133.842 733.583C133.489 732.87 133.312 732.025 133.312 731.046C133.312 730.068 133.489 729.222 133.842 728.509C134.195 727.796 134.68 727.247 135.296 726.86C135.912 726.474 136.616 726.28 137.407 726.28C137.875 726.28 138.315 726.348 138.726 726.484C139.139 726.62 139.512 726.819 139.844 727.082C140.177 727.342 140.455 727.659 140.678 728.034C140.902 728.405 141.056 728.829 141.14 729.307ZM145.637 735.83C145.009 735.83 144.458 735.681 143.984 735.382C143.513 735.083 143.144 734.664 142.879 734.127C142.616 733.589 142.484 732.961 142.484 732.242C142.484 731.517 142.616 730.885 142.879 730.344C143.144 729.803 143.513 729.384 143.984 729.085C144.458 728.786 145.009 728.636 145.637 728.636C146.266 728.636 146.815 728.786 147.286 729.085C147.761 729.384 148.129 729.803 148.392 730.344C148.658 730.885 148.79 731.517 148.79 732.242C148.79 732.961 148.658 733.589 148.392 734.127C148.129 734.664 147.761 735.083 147.286 735.382C146.815 735.681 146.266 735.83 145.637 735.83ZM145.637 734.87C146.115 734.87 146.507 734.747 146.815 734.503C147.123 734.258 147.351 733.936 147.499 733.538C147.647 733.139 147.721 732.707 147.721 732.242C147.721 731.777 147.647 731.344 147.499 730.942C147.351 730.54 147.123 730.216 146.815 729.968C146.507 729.72 146.115 729.596 145.637 729.596C145.16 729.596 144.768 729.72 144.46 729.968C144.152 730.216 143.924 730.54 143.776 730.942C143.628 731.344 143.554 731.777 143.554 732.242C143.554 732.707 143.628 733.139 143.776 733.538C143.924 733.936 144.152 734.258 144.46 734.503C144.768 734.747 145.16 734.87 145.637 734.87ZM153.05 735.83C152.47 735.83 151.958 735.684 151.514 735.391C151.07 735.095 150.723 734.678 150.472 734.14C150.222 733.6 150.096 732.961 150.096 732.224C150.096 731.493 150.222 730.859 150.472 730.321C150.723 729.784 151.072 729.368 151.519 729.076C151.966 728.783 152.482 728.636 153.068 728.636C153.521 728.636 153.879 728.712 154.142 728.863C154.408 729.011 154.61 729.18 154.749 729.37C154.891 729.557 155.001 729.711 155.08 729.832H155.17V726.407H156.239V735.685H155.206V734.616H155.08C155.001 734.743 154.889 734.903 154.744 735.096C154.599 735.286 154.392 735.457 154.124 735.608C153.855 735.756 153.497 735.83 153.05 735.83ZM153.195 734.87C153.624 734.87 153.986 734.758 154.282 734.534C154.578 734.308 154.803 733.995 154.957 733.597C155.111 733.195 155.188 732.731 155.188 732.206C155.188 731.686 155.113 731.232 154.962 730.842C154.811 730.45 154.587 730.145 154.291 729.927C153.995 729.707 153.63 729.596 153.195 729.596C152.742 729.596 152.364 729.713 152.062 729.945C151.763 730.175 151.538 730.487 151.387 730.883C151.239 731.276 151.165 731.717 151.165 732.206C151.165 732.701 151.241 733.151 151.392 733.556C151.546 733.958 151.772 734.278 152.071 734.516C152.373 734.752 152.748 734.87 153.195 734.87ZM161.263 735.83C160.593 735.83 160.014 735.682 159.528 735.386C159.045 735.087 158.672 734.67 158.409 734.136C158.149 733.598 158.02 732.973 158.02 732.26C158.02 731.547 158.149 730.919 158.409 730.376C158.672 729.829 159.037 729.403 159.505 729.098C159.977 728.79 160.526 728.636 161.154 728.636C161.517 728.636 161.875 728.696 162.228 728.817C162.581 728.938 162.903 729.134 163.193 729.406C163.483 729.675 163.714 730.031 163.886 730.475C164.058 730.919 164.144 731.466 164.144 732.115V732.568H158.781V731.644H163.057C163.057 731.252 162.979 730.901 162.822 730.593C162.668 730.285 162.447 730.042 162.16 729.864C161.876 729.686 161.541 729.596 161.154 729.596C160.729 729.596 160.36 729.702 160.049 729.914C159.741 730.122 159.504 730.394 159.338 730.729C159.172 731.064 159.089 731.424 159.089 731.807V732.423C159.089 732.949 159.179 733.394 159.361 733.76C159.545 734.122 159.8 734.398 160.126 734.589C160.452 734.776 160.831 734.87 161.263 734.87C161.544 734.87 161.798 734.83 162.024 734.752C162.254 734.67 162.452 734.549 162.618 734.389C162.784 734.226 162.912 734.024 163.003 733.782L164.036 734.072C163.927 734.423 163.744 734.731 163.488 734.996C163.231 735.259 162.914 735.465 162.536 735.613C162.159 735.758 161.734 735.83 161.263 735.83Z" fill="black" fill-opacity="0.6"/>
<path d="M319.177 735.864H317.831L321.724 725.261H323.05L326.943 735.864H325.597L322.428 726.938H322.345L319.177 735.864ZM319.674 731.722H325.1V732.861H319.674V731.722ZM328.429 738.846V727.911H329.609V729.175H329.754C329.844 729.037 329.968 728.861 330.127 728.647C330.289 728.429 330.52 728.236 330.821 728.067C331.125 727.894 331.535 727.808 332.053 727.808C332.723 727.808 333.313 727.975 333.824 728.31C334.334 728.645 334.733 729.119 335.02 729.734C335.306 730.348 335.449 731.073 335.449 731.908C335.449 732.75 335.306 733.48 335.02 734.098C334.733 734.713 334.336 735.189 333.829 735.527C333.321 735.862 332.736 736.029 332.074 736.029C331.563 736.029 331.154 735.945 330.847 735.776C330.539 735.603 330.303 735.408 330.137 735.191C329.972 734.97 329.844 734.787 329.754 734.642H329.651V738.846H328.429ZM329.63 731.888C329.63 732.488 329.718 733.018 329.894 733.477C330.07 733.933 330.327 734.29 330.665 734.549C331.004 734.804 331.418 734.932 331.908 734.932C332.419 734.932 332.845 734.797 333.187 734.528C333.532 734.255 333.791 733.889 333.963 733.43C334.139 732.968 334.227 732.454 334.227 731.888C334.227 731.328 334.141 730.824 333.969 730.376C333.799 729.924 333.542 729.566 333.197 729.304C332.855 729.038 332.426 728.905 331.908 728.905C331.411 728.905 330.993 729.031 330.655 729.283C330.317 729.532 330.061 729.88 329.889 730.329C329.716 730.774 329.63 731.294 329.63 731.888ZM337.313 738.846V727.911H338.494V729.175H338.639C338.728 729.037 338.853 728.861 339.011 728.647C339.174 728.429 339.405 728.236 339.705 728.067C340.009 727.894 340.42 727.808 340.937 727.808C341.607 727.808 342.197 727.975 342.708 728.31C343.219 728.645 343.617 729.119 343.904 729.734C344.19 730.348 344.334 731.073 344.334 731.908C344.334 732.75 344.19 733.48 343.904 734.098C343.617 734.713 343.221 735.189 342.713 735.527C342.206 735.862 341.621 736.029 340.958 736.029C340.447 736.029 340.038 735.945 339.731 735.776C339.424 735.603 339.187 735.408 339.022 735.191C338.856 734.97 338.728 734.787 338.639 734.642H338.535V738.846H337.313ZM338.514 731.888C338.514 732.488 338.602 733.018 338.778 733.477C338.954 733.933 339.212 734.29 339.55 734.549C339.888 734.804 340.302 734.932 340.792 734.932C341.303 734.932 341.729 734.797 342.071 734.528C342.416 734.255 342.675 733.889 342.848 733.43C343.024 732.968 343.112 732.454 343.112 731.888C343.112 731.328 343.026 730.824 342.853 730.376C342.684 729.924 342.427 729.566 342.082 729.304C341.74 729.038 341.31 728.905 340.792 728.905C340.295 728.905 339.878 729.031 339.539 729.283C339.201 729.532 338.946 729.88 338.773 730.329C338.601 730.774 338.514 731.294 338.514 731.888ZM347.419 725.261V735.864H346.198V725.261H347.419ZM350.444 738.846C350.237 738.846 350.053 738.829 349.89 738.794C349.728 738.763 349.616 738.732 349.554 738.701L349.864 737.624C350.161 737.7 350.424 737.728 350.651 737.707C350.879 737.686 351.081 737.584 351.257 737.401C351.437 737.222 351.601 736.93 351.749 736.526L351.977 735.905L349.036 727.911H350.361L352.557 734.248H352.639L354.835 727.911H356.16L352.784 737.023C352.633 737.434 352.444 737.774 352.22 738.043C351.996 738.316 351.735 738.518 351.438 738.649C351.145 738.78 350.814 738.846 350.444 738.846Z" fill="black"/>
<path d="M317.458 738.763H356.657V739.757H317.458V738.763Z" fill="black"/>
<rect x="22" y="149.443" width="353.551" height="49.2056" rx="18.2243" fill="white"/>
<rect x="22.4556" y="149.899" width="352.64" height="48.2944" rx="17.7687" stroke="black" stroke-opacity="0.15" stroke-width="0.911215"/>
<path d="M85.7268 173.2C86.3391 173.365 86.8056 173.681 87.1264 174.148C87.4471 174.605 87.6075 175.144 87.6075 175.766C87.6075 176.495 87.4277 177.093 87.0681 177.559C86.7084 178.016 86.2856 178.347 85.7997 178.551C85.3137 178.745 84.8666 178.842 84.4584 178.842H79.2243V168.491H83.8023C84.8423 168.491 85.6344 168.719 86.1787 169.176C86.7327 169.633 87.0098 170.294 87.0098 171.159C87.0098 171.577 86.8931 171.975 86.6598 172.354C86.4266 172.733 86.1155 173.015 85.7268 173.2ZM80.5365 169.745V172.719H83.7294C84.9929 172.719 85.6247 172.223 85.6247 171.232C85.6247 170.24 84.9929 169.745 83.7294 169.745H80.5365ZM84.0355 177.588C84.8034 177.588 85.3574 177.413 85.6976 177.064C86.0475 176.704 86.2225 176.247 86.2225 175.693C86.2225 175.246 86.0767 174.848 85.7851 174.498C85.4935 174.148 84.9443 173.973 84.1376 173.973H80.5365V177.588H84.0355ZM89.556 170.007C89.313 170.007 89.1041 169.925 88.9291 169.759C88.7639 169.594 88.6813 169.39 88.6813 169.147C88.6813 168.904 88.7639 168.695 88.9291 168.52C89.1041 168.345 89.313 168.258 89.556 168.258C89.799 168.258 90.0031 168.345 90.1684 168.52C90.3433 168.695 90.4308 168.904 90.4308 169.147C90.4308 169.39 90.3433 169.594 90.1684 169.759C90.0031 169.925 89.799 170.007 89.556 170.007ZM88.9 178.842V171.844H90.2121V178.842H88.9ZM93.934 173.098V175.722C93.934 176.344 94.0506 176.811 94.2839 177.122C94.5171 177.433 94.9108 177.588 95.4648 177.588H95.9022V178.842H95.042C94.3228 178.842 93.7396 178.614 93.2925 178.157C92.8454 177.7 92.6218 176.966 92.6218 175.956V173.098H91.5867V171.844H92.6218V168.258H93.934V171.844H95.9022V173.098H93.934ZM97.075 174.789C97.075 174.099 97.2111 173.516 97.4833 173.04C97.7554 172.554 98.1199 172.194 98.5767 171.961C99.0335 171.728 99.5341 171.611 100.078 171.611H100.924C101.634 171.611 102.241 171.825 102.746 172.252C103.252 172.67 103.548 173.288 103.636 174.104H102.265C102.178 173.696 101.993 173.39 101.711 173.185C101.439 172.972 101.036 172.865 100.501 172.865C99.7431 172.865 99.1988 173.049 98.8683 173.419C98.5476 173.788 98.3872 174.323 98.3872 175.022V175.664C98.3872 176.364 98.5476 176.898 98.8683 177.268C99.1988 177.637 99.7431 177.822 100.501 177.822C101.084 177.822 101.517 177.7 101.799 177.457C102.081 177.214 102.251 176.864 102.309 176.408H103.665C103.607 177.282 103.32 177.948 102.805 178.405C102.29 178.852 101.663 179.076 100.924 179.076H100.078C99.5341 179.076 99.0335 178.959 98.5767 178.726C98.1199 178.492 97.7554 178.138 97.4833 177.661C97.2111 177.175 97.075 176.587 97.075 175.897V174.789ZM108.543 171.611C109.107 171.611 109.622 171.728 110.088 171.961C110.555 172.194 110.924 172.549 111.196 173.025C111.478 173.501 111.619 174.089 111.619 174.789V175.897C111.619 176.597 111.478 177.185 111.196 177.661C110.924 178.138 110.555 178.492 110.088 178.726C109.622 178.959 109.107 179.076 108.543 179.076H107.697C107.134 179.076 106.618 178.959 106.152 178.726C105.685 178.492 105.311 178.138 105.029 177.661C104.757 177.185 104.621 176.597 104.621 175.897V174.789C104.621 174.089 104.757 173.501 105.029 173.025C105.311 172.549 105.685 172.194 106.152 171.961C106.618 171.728 107.134 171.611 107.697 171.611H108.543ZM110.307 175.022C110.307 174.323 110.137 173.788 109.797 173.419C109.466 173.049 108.907 172.865 108.12 172.865C107.333 172.865 106.769 173.049 106.429 173.419C106.098 173.788 105.933 174.323 105.933 175.022V175.664C105.933 176.364 106.098 176.898 106.429 177.268C106.769 177.637 107.333 177.822 108.12 177.822C108.907 177.822 109.466 177.637 109.797 177.268C110.137 176.898 110.307 176.364 110.307 175.664V175.022ZM113.931 170.007C113.688 170.007 113.479 169.925 113.304 169.759C113.139 169.594 113.056 169.39 113.056 169.147C113.056 168.904 113.139 168.695 113.304 168.52C113.479 168.345 113.688 168.258 113.931 168.258C114.174 168.258 114.378 168.345 114.543 168.52C114.718 168.695 114.806 168.904 114.806 169.147C114.806 169.39 114.718 169.594 114.543 169.759C114.378 169.925 114.174 170.007 113.931 170.007ZM113.275 178.842V171.844H114.587V178.842H113.275ZM120.525 171.611C120.972 171.611 121.395 171.708 121.793 171.902C122.192 172.087 122.518 172.398 122.77 172.836C123.033 173.263 123.164 173.817 123.164 174.498V178.842H121.852V174.731C121.852 174.08 121.711 173.608 121.429 173.317C121.157 173.015 120.715 172.865 120.102 172.865C119.82 172.865 119.529 172.942 119.227 173.098C118.926 173.244 118.669 173.492 118.455 173.842C118.251 174.182 118.149 174.629 118.149 175.183V178.842H116.836V171.844H118.061V172.996C118.304 172.597 118.659 172.267 119.125 172.005C119.602 171.742 120.068 171.611 120.525 171.611ZM135.061 173.2C135.673 173.365 136.139 173.681 136.46 174.148C136.781 174.605 136.941 175.144 136.941 175.766C136.941 176.495 136.761 177.093 136.402 177.559C136.042 178.016 135.619 178.347 135.133 178.551C134.647 178.745 134.2 178.842 133.792 178.842H128.558V168.491H133.136C134.176 168.491 134.968 168.719 135.512 169.176C136.067 169.633 136.344 170.294 136.344 171.159C136.344 171.577 136.227 171.975 135.994 172.354C135.76 172.733 135.449 173.015 135.061 173.2ZM129.87 169.745V172.719H133.063C134.327 172.719 134.958 172.223 134.958 171.232C134.958 170.24 134.327 169.745 133.063 169.745H129.87ZM133.369 177.588C134.137 177.588 134.691 177.413 135.031 177.064C135.381 176.704 135.556 176.247 135.556 175.693C135.556 175.246 135.41 174.848 135.119 174.498C134.827 174.148 134.278 173.973 133.471 173.973H129.87V177.588H133.369ZM145.319 168.491V169.745H141.966V178.842H140.654V169.745H137.301V168.491H145.319ZM145.756 173.171C145.756 172.121 145.94 171.232 146.31 170.503C146.689 169.764 147.209 169.205 147.87 168.826C148.531 168.447 149.279 168.258 150.115 168.258H151.31C151.903 168.258 152.472 168.389 153.016 168.651C153.56 168.914 154.027 169.298 154.416 169.803C154.805 170.308 155.072 170.911 155.218 171.611H153.818C153.633 170.979 153.274 170.474 152.739 170.095C152.205 169.706 151.529 169.511 150.713 169.511C149.42 169.511 148.487 169.861 147.913 170.561C147.35 171.261 147.068 172.17 147.068 173.288V174.046C147.068 175.154 147.35 176.053 147.913 176.743C148.487 177.433 149.42 177.778 150.713 177.778C151.597 177.778 152.311 177.564 152.856 177.136C153.4 176.709 153.75 176.145 153.905 175.445H155.261C155.145 176.213 154.892 176.874 154.503 177.428C154.124 177.972 153.653 178.385 153.089 178.667C152.535 178.939 151.942 179.076 151.31 179.076H150.115C149.279 179.076 148.531 178.886 147.87 178.507C147.209 178.128 146.689 177.574 146.31 176.845C145.94 176.106 145.756 175.212 145.756 174.162V173.171Z" fill="black"/>
<g clip-path="url(#clip0_551_4846)">
<path d="M67.1509 177.348C65.3253 184.67 57.909 189.127 50.5858 187.301C43.2656 185.475 38.8093 178.058 40.6357 170.736C42.4604 163.413 49.8767 158.957 57.1978 160.782C64.5205 162.608 68.9764 170.025 67.1509 177.348Z" fill="#F7931A"/>
<path d="M49.397 176.343C49.3227 176.528 49.1343 176.805 48.7097 176.7C48.7247 176.721 47.6197 176.428 47.6197 176.428L46.8752 178.144L48.8268 178.631C49.1898 178.722 49.5457 178.817 49.8959 178.907L49.2753 181.399L50.7732 181.772L51.3879 179.307C51.7851 179.414 52.1835 179.518 52.583 179.617L51.9705 182.071L53.4702 182.445L54.0908 179.957C56.648 180.441 58.571 180.246 59.3804 177.933C60.0326 176.071 59.3479 174.997 58.0025 174.296C58.9823 174.07 59.7204 173.426 59.9173 172.094C60.1894 170.276 58.8046 169.298 56.9111 168.646L57.5253 166.182L56.0256 165.808L55.4277 168.207C55.0334 168.109 54.6285 168.016 54.2262 167.924L54.8284 165.509L53.3296 165.136L52.7149 167.599C52.3886 167.524 52.0683 167.451 51.7573 167.373L51.759 167.366L49.6908 166.849L49.2918 168.451C49.2918 168.451 50.4045 168.706 50.381 168.722C50.9884 168.874 51.0982 169.275 51.0799 169.594L49.397 176.343ZM56.4908 176.899C56.0274 178.761 52.8918 177.755 51.8752 177.502L52.6988 174.201C53.7153 174.455 56.9752 174.957 56.4908 176.899ZM56.9547 172.067C56.5318 173.761 53.922 172.901 53.0755 172.69L53.8221 169.695C54.6687 169.906 57.3951 170.3 56.9547 172.067Z" fill="white"/>
</g>
<path d="M354.23 171.73L349.279 176.681C348.694 177.266 347.737 177.266 347.153 176.681L342.202 171.73" stroke="black" stroke-opacity="0.75" stroke-width="1.36682" stroke-miterlimit="10" stroke-linecap="round" stroke-linejoin="round"/>
<rect x="22" y="340.797" width="169.486" height="109.346" rx="18.2243" fill="white"/>
<rect x="22.4556" y="341.252" width="168.575" height="108.435" rx="17.7687" stroke="black" stroke-opacity="0.1" stroke-width="0.911215"/>
<path d="M56.3893 409.591V411.158H54.6216V414.293H52.9814V411.158H46.3659V408.862L50.8491 401.354H54.6216V409.591H56.3893ZM48.0061 409.591H52.9814V402.921H51.7239L48.0061 409.081V409.591ZM62.6348 401.062C63.619 401.062 64.5241 401.305 65.3503 401.791C66.1764 402.265 66.8386 403.012 67.3367 404.033C67.847 405.041 68.1021 406.305 68.1021 407.823C68.1021 410.193 67.5919 411.912 66.5713 412.981C65.5507 414.05 64.2386 414.585 62.6348 414.585C61.675 414.585 60.776 414.348 59.9376 413.874C59.1115 413.388 58.4433 412.641 57.933 411.632C57.4227 410.612 57.1676 409.342 57.1676 407.823C57.1676 406.292 57.4227 405.023 57.933 404.014C58.4433 403.006 59.1115 402.265 59.9376 401.791C60.776 401.305 61.675 401.062 62.6348 401.062ZM62.6348 402.629C61.3348 402.629 60.369 403.103 59.7372 404.051C59.1176 404.986 58.8077 406.244 58.8077 407.823C58.8077 409.439 59.1236 410.685 59.7554 411.559L64.3115 402.994C63.8255 402.751 63.2666 402.629 62.6348 402.629ZM62.6348 412.908C63.947 412.908 64.9129 412.452 65.5325 411.541C66.1521 410.63 66.4619 409.391 66.4619 407.823C66.4619 406.171 66.14 404.901 65.4961 404.014L60.94 412.562C61.4381 412.793 62.0031 412.908 62.6348 412.908ZM71.1815 414.384C70.8534 414.384 70.574 414.275 70.3432 414.056C70.1123 413.825 69.9969 413.546 69.9969 413.218C69.9969 412.89 70.1123 412.61 70.3432 412.379C70.574 412.136 70.8534 412.015 71.1815 412.015C71.5095 412.015 71.7889 412.136 72.0198 412.379C72.2506 412.61 72.3661 412.89 72.3661 413.218C72.3661 413.546 72.2506 413.825 72.0198 414.056C71.7889 414.275 71.5095 414.384 71.1815 414.384ZM79.5197 406.11C80.2972 406.11 81.0262 406.262 81.7066 406.566C82.3991 406.87 82.958 407.337 83.3832 407.969C83.8084 408.601 84.0211 409.378 84.0211 410.302C84.0211 411.298 83.7902 412.118 83.3285 412.762C82.8669 413.394 82.2594 413.856 81.5061 414.147C80.765 414.439 79.9631 414.585 79.1005 414.585C77.9827 414.585 77.0047 414.293 76.1664 413.71C75.3402 413.127 74.7388 412.288 74.3622 411.195H76.2575C76.5005 411.705 76.8528 412.118 77.3145 412.434C77.7884 412.75 78.3837 412.908 79.1005 412.908C80.0482 412.908 80.8318 412.671 81.4514 412.197C82.0711 411.723 82.3809 411.092 82.3809 410.302C82.3809 409.719 82.229 409.233 81.9253 408.844C81.6337 408.443 81.257 408.151 80.7954 407.969C80.3337 407.775 79.8477 407.678 79.3374 407.678C78.6206 407.678 77.9767 407.799 77.4056 408.042C76.8346 408.273 76.4215 408.589 76.1664 408.99H74.6355L76.0935 401.354H82.6178V402.921H77.5514L76.6038 407.094C77.4299 406.438 78.4019 406.11 79.5197 406.11ZM90.8434 401.062C91.8275 401.062 92.7326 401.305 93.5588 401.791C94.385 402.265 95.0471 403.012 95.5452 404.033C96.0555 405.041 96.3107 406.305 96.3107 407.823C96.3107 410.193 95.8004 411.912 94.7798 412.981C93.7592 414.05 92.4471 414.585 90.8434 414.585C89.8835 414.585 88.9845 414.348 88.1462 413.874C87.32 413.388 86.6518 412.641 86.1415 411.632C85.6312 410.612 85.3761 409.342 85.3761 407.823C85.3761 406.292 85.6312 405.023 86.1415 404.014C86.6518 403.006 87.32 402.265 88.1462 401.791C88.9845 401.305 89.8835 401.062 90.8434 401.062ZM90.8434 402.629C89.5434 402.629 88.5775 403.103 87.9457 404.051C87.3261 404.986 87.0163 406.244 87.0163 407.823C87.0163 409.439 87.3321 410.685 87.9639 411.559L92.52 402.994C92.034 402.751 91.4751 402.629 90.8434 402.629ZM90.8434 412.908C92.1555 412.908 93.1214 412.452 93.741 411.541C94.3607 410.63 94.6705 409.391 94.6705 407.823C94.6705 406.171 94.3485 404.901 93.7046 404.014L89.1485 412.562C89.6466 412.793 90.2116 412.908 90.8434 412.908Z" fill="black"/>
<path d="M53.1574 378.311C53.0577 378.006 52.9264 377.733 52.7633 377.491C52.6032 377.246 52.4114 377.038 52.1879 376.866C51.9675 376.694 51.7168 376.562 51.4359 376.472C51.1551 376.381 50.847 376.336 50.5118 376.336C49.9621 376.336 49.4623 376.478 49.0123 376.762C48.5623 377.046 48.2044 377.464 47.9386 378.016C47.6729 378.569 47.54 379.247 47.54 380.051C47.54 380.854 47.6744 381.532 47.9432 382.085C48.2119 382.637 48.5759 383.056 49.0349 383.339C49.494 383.623 50.0104 383.765 50.5843 383.765C51.1158 383.765 51.5839 383.652 51.9886 383.426C52.3963 383.196 52.7134 382.873 52.94 382.456C53.1695 382.036 53.2842 381.542 53.2842 380.975L53.6285 381.047H50.8379V380.051H54.3715V381.047C54.3715 381.811 54.2084 382.476 53.8822 383.04C53.5591 383.605 53.1121 384.043 52.5413 384.354C51.9735 384.662 51.3212 384.816 50.5843 384.816C49.7628 384.816 49.041 384.623 48.4188 384.236C47.7997 383.85 47.3165 383.3 46.9692 382.587C46.6249 381.875 46.4527 381.029 46.4527 380.051C46.4527 379.317 46.5509 378.657 46.7472 378.071C46.9465 377.482 47.2274 376.981 47.5898 376.567C47.9522 376.153 48.3811 375.836 48.8764 375.615C49.3717 375.395 49.9168 375.285 50.5118 375.285C51.001 375.285 51.4571 375.359 51.8799 375.507C52.3057 375.652 52.6848 375.859 53.017 376.127C53.3522 376.393 53.6316 376.712 53.8551 377.083C54.0785 377.452 54.2326 377.861 54.3171 378.311H53.1574ZM59.0682 384.834C58.3977 384.834 57.8193 384.686 57.3331 384.39C56.8499 384.091 56.4769 383.675 56.2141 383.14C55.9544 382.603 55.8246 381.977 55.8246 381.265C55.8246 380.552 55.9544 379.924 56.2141 379.38C56.4769 378.833 56.8423 378.408 57.3105 378.103C57.7816 377.795 58.3313 377.64 58.9594 377.64C59.3219 377.64 59.6797 377.701 60.0331 377.822C60.3865 377.942 60.7081 378.139 60.998 378.411C61.288 378.679 61.519 379.036 61.6911 379.48C61.8633 379.924 61.9494 380.47 61.9494 381.12V381.573H56.5856V380.649H60.8621C60.8621 380.256 60.7836 379.906 60.6266 379.598C60.4725 379.289 60.2521 379.046 59.9651 378.868C59.6813 378.69 59.346 378.601 58.9594 378.601C58.5336 378.601 58.1651 378.707 57.8541 378.918C57.546 379.126 57.3089 379.398 57.1428 379.733C56.9767 380.069 56.8937 380.428 56.8937 380.812V381.428C56.8937 381.953 56.9843 382.399 57.1655 382.764C57.3497 383.127 57.6049 383.403 57.9311 383.593C58.2573 383.78 58.6363 383.874 59.0682 383.874C59.349 383.874 59.6027 383.835 59.8292 383.756C60.0588 383.675 60.2566 383.554 60.4227 383.394C60.5888 383.231 60.7172 383.028 60.8078 382.787L61.8406 383.077C61.7319 383.427 61.5492 383.735 61.2925 384.001C61.0358 384.264 60.7187 384.469 60.3411 384.617C59.9636 384.762 59.5393 384.834 59.0682 384.834ZM66.6019 377.731V378.637H62.9958V377.731H66.6019ZM64.0468 376.064H65.116V382.696C65.116 382.998 65.1598 383.225 65.2473 383.376C65.3379 383.524 65.4527 383.623 65.5916 383.675C65.7336 383.723 65.8831 383.747 66.0401 383.747C66.1579 383.747 66.2546 383.741 66.3301 383.729C66.4056 383.714 66.466 383.702 66.5113 383.693L66.7287 384.653C66.6562 384.68 66.5551 384.708 66.4252 384.735C66.2953 384.765 66.1307 384.78 65.9314 384.78C65.6294 384.78 65.3334 384.715 65.0435 384.585C64.7566 384.455 64.518 384.258 64.3277 383.992C64.1405 383.726 64.0468 383.391 64.0468 382.986V376.064Z" fill="black" fill-opacity="0.6"/>
<rect x="207" y="216.873" width="169.486" height="109.346" rx="18.2243" fill="white"/>
<rect x="207.456" y="217.329" width="168.575" height="108.435" rx="17.7687" stroke="black" stroke-opacity="0.1" stroke-width="0.911215"/>
<path d="M276.18 270.557C276.945 270.764 277.528 271.158 277.929 271.742C278.33 272.313 278.531 272.987 278.531 273.765C278.531 274.676 278.306 275.423 277.856 276.006C277.407 276.577 276.878 276.99 276.271 277.245C275.663 277.488 275.104 277.61 274.594 277.61H268.052V264.671H273.774C275.074 264.671 276.064 264.956 276.745 265.527C277.437 266.098 277.783 266.924 277.783 268.006C277.783 268.528 277.638 269.026 277.346 269.5C277.054 269.974 276.666 270.326 276.18 270.557ZM269.692 266.238V269.956H273.683C275.262 269.956 276.052 269.336 276.052 268.097C276.052 266.858 275.262 266.238 273.683 266.238H269.692ZM274.066 276.043C275.025 276.043 275.718 275.824 276.143 275.386C276.581 274.937 276.799 274.366 276.799 273.673C276.799 273.115 276.617 272.616 276.253 272.179C275.888 271.742 275.202 271.523 274.193 271.523H269.692V276.043H274.066ZM289.003 264.671V266.238H284.812V277.61H283.171V266.238H278.98V264.671H289.003ZM289.548 270.521C289.548 269.208 289.779 268.097 290.241 267.186C290.715 266.262 291.365 265.564 292.191 265.09C293.017 264.616 293.953 264.379 294.998 264.379H296.492C297.233 264.379 297.944 264.543 298.624 264.871C299.305 265.199 299.888 265.679 300.374 266.311C300.86 266.943 301.194 267.696 301.376 268.571H299.626C299.396 267.781 298.946 267.149 298.278 266.675C297.61 266.189 296.765 265.946 295.745 265.946C294.129 265.946 292.962 266.384 292.246 267.258C291.541 268.133 291.189 269.269 291.189 270.666V271.614C291.189 272.999 291.541 274.123 292.246 274.986C292.962 275.848 294.129 276.279 295.745 276.279C296.85 276.279 297.743 276.012 298.424 275.478C299.104 274.943 299.541 274.238 299.736 273.364H301.431C301.285 274.323 300.969 275.15 300.483 275.842C300.009 276.522 299.42 277.039 298.715 277.391C298.023 277.731 297.282 277.901 296.492 277.901H294.998C293.953 277.901 293.017 277.665 292.191 277.191C291.365 276.717 290.715 276.024 290.241 275.113C289.779 274.19 289.548 273.072 289.548 271.76V270.521Z" fill="black"/>
<path d="M327.535 269.695L323.574 273.656C323.106 274.123 322.341 274.123 321.873 273.656L317.912 269.695" stroke="black" stroke-opacity="0.75" stroke-width="1.36682" stroke-miterlimit="10" stroke-linecap="round" stroke-linejoin="round"/>
<g clip-path="url(#clip1_551_4846)">
<path d="M257.618 274.851C255.792 282.173 248.376 286.63 241.053 284.804C233.733 282.978 229.276 275.561 231.103 268.239C232.927 260.916 240.344 256.459 247.665 258.285C254.988 260.111 259.443 267.528 257.618 274.851Z" fill="#F7931A"/>
<path d="M239.864 273.847C239.79 274.032 239.601 274.309 239.177 274.204C239.192 274.225 238.087 273.931 238.087 273.931L237.342 275.648L239.294 276.135C239.657 276.226 240.013 276.321 240.363 276.411L239.742 278.902L241.24 279.276L241.855 276.811C242.252 276.918 242.651 277.022 243.05 277.121L242.438 279.575L243.937 279.948L244.558 277.461C247.115 277.945 249.038 277.75 249.847 275.437C250.5 273.575 249.815 272.501 248.47 271.8C249.449 271.574 250.187 270.93 250.384 269.598C250.656 267.779 249.272 266.802 247.378 266.149L247.992 263.686L246.493 263.312L245.895 265.711C245.5 265.613 245.096 265.52 244.693 265.428L245.295 263.013L243.797 262.64L243.182 265.102C242.856 265.028 242.535 264.955 242.224 264.877L242.226 264.87L240.158 264.353L239.759 265.955C239.759 265.955 240.872 266.21 240.848 266.226C241.455 266.377 241.565 266.779 241.547 267.098L239.864 273.847ZM246.958 274.403C246.494 276.265 243.359 275.259 242.342 275.006L243.166 271.705C244.182 271.958 247.442 272.461 246.958 274.403ZM247.422 269.571C246.999 271.265 244.389 270.405 243.543 270.194L244.289 267.199C245.136 267.41 247.862 267.804 247.422 269.571Z" fill="white"/>
</g>
<rect x="22.2244" y="776.358" width="353.551" height="49.2056" rx="18.2243" fill="black"/>
<path d="M169.668 799.38C169.668 798.199 169.876 797.198 170.291 796.378C170.718 795.547 171.303 794.919 172.046 794.492C172.79 794.066 173.632 793.852 174.572 793.852H175.917C176.584 793.852 177.224 794 177.836 794.295C178.448 794.591 178.973 795.022 179.411 795.591C179.848 796.16 180.149 796.838 180.313 797.625H178.738C178.53 796.914 178.126 796.346 177.525 795.919C176.923 795.482 176.163 795.263 175.245 795.263C173.79 795.263 172.741 795.657 172.095 796.444C171.461 797.231 171.144 798.254 171.144 799.511V800.364C171.144 801.611 171.461 802.622 172.095 803.398C172.741 804.175 173.79 804.563 175.245 804.563C176.24 804.563 177.043 804.322 177.656 803.841C178.268 803.36 178.662 802.726 178.837 801.939H180.362C180.231 802.802 179.947 803.546 179.509 804.169C179.083 804.782 178.552 805.246 177.918 805.563C177.295 805.87 176.628 806.023 175.917 806.023H174.572C173.632 806.023 172.79 805.809 172.046 805.383C171.303 804.957 170.718 804.333 170.291 803.513C169.876 802.682 169.668 801.676 169.668 800.495V799.38ZM185.771 797.625C186.405 797.625 186.985 797.756 187.51 798.019C188.034 798.281 188.45 798.68 188.756 799.216C189.073 799.752 189.232 800.413 189.232 801.201V802.447C189.232 803.234 189.073 803.896 188.756 804.432C188.45 804.967 188.034 805.367 187.51 805.629C186.985 805.891 186.405 806.023 185.771 806.023H184.82C184.185 806.023 183.606 805.891 183.081 805.629C182.556 805.367 182.135 804.967 181.818 804.432C181.512 803.896 181.359 803.234 181.359 802.447V801.201C181.359 800.413 181.512 799.752 181.818 799.216C182.135 798.68 182.556 798.281 183.081 798.019C183.606 797.756 184.185 797.625 184.82 797.625H185.771ZM187.756 801.463C187.756 800.676 187.564 800.074 187.181 799.659C186.81 799.243 186.181 799.035 185.295 799.035C184.41 799.035 183.775 799.243 183.393 799.659C183.021 800.074 182.835 800.676 182.835 801.463V802.185C182.835 802.972 183.021 803.573 183.393 803.989C183.775 804.404 184.41 804.612 185.295 804.612C186.181 804.612 186.81 804.404 187.181 803.989C187.564 803.573 187.756 802.972 187.756 802.185V801.463ZM195.343 797.625C195.846 797.625 196.321 797.734 196.77 797.953C197.218 798.161 197.584 798.511 197.868 799.003C198.164 799.484 198.311 800.107 198.311 800.872V805.76H196.835V801.135C196.835 800.402 196.677 799.872 196.36 799.544C196.053 799.205 195.556 799.035 194.867 799.035C194.55 799.035 194.222 799.123 193.883 799.298C193.544 799.462 193.254 799.741 193.014 800.134C192.784 800.517 192.669 801.02 192.669 801.643V805.76H191.193V797.887H192.571V799.183C192.844 798.735 193.243 798.363 193.768 798.068C194.304 797.773 194.829 797.625 195.343 797.625ZM206.446 805.76H204.97V799.298H202.428V805.76H200.952V799.298H199.787V797.887H200.952V797.362C200.952 796.225 201.203 795.4 201.706 794.886C202.209 794.372 202.865 794.115 203.674 794.115H205.79V795.525H204.15C203.527 795.525 203.084 795.7 202.822 796.05C202.559 796.4 202.428 796.925 202.428 797.625V797.887H206.446V805.76ZM213.997 797.887V799.298H212.406C212.1 799.298 211.777 799.396 211.438 799.593C211.099 799.79 210.81 800.096 210.569 800.512C210.328 800.927 210.208 801.447 210.208 802.07V805.76H208.732V797.887H210.208V799.347C210.471 798.932 210.853 798.587 211.356 798.314C211.859 798.03 212.368 797.887 212.882 797.887H213.997ZM224.64 797.625C225.034 797.625 225.444 797.734 225.87 797.953C226.297 798.172 226.658 798.527 226.953 799.019C227.259 799.5 227.412 800.118 227.412 800.872V805.76H225.936V801.135C225.936 800.424 225.777 799.899 225.46 799.56C225.143 799.21 224.711 799.035 224.165 799.035C223.662 799.035 223.219 799.243 222.836 799.659C222.453 800.063 222.262 800.725 222.262 801.643V805.76H220.786V801.135C220.786 800.424 220.627 799.899 220.31 799.56C219.993 799.21 219.561 799.035 219.014 799.035C218.511 799.035 218.068 799.243 217.686 799.659C217.303 800.063 217.112 800.725 217.112 801.643V805.76H215.636V797.887H217.112V799.003C217.374 798.587 217.719 798.254 218.145 798.002C218.582 797.751 219.031 797.625 219.49 797.625C219.971 797.625 220.452 797.778 220.933 798.084C221.425 798.379 221.786 798.839 222.016 799.462C222.245 798.926 222.601 798.489 223.082 798.15C223.574 797.8 224.093 797.625 224.64 797.625Z" fill="white"/>
<rect x="5.5" y="1.5" width="387" height="840.785" rx="44.0608" stroke="black" stroke-opacity="0.8" stroke-width="3"/>
<defs>
<clipPath id="clip0_551_4846">
<rect width="27.3364" height="27.3365" fill="white" transform="translate(40.2244 160.376)"/>
</clipPath>
<clipPath id="clip1_551_4846">
<rect width="27.3364" height="27.3365" fill="white" transform="translate(230.692 257.877)"/>
</clipPath>
</defs>
</svg>
