<svg width="170" height="184" viewBox="0 0 170 184" fill="none" xmlns="http://www.w3.org/2000/svg">
<rect x="0.0654297" y="0.849609" width="169.486" height="182.243" rx="18.2243" fill="#E0FEED"/>
<path d="M22.7022 23.7959V33.0737H21.2978V25.2003H21.2435L19.0237 26.6499V25.309L21.3386 23.7959H22.7022ZM34.6812 23.7959H36.0855V29.8981C36.0855 30.5474 35.933 31.1227 35.628 31.6241C35.3229 32.1224 34.8941 32.515 34.3414 32.8019C33.7887 33.0858 33.1409 33.2278 32.3979 33.2278C31.658 33.2278 31.0117 33.0858 30.459 32.8019C29.9063 32.515 29.4775 32.1224 29.1724 31.6241C28.8674 31.1227 28.7149 30.5474 28.7149 29.8981V23.7959H30.1147V29.7848C30.1147 30.2046 30.2068 30.5776 30.3911 30.9038C30.5783 31.2299 30.8426 31.4867 31.1838 31.6739C31.5251 31.8581 31.9298 31.9502 32.3979 31.9502C32.8691 31.9502 33.2753 31.8581 33.6166 31.6739C33.9609 31.4867 34.2236 31.2299 34.4048 30.9038C34.589 30.5776 34.6812 30.2046 34.6812 29.7848V23.7959ZM43.1809 26.2331C43.1326 25.8043 42.9333 25.4721 42.5829 25.2365C42.2326 24.9979 41.7917 24.8786 41.2601 24.8786C40.8796 24.8786 40.5504 24.939 40.2725 25.0598C39.9947 25.1776 39.7787 25.3407 39.6247 25.5491C39.4737 25.7545 39.3982 25.9885 39.3982 26.2513C39.3982 26.4717 39.4496 26.662 39.5522 26.8221C39.6579 26.9821 39.7954 27.1165 39.9645 27.2253C40.1366 27.331 40.3209 27.4201 40.5172 27.4925C40.7135 27.562 40.9022 27.6194 41.0834 27.6647L41.9895 27.9003C42.2855 27.9727 42.589 28.0709 42.9 28.1947C43.2111 28.3185 43.4995 28.4816 43.7653 28.684C44.0311 28.8863 44.2455 29.137 44.4086 29.436C44.5747 29.735 44.6578 30.0929 44.6578 30.5096C44.6578 31.0351 44.5219 31.5018 44.25 31.9095C43.9813 32.3172 43.5901 32.6388 43.0767 32.8744C42.5663 33.11 41.9487 33.2278 41.2239 33.2278C40.5292 33.2278 39.9282 33.1175 39.4209 32.8971C38.9135 32.6766 38.5163 32.364 38.2294 31.9593C37.9425 31.5516 37.784 31.0684 37.7538 30.5096H39.1581C39.1853 30.8449 39.294 31.1242 39.4843 31.3477C39.6776 31.5682 39.9237 31.7328 40.2227 31.8415C40.5247 31.9472 40.8554 32.0001 41.2148 32.0001C41.6105 32.0001 41.9623 31.9382 42.2703 31.8143C42.5814 31.6875 42.8261 31.5123 43.0042 31.2888C43.1824 31.0623 43.2715 30.7981 43.2715 30.4961C43.2715 30.2212 43.193 29.9962 43.036 29.8211C42.8819 29.6459 42.672 29.5009 42.4063 29.3862C42.1435 29.2714 41.846 29.1702 41.5138 29.0826L40.4175 28.7836C39.6746 28.5813 39.0856 28.2838 38.6507 27.8912C38.2189 27.4986 38.0029 26.9791 38.0029 26.3328C38.0029 25.7982 38.1479 25.3316 38.4378 24.933C38.7277 24.5343 39.1204 24.2248 39.6157 24.0043C40.111 23.7808 40.6697 23.6691 41.2918 23.6691C41.92 23.6691 42.4742 23.7793 42.9544 23.9998C43.4376 24.2202 43.8182 24.5238 44.096 24.9103C44.3739 25.2939 44.5188 25.7348 44.5309 26.2331H43.1809ZM49.334 33.0737H46.3305V23.7959H49.4292C50.3382 23.7959 51.1189 23.9816 51.7713 24.3531C52.4236 24.7216 52.9235 25.2516 53.2708 25.9432C53.6211 26.6318 53.7963 27.4578 53.7963 28.4212C53.7963 29.3877 53.6196 30.2182 53.2663 30.9128C52.9159 31.6075 52.4085 32.142 51.7441 32.5165C51.0797 32.888 50.2763 33.0737 49.334 33.0737ZM47.7304 31.8506H49.257C49.9637 31.8506 50.5512 31.7177 51.0193 31.4519C51.4874 31.1831 51.8377 30.795 52.0703 30.2877C52.3028 29.7773 52.4191 29.1551 52.4191 28.4212C52.4191 27.6934 52.3028 27.0758 52.0703 26.5684C51.8408 26.061 51.498 25.6759 51.0419 25.4132C50.5859 25.1504 50.0196 25.0191 49.3431 25.0191H47.7304V31.8506ZM54.6808 25.0009V23.7959H61.8612V25.0009H58.9664V33.0737H57.5711V25.0009H54.6808ZM67.1501 27.633V26.4461H72.9533V27.633H67.1501ZM67.1501 30.4236V29.2367H72.9533V30.4236H67.1501Z" fill="black"/>
<path d="M120.339 31.5153V25.3905H121.557V31.5153H120.339ZM117.888 29.06V27.8459H124.013V29.06H117.888ZM125.716 33.0737V32.059L128.855 28.8063C129.191 28.4529 129.467 28.1434 129.684 27.8776C129.905 27.6088 130.07 27.3536 130.178 27.112C130.287 26.8704 130.341 26.6137 130.341 26.3419C130.341 26.0338 130.269 25.768 130.124 25.5446C129.979 25.318 129.781 25.1444 129.53 25.0236C129.28 24.8998 128.997 24.8378 128.683 24.8378C128.351 24.8378 128.061 24.9058 127.813 25.0417C127.566 25.1776 127.376 25.3694 127.243 25.617C127.11 25.8647 127.043 26.1546 127.043 26.4868H125.707C125.707 25.9221 125.837 25.4283 126.097 25.0055C126.356 24.5826 126.713 24.255 127.166 24.0224C127.619 23.7868 128.134 23.6691 128.71 23.6691C129.293 23.6691 129.807 23.7853 130.251 24.0179C130.698 24.2474 131.047 24.5615 131.297 24.9602C131.548 25.3558 131.673 25.8028 131.673 26.3011C131.673 26.6454 131.608 26.9821 131.478 27.3113C131.352 27.6405 131.13 28.0075 130.812 28.4122C130.495 28.8138 130.054 29.3016 129.49 29.8754L127.646 31.8053V31.8732H131.823V33.0737H125.716ZM136.602 33.2006C136.034 33.2006 135.524 33.0919 135.071 32.8744C134.621 32.6539 134.261 32.3519 133.993 31.9684C133.724 31.5848 133.58 31.1469 133.562 30.6546H134.921C134.955 31.0533 135.131 31.3809 135.451 31.6377C135.772 31.8944 136.155 32.0227 136.602 32.0227C136.958 32.0227 137.274 31.9412 137.549 31.7781C137.827 31.612 138.044 31.384 138.201 31.094C138.361 30.8041 138.441 30.4734 138.441 30.1019C138.441 29.7244 138.36 29.3877 138.197 29.0917C138.034 28.7957 137.809 28.5632 137.522 28.394C137.238 28.2249 136.912 28.1388 136.543 28.1358C136.262 28.1358 135.98 28.1841 135.696 28.2808C135.412 28.3774 135.183 28.5043 135.007 28.6613L133.725 28.4711L134.246 23.7959H139.347V24.9964H135.411L135.116 27.5922H135.171C135.352 27.417 135.592 27.2706 135.891 27.1528C136.193 27.035 136.516 26.9761 136.86 26.9761C137.425 26.9761 137.928 27.1105 138.369 27.3793C138.813 27.6481 139.162 28.015 139.415 28.4801C139.672 28.9422 139.799 29.4737 139.796 30.0747C139.799 30.6758 139.663 31.2118 139.388 31.683C139.116 32.1541 138.739 32.5256 138.256 32.7974C137.775 33.0662 137.224 33.2006 136.602 33.2006ZM146.293 31.3341V30.8449C146.293 30.4945 146.366 30.1744 146.511 29.8845C146.659 29.5915 146.873 29.3575 147.154 29.1823C147.438 29.0041 147.781 28.915 148.182 28.915C148.593 28.915 148.937 29.0026 149.215 29.1778C149.493 29.3529 149.703 29.587 149.845 29.8799C149.99 30.1729 150.062 30.4945 150.062 30.8449V31.3341C150.062 31.6845 149.99 32.0061 149.845 32.2991C149.7 32.589 149.487 32.8231 149.206 33.0012C148.928 33.1764 148.587 33.264 148.182 33.264C147.775 33.264 147.43 33.1764 147.149 33.0012C146.869 32.8231 146.656 32.589 146.511 32.2991C146.366 32.0061 146.293 31.6845 146.293 31.3341ZM147.349 30.8449V31.3341C147.349 31.5939 147.411 31.8294 147.535 32.0408C147.658 32.2523 147.874 32.358 148.182 32.358C148.487 32.358 148.7 32.2523 148.821 32.0408C148.942 31.8294 149.002 31.5939 149.002 31.3341V30.8449C149.002 30.5851 148.943 30.3496 148.826 30.1382C148.711 29.9268 148.496 29.8211 148.182 29.8211C147.88 29.8211 147.666 29.9268 147.539 30.1382C147.412 30.3496 147.349 30.5851 147.349 30.8449ZM141.627 26.0248V25.5355C141.627 25.1852 141.7 24.8635 141.845 24.5706C141.993 24.2776 142.207 24.0436 142.488 23.8684C142.772 23.6932 143.115 23.6056 143.516 23.6056C143.927 23.6056 144.271 23.6932 144.549 23.8684C144.827 24.0436 145.037 24.2776 145.179 24.5706C145.321 24.8635 145.392 25.1852 145.392 25.5355V26.0248C145.392 26.3751 145.319 26.6967 145.174 26.9897C145.032 27.2796 144.821 27.5137 144.54 27.6919C144.262 27.867 143.921 27.9546 143.516 27.9546C143.106 27.9546 142.76 27.867 142.479 27.6919C142.201 27.5137 141.99 27.2796 141.845 26.9897C141.7 26.6967 141.627 26.3751 141.627 26.0248ZM142.687 25.5355V26.0248C142.687 26.2845 142.748 26.5201 142.868 26.7315C142.992 26.9429 143.208 27.0486 143.516 27.0486C143.818 27.0486 144.03 26.9429 144.15 26.7315C144.274 26.5201 144.336 26.2845 144.336 26.0248V25.5355C144.336 25.2758 144.277 25.0402 144.16 24.8288C144.042 24.6174 143.827 24.5117 143.516 24.5117C143.214 24.5117 143 24.6174 142.873 24.8288C142.749 25.0402 142.687 25.2758 142.687 25.5355ZM142.058 33.0737L148.436 23.7959H149.519L143.14 33.0737H142.058Z" fill="#00A323"/>
<path d="M25.3098 50.1492V65.6763H23.3416V54.4574H20.258V52.5766H21.2421C21.869 52.5766 22.372 52.4163 22.7511 52.0955C23.1447 51.7748 23.3416 51.3009 23.3416 50.674V50.1492H25.3098ZM34.5852 49.7993C35.7662 49.7993 36.8523 50.0908 37.8437 50.674C38.8351 51.2426 39.6297 52.1393 40.2275 53.3639C40.8398 54.574 41.146 56.0903 41.146 57.9127C41.146 60.7557 40.5336 62.8187 39.309 64.1017C38.0843 65.3847 36.5097 66.0262 34.5852 66.0262C33.4335 66.0262 32.3546 65.7419 31.3486 65.1733C30.3572 64.5901 29.5553 63.6935 28.943 62.4834C28.3306 61.2587 28.0245 59.7351 28.0245 57.9127C28.0245 56.0757 28.3306 54.5522 28.943 53.3421C29.5553 52.132 30.3572 51.2426 31.3486 50.674C32.3546 50.0908 33.4335 49.7993 34.5852 49.7993ZM34.5852 51.68C33.0252 51.68 31.8662 52.2486 31.108 53.3858C30.3645 54.5084 29.9927 56.0174 29.9927 57.9127C29.9927 59.8518 30.3718 61.3462 31.1299 62.3959L36.5972 52.1174C36.014 51.8258 35.3434 51.68 34.5852 51.68ZM34.5852 64.0142C36.1598 64.0142 37.3189 63.4675 38.0624 62.374C38.806 61.2806 39.1778 59.7935 39.1778 57.9127C39.1778 55.9299 38.7914 54.4064 38.0187 53.3421L32.5514 63.5987C33.1492 63.8757 33.8271 64.0142 34.5852 64.0142ZM44.8412 65.7856C44.4475 65.7856 44.1122 65.6544 43.8352 65.392C43.5582 65.115 43.4197 64.7796 43.4197 64.386C43.4197 63.9923 43.5582 63.657 43.8352 63.38C44.1122 63.0884 44.4475 62.9426 44.8412 62.9426C45.2348 62.9426 45.5702 63.0884 45.8472 63.38C46.1242 63.657 46.2627 63.9923 46.2627 64.386C46.2627 64.7796 46.1242 65.115 45.8472 65.392C45.5702 65.6544 45.2348 65.7856 44.8412 65.7856ZM54.8033 50.1492V65.6763H52.835V54.4574H49.7515V52.5766H50.7356C51.3625 52.5766 51.8655 52.4163 52.2446 52.0955C52.6382 51.7748 52.835 51.3009 52.835 50.674V50.1492H54.8033ZM68.778 65.6763H58.0402V64.058C58.0402 63.0082 58.2735 62.1262 58.7401 61.4118C59.2212 60.6828 59.7898 60.0996 60.4459 59.6622C61.1165 59.2103 61.984 58.7146 63.0483 58.1751C63.8793 57.7523 64.5281 57.3951 64.9946 57.1036C65.4758 56.812 65.8694 56.4621 66.1756 56.0538C66.4963 55.631 66.6567 55.1499 66.6567 54.6105C66.6567 53.7503 66.3943 53.0505 65.8694 52.511C65.3445 51.957 64.5718 51.68 63.5513 51.68C62.9973 51.68 62.4578 51.8112 61.933 52.0736C61.4227 52.3215 61.0072 52.6568 60.6864 53.0796C60.3657 53.4879 60.198 53.9252 60.1834 54.3918H58.084C58.1277 53.4587 58.4047 52.6495 58.915 51.9643C59.4253 51.2645 60.0887 50.7323 60.9051 50.3679C61.7216 49.9888 62.6036 49.7993 63.5513 49.7993C64.5427 49.7993 65.4174 49.9961 66.1756 50.3897C66.9483 50.7834 67.546 51.3447 67.9688 52.0736C68.4062 52.8026 68.6249 53.6482 68.6249 54.6105C68.6249 55.5727 68.4062 56.3819 67.9688 57.0379C67.546 57.694 67.0212 58.2262 66.3943 58.6344C65.7819 59.0426 64.9801 59.4946 63.9887 59.9903C63.1576 60.3985 62.5016 60.7557 62.0204 61.0619C61.5393 61.368 61.1311 61.7398 60.7958 62.1772C60.475 62.6146 60.3146 63.1322 60.3146 63.7299H68.778V65.6763ZM77.2344 49.7993C78.4153 49.7993 79.5015 50.0908 80.4929 50.674C81.4843 51.2426 82.2789 52.1393 82.8766 53.3639C83.4889 54.574 83.7951 56.0903 83.7951 57.9127C83.7951 60.7557 83.1828 62.8187 81.9581 64.1017C80.7334 65.3847 79.1589 66.0262 77.2344 66.0262C76.0826 66.0262 75.0037 65.7419 73.9977 65.1733C73.0063 64.5901 72.2045 63.6935 71.5921 62.4834C70.9798 61.2587 70.6736 59.7351 70.6736 57.9127C70.6736 56.0757 70.9798 54.5522 71.5921 53.3421C72.2045 52.132 73.0063 51.2426 73.9977 50.674C75.0037 50.0908 76.0826 49.7993 77.2344 49.7993ZM77.2344 51.68C75.6744 51.68 74.5153 52.2486 73.7572 53.3858C73.0136 54.5084 72.6418 56.0174 72.6418 57.9127C72.6418 59.8518 73.0209 61.3462 73.779 62.3959L79.2463 52.1174C78.6632 51.8258 77.9925 51.68 77.2344 51.68ZM77.2344 64.0142C78.8089 64.0142 79.968 63.4675 80.7116 62.374C81.4551 61.2806 81.8269 59.7935 81.8269 57.9127C81.8269 55.9299 81.4405 54.4064 80.6678 53.3421L75.2005 63.5987C75.7983 63.8757 76.4762 64.0142 77.2344 64.0142Z" fill="black"/>
<path d="M97.2612 55.688H98.6655V61.7902C98.6655 62.4395 98.513 63.0148 98.208 63.5162C97.903 64.0145 97.4741 64.4071 96.9214 64.694C96.3687 64.9779 95.7209 65.1198 94.978 65.1198C94.238 65.1198 93.5917 64.9779 93.0391 64.694C92.4864 64.4071 92.0575 64.0145 91.7525 63.5162C91.4474 63.0148 91.2949 62.4395 91.2949 61.7902V55.688H92.6948V61.6769C92.6948 62.0967 92.7869 62.4697 92.9711 62.7959C93.1583 63.122 93.4226 63.3787 93.7639 63.566C94.1052 63.7502 94.5099 63.8423 94.978 63.8423C95.4491 63.8423 95.8553 63.7502 96.1966 63.566C96.5409 63.3787 96.8036 63.122 96.9848 62.7959C97.1691 62.4697 97.2612 62.0967 97.2612 61.6769V55.688ZM105.761 58.1252C105.713 57.6964 105.513 57.3642 105.163 57.1286C104.813 56.89 104.372 56.7707 103.84 56.7707C103.46 56.7707 103.13 56.8311 102.853 56.9519C102.575 57.0697 102.359 57.2328 102.205 57.4412C102.054 57.6465 101.978 57.8806 101.978 58.1434C101.978 58.3638 102.03 58.5541 102.132 58.7142C102.238 58.8742 102.375 59.0086 102.545 59.1173C102.717 59.2231 102.901 59.3121 103.097 59.3846C103.294 59.4541 103.482 59.5115 103.663 59.5568L104.57 59.7923C104.865 59.8648 105.169 59.963 105.48 60.0868C105.791 60.2106 106.08 60.3737 106.345 60.5761C106.611 60.7784 106.826 61.0291 106.989 61.3281C107.155 61.6271 107.238 61.985 107.238 62.4017C107.238 62.9272 107.102 63.3938 106.83 63.8016C106.561 64.2093 106.17 64.5309 105.657 64.7665C105.146 65.0021 104.529 65.1198 103.804 65.1198C103.109 65.1198 102.508 65.0096 102.001 64.7891C101.494 64.5687 101.096 64.2561 100.809 63.8514C100.523 63.4437 100.364 62.9605 100.334 62.4017H101.738C101.765 62.737 101.874 63.0163 102.064 63.2398C102.258 63.4603 102.504 63.6249 102.803 63.7336C103.105 63.8393 103.435 63.8922 103.795 63.8922C104.19 63.8922 104.542 63.8303 104.85 63.7064C105.161 63.5796 105.406 63.4044 105.584 63.1809C105.762 62.9544 105.852 62.6902 105.852 62.3881C105.852 62.1133 105.773 61.8883 105.616 61.7131C105.462 61.538 105.252 61.393 104.986 61.2782C104.724 61.1635 104.426 61.0623 104.094 60.9747L102.998 60.6757C102.255 60.4734 101.666 60.1759 101.231 59.7833C100.799 59.3907 100.583 58.8712 100.583 58.2249C100.583 57.6903 100.728 57.2237 101.018 56.8251C101.308 56.4264 101.7 56.1169 102.196 55.8964C102.691 55.6729 103.25 55.5611 103.872 55.5611C104.5 55.5611 105.054 55.6714 105.534 55.8919C106.018 56.1123 106.398 56.4158 106.676 56.8024C106.954 57.186 107.099 57.6269 107.111 58.1252H105.761ZM111.914 64.9658H108.911V55.688H112.009C112.918 55.688 113.699 55.8737 114.351 56.2452C115.004 56.6137 115.504 57.1437 115.851 57.8353C116.201 58.5239 116.376 59.3499 116.376 60.3133C116.376 61.2798 116.2 62.1103 115.846 62.8049C115.496 63.4995 114.989 64.0341 114.324 64.4086C113.66 64.7801 112.856 64.9658 111.914 64.9658ZM110.31 63.7427H111.837C112.544 63.7427 113.131 63.6098 113.599 63.344C114.067 63.0752 114.418 62.6871 114.65 62.1798C114.883 61.6694 114.999 61.0472 114.999 60.3133C114.999 59.5855 114.883 58.9678 114.65 58.4605C114.421 57.9531 114.078 57.568 113.622 57.3053C113.166 57.0425 112.6 56.9111 111.923 56.9111H110.31V63.7427Z" fill="black"/>
<path d="M67.0287 141.886C67.9691 141.919 68.8111 142.148 69.5546 142.575C70.2982 142.99 70.8777 143.592 71.2932 144.379C71.7197 145.155 71.9329 146.079 71.9329 147.151V148.266C71.9329 149.36 71.7197 150.306 71.2932 151.104C70.8668 151.891 70.2818 152.492 69.5382 152.908C68.8056 153.323 67.9691 153.531 67.0287 153.531H61.6817V141.886H67.0287ZM70.4567 147.282C70.4567 146.145 70.1178 145.199 69.4398 144.445C68.7619 143.679 67.6465 143.296 66.0938 143.296H63.1579V152.071H66.0938C67.6465 152.071 68.7619 151.7 69.4398 150.956C70.1178 150.213 70.4567 149.272 70.4567 148.135V147.282ZM77.7353 145.396C78.3695 145.396 78.9491 145.527 79.4739 145.79C79.9988 146.052 80.4143 146.451 80.7205 146.987C81.0376 147.523 81.1961 148.184 81.1961 148.972V150.218C81.1961 151.005 81.0376 151.667 80.7205 152.203C80.4143 152.738 79.9988 153.138 79.4739 153.4C78.9491 153.662 78.3695 153.794 77.7353 153.794H76.784C76.1498 153.794 75.5703 153.662 75.0454 153.4C74.5206 153.138 74.0996 152.738 73.7825 152.203C73.4763 151.667 73.3232 151.005 73.3232 150.218V148.972C73.3232 148.184 73.4763 147.523 73.7825 146.987C74.0996 146.451 74.5206 146.052 75.0454 145.79C75.5703 145.527 76.1498 145.396 76.784 145.396H77.7353ZM79.72 149.234C79.72 148.447 79.5286 147.845 79.1459 147.43C78.7741 147.014 78.1454 146.806 77.2597 146.806C76.374 146.806 75.7398 147.014 75.3571 147.43C74.9853 147.845 74.7994 148.447 74.7994 149.234V149.956C74.7994 150.743 74.9853 151.344 75.3571 151.76C75.7398 152.175 76.374 152.383 77.2597 152.383C78.1454 152.383 78.7741 152.175 79.1459 151.76C79.5286 151.344 79.72 150.743 79.72 149.956V149.234ZM84.6335 141.623V153.531H83.1573V141.623H84.6335ZM88.7339 141.623V153.531H87.2578V141.623H88.7339ZM98.1486 151.514C98.1486 151.918 98.3618 152.121 98.7883 152.121V153.531C98.2744 153.531 97.8479 153.482 97.5089 153.384C97.1809 153.285 96.9458 153.05 96.8037 152.678C96.5522 153.072 96.1694 153.356 95.6555 153.531C95.1416 153.695 94.5894 153.777 93.9989 153.777C93.1132 153.777 92.3697 153.575 91.7683 153.17C91.1669 152.766 90.8662 152.104 90.8662 151.186V151.005C90.8662 150.273 91.1505 149.682 91.7191 149.234C92.2877 148.775 93.0476 148.545 93.9989 148.545H96.6724C96.6615 148.141 96.6123 147.818 96.5248 147.577C96.4373 147.326 96.2679 147.135 96.0164 147.003C95.7758 146.872 95.4204 146.806 94.9502 146.806H93.9661C93.5616 146.806 93.2226 146.905 92.9492 147.102C92.6868 147.288 92.5556 147.517 92.5556 147.791H91.0794C91.0794 147.386 91.1942 147.003 91.4238 146.642C91.6644 146.271 91.9924 145.97 92.408 145.74C92.8344 145.511 93.3046 145.396 93.8185 145.396H95.4259C96.2351 145.396 96.8911 145.653 97.3941 146.167C97.8971 146.681 98.1486 147.506 98.1486 148.643V151.514ZM94.4746 152.367C94.9666 152.367 95.4532 152.268 95.9344 152.071C96.4264 151.875 96.6724 151.547 96.6724 151.087V149.792H94.4746C93.6545 149.792 93.0914 149.928 92.7852 150.202C92.49 150.464 92.3423 150.77 92.3423 151.12C92.3423 151.579 92.5009 151.902 92.818 152.088C93.146 152.274 93.6982 152.367 94.4746 152.367ZM105.705 145.658V147.069H104.114C103.808 147.069 103.485 147.167 103.146 147.364C102.807 147.561 102.518 147.867 102.277 148.283C102.037 148.698 101.916 149.218 101.916 149.841V153.531H100.44V145.658H101.916V147.118C102.179 146.703 102.561 146.358 103.064 146.085C103.567 145.801 104.076 145.658 104.59 145.658H105.705ZM114.101 151.153C114.101 151.973 113.795 152.618 113.183 153.088C112.57 153.559 111.652 153.794 110.427 153.794C109.301 153.794 108.426 153.58 107.803 153.154C107.191 152.717 106.791 152.088 106.606 151.268H108.246C108.421 152.011 109.153 152.383 110.444 152.383C111.898 152.383 112.625 151.968 112.625 151.137C112.625 150.896 112.549 150.71 112.395 150.579C112.253 150.448 111.991 150.344 111.608 150.267C111.236 150.18 110.64 150.087 109.82 149.988C108.749 149.857 108 149.622 107.573 149.283C107.147 148.944 106.934 148.463 106.934 147.84C106.934 147.085 107.234 146.489 107.836 146.052C108.437 145.615 109.274 145.396 110.345 145.396C111.209 145.396 111.947 145.593 112.559 145.986C113.183 146.38 113.582 146.96 113.757 147.725H112.117C112.029 147.419 111.832 147.184 111.526 147.02C111.231 146.845 110.783 146.757 110.181 146.757C109.656 146.757 109.23 146.85 108.902 147.036C108.574 147.211 108.41 147.435 108.41 147.709C108.41 148.026 108.552 148.25 108.836 148.381C109.121 148.512 109.613 148.611 110.312 148.676C111.297 148.775 112.062 148.928 112.609 149.136C113.155 149.332 113.538 149.595 113.757 149.923C113.986 150.24 114.101 150.65 114.101 151.153Z" fill="black"/>
<ellipse cx="34.6917" cy="148.467" rx="16.4019" ry="16.4019" fill="#38FF8E"/>
<g clip-path="url(#clip0_551_4992)">
<path d="M37.2262 147.634C36.5111 147.238 35.7508 146.937 34.998 146.625C34.5614 146.444 34.1436 146.233 33.7747 145.94C33.0483 145.36 33.1875 144.419 34.0382 144.046C34.2791 143.941 34.5313 143.907 34.7872 143.892C35.7734 143.839 36.7106 144.02 37.6026 144.449C38.0468 144.664 38.1936 144.596 38.3441 144.133C38.5022 143.644 38.6339 143.147 38.7807 142.654C38.8786 142.323 38.7581 142.104 38.4457 141.965C37.8736 141.713 37.2864 141.532 36.6692 141.434C35.8637 141.31 35.8637 141.306 35.8599 140.497C35.8562 139.357 35.8562 139.357 34.7119 139.357C34.5463 139.357 34.3807 139.353 34.2151 139.357C33.6806 139.372 33.5903 139.466 33.5752 140.004C33.5677 140.245 33.5752 140.486 33.5715 140.73C33.5677 141.446 33.5639 141.434 32.8789 141.683C31.2228 142.285 30.199 143.414 30.0898 145.221C29.992 146.821 30.8276 147.901 32.1412 148.687C32.9504 149.173 33.8462 149.459 34.7044 149.839C35.0394 149.986 35.3593 150.155 35.6379 150.389C36.4621 151.07 36.3116 152.203 35.333 152.632C34.8098 152.862 34.2565 152.918 33.6881 152.847C32.8111 152.737 31.9718 152.508 31.1814 152.098C30.7184 151.857 30.5829 151.921 30.4248 152.421C30.2893 152.854 30.1689 153.291 30.0484 153.727C29.8866 154.314 29.9468 154.454 30.5076 154.729C31.2228 155.075 31.9868 155.252 32.766 155.376C33.3757 155.474 33.3946 155.5 33.4021 156.132C33.4058 156.419 33.4058 156.708 33.4096 156.994C33.4134 157.356 33.5865 157.567 33.9591 157.574C34.3807 157.582 34.806 157.582 35.2276 157.57C35.5739 157.563 35.7508 157.375 35.7508 157.025C35.7508 156.633 35.7696 156.238 35.7545 155.846C35.7357 155.447 35.9089 155.244 36.2928 155.139C37.1773 154.898 37.9301 154.424 38.5097 153.716C40.1207 151.759 39.5072 148.894 37.2262 147.634Z" fill="black"/>
</g>
<defs>
<clipPath id="clip0_551_4992">
<rect width="18.2243" height="18.2243" fill="white" transform="translate(25.5796 139.354)"/>
</clipPath>
</defs>
</svg>
