<svg width="170" height="111" viewBox="0 0 170 111" fill="none" xmlns="http://www.w3.org/2000/svg">
<rect x="0.289551" y="0.923828" width="169.486" height="109.346" rx="18.2243" fill="white"/>
<rect x="0.745158" y="1.37944" width="168.575" height="108.435" rx="17.7687" stroke="black" stroke-opacity="0.1" stroke-width="0.911215"/>
<path d="M73.1867 55.8111C73.1867 57.9494 72.725 59.5107 71.8017 60.4948C70.8783 61.4667 69.5236 61.9527 67.7376 61.9527H67.3367C65.5507 61.9527 64.196 61.4667 63.2727 60.4948C62.3493 59.5107 61.8876 57.9494 61.8876 55.8111V48.7219H63.5278V55.6653C63.5278 56.698 63.6372 57.5485 63.8559 58.2167C64.0867 58.8728 64.4937 59.3831 65.0769 59.7476C65.6601 60.0999 66.4802 60.2761 67.5372 60.2761C68.5942 60.2761 69.4143 60.0999 69.9974 59.7476C70.5806 59.3831 70.9816 58.8728 71.2003 58.2167C71.4311 57.5485 71.5465 56.698 71.5465 55.6653V48.7219H73.1867V55.8111ZM77.1646 57.834C77.3347 58.648 77.7538 59.2677 78.4221 59.6929C79.0903 60.1181 79.9772 60.3308 81.0828 60.3308C82.2127 60.3308 83.0693 60.1303 83.6524 59.7294C84.2356 59.3284 84.5272 58.7756 84.5272 58.0709C84.5272 57.5607 84.3753 57.1597 84.0716 56.8681C83.7679 56.5644 83.3426 56.3275 82.7959 56.1574C82.2492 55.9873 81.4594 55.8051 80.4267 55.6107C79.4548 55.4284 78.6529 55.2219 78.0211 54.991C77.4015 54.7602 76.8912 54.42 76.4903 53.9705C76.0893 53.5209 75.8889 52.9135 75.8889 52.148C75.8889 50.9938 76.2959 50.0887 77.1099 49.4326C77.9361 48.7644 79.0781 48.4303 80.5361 48.4303C82.0548 48.4303 83.2211 48.7826 84.0351 49.4873C84.8613 50.1798 85.3534 51.1518 85.5113 52.4032H83.8711C83.7375 51.6499 83.4094 51.0607 82.887 50.6354C82.3646 50.2102 81.5809 49.9976 80.5361 49.9976C79.637 49.9976 78.908 50.1859 78.3492 50.5625C77.8024 50.9392 77.5291 51.4494 77.5291 52.0934C77.5291 52.5186 77.6566 52.8527 77.9118 53.0957C78.1791 53.3387 78.5253 53.5209 78.9506 53.6424C79.3758 53.7639 79.9408 53.8854 80.6454 54.0069C81.9211 54.2256 82.9235 54.4504 83.6524 54.6812C84.3814 54.9121 84.9828 55.2887 85.4566 55.8111C85.9305 56.3336 86.1674 57.0747 86.1674 58.0345C86.1674 59.2373 85.7482 60.191 84.9099 60.8957C84.0837 61.6004 82.7534 61.9527 80.9188 61.9527C79.4001 61.9527 78.1365 61.6065 77.1281 60.9139C76.1197 60.2214 75.5244 59.1948 75.3422 57.834H77.1646ZM94.5644 48.7219C95.6092 48.7583 96.5448 49.0135 97.3709 49.4873C98.1971 49.949 98.841 50.6172 99.3027 51.492C99.7765 52.3546 100.013 53.3812 100.013 54.5719V55.8111C100.013 57.0261 99.7765 58.077 99.3027 58.9639C98.8289 59.8387 98.1789 60.5069 97.3527 60.9686C96.5387 61.4303 95.6092 61.6611 94.5644 61.6611H88.6233V48.7219H94.5644ZM98.3733 54.7177C98.3733 53.4541 97.9966 52.4032 97.2434 51.5649C96.4901 50.7144 95.2508 50.2892 93.5256 50.2892H90.2634V60.0392H93.5256C95.2508 60.0392 96.4901 59.6261 97.2434 58.7999C97.9966 57.9737 98.3733 56.9289 98.3733 55.6653V54.7177ZM110.572 48.7219V50.2892H106.381V61.6611H104.74V50.2892H100.549V48.7219H110.572Z" fill="black"/>
<path d="M136.317 53.7446L132.356 57.7054C131.888 58.1731 131.123 58.1731 130.655 57.7054L126.694 53.7446" stroke="black" stroke-opacity="0.75" stroke-width="1.36682" stroke-miterlimit="10" stroke-linecap="round" stroke-linejoin="round"/>
<g clip-path="url(#clip0_551_4981)">
<ellipse cx="37.6492" cy="55.596" rx="13.6682" ry="13.6682" fill="url(#paint0_linear_551_4981)"/>
<path d="M39.215 53.5707V51.7895H43.2671V48.979H32.0193V51.7895H36.0827V53.5707C32.6785 53.7344 30.1228 54.4178 30.1228 55.2365C30.1228 56.0552 32.6756 56.7343 36.0827 56.9023V62.7811H39.215V56.9023C42.6193 56.74 45.1749 56.0566 45.1749 55.2365C45.1749 54.4164 42.6221 53.7344 39.215 53.5707ZM37.6489 56.3698C33.9627 56.3698 30.9742 55.8003 30.9742 55.114C30.9742 54.5232 33.1512 54.0277 36.0799 53.8953V55.9071C37.1234 55.9543 38.1686 55.9543 39.2122 55.9071V53.8953C42.1409 54.0277 44.3178 54.5232 44.3178 55.114C44.3235 55.8074 41.335 56.3698 37.6489 56.3698Z" fill="black"/>
</g>
<defs>
<linearGradient id="paint0_linear_551_4981" x1="85.488" y1="6.10755" x2="21.2201" y2="64.2869" gradientUnits="userSpaceOnUse">
<stop stop-color="#2B5AF3"/>
<stop offset="1" stop-color="#38FF8E"/>
</linearGradient>
<clipPath id="clip0_551_4981">
<rect width="27.3364" height="27.3365" fill="white" transform="translate(23.9812 41.9287)"/>
</clipPath>
</defs>
</svg>
