<svg width="30" height="30" fill="none" xmlns="http://www.w3.org/2000/svg"><path d="M27.857 0H2.076C.937 0 0 1.004 0 2.21v25.647C0 29.063.938 30 2.076 30h25.781C28.996 30 30 29.062 30 27.857V2.21C30 1.004 28.995 0 27.857 0zM9.04 25.714H4.62V11.451h4.42v14.263zM6.83 9.442c-1.473 0-2.611-1.138-2.611-2.545A2.615 2.615 0 016.83 4.286c1.407 0 2.545 1.205 2.545 2.611A2.544 2.544 0 016.83 9.442zm18.884 16.272h-4.486V18.75c0-1.607 0-3.75-2.277-3.75-2.344 0-2.679 1.808-2.679 3.683v7.031h-4.42V11.451h4.22v1.942h.066c.603-1.139 2.076-2.344 4.22-2.344 4.486 0 5.356 3.014 5.356 6.83v7.835z" fill="currentColor"/></svg>