<svg width="170" height="110" viewBox="0 0 170 110" fill="none" xmlns="http://www.w3.org/2000/svg">
<rect width="169.486" height="109.346" rx="18.2243" fill="white"/>
<rect x="0.455608" y="0.455608" width="168.575" height="108.435" rx="17.7687" stroke="black" stroke-opacity="0.1" stroke-width="0.911215"/>
<path d="M29.7786 60.2633C30.7627 60.2633 31.6678 60.5063 32.494 60.9923C33.3202 61.4661 33.9823 62.2133 34.4804 63.2339C34.9907 64.2423 35.2459 65.5058 35.2459 67.0245C35.2459 69.3937 34.7356 71.1128 33.715 72.182C32.6945 73.2511 31.3823 73.7857 29.7786 73.7857C28.8188 73.7857 27.9197 73.5488 27.0814 73.075C26.2552 72.589 25.587 71.8418 25.0767 70.8334C24.5664 69.8128 24.3113 68.5432 24.3113 67.0245C24.3113 65.4937 24.5664 64.224 25.0767 63.2156C25.587 62.2072 26.2552 61.4661 27.0814 60.9923C27.9197 60.5063 28.8188 60.2633 29.7786 60.2633ZM29.7786 61.8306C28.4786 61.8306 27.5127 62.3044 26.8809 63.2521C26.2613 64.1876 25.9515 65.4451 25.9515 67.0245C25.9515 68.6404 26.2674 69.8857 26.8991 70.7605L31.4552 62.1951C30.9692 61.9521 30.4103 61.8306 29.7786 61.8306ZM29.7786 72.1091C31.0907 72.1091 32.0566 71.6535 32.6762 70.7423C33.2959 69.8311 33.6057 68.5918 33.6057 67.0245C33.6057 65.3722 33.2837 64.1025 32.6398 63.2156L28.0837 71.7628C28.5818 71.9937 29.1468 72.1091 29.7786 72.1091ZM38.3252 73.5853C37.9972 73.5853 37.7177 73.4759 37.4869 73.2572C37.256 73.0264 37.1406 72.7469 37.1406 72.4189C37.1406 72.0909 37.256 71.8114 37.4869 71.5806C37.7177 71.3376 37.9972 71.2161 38.3252 71.2161C38.6532 71.2161 38.9327 71.3376 39.1635 71.5806C39.3944 71.8114 39.5098 72.0909 39.5098 72.4189C39.5098 72.7469 39.3944 73.0264 39.1635 73.2572C38.9327 73.4759 38.6532 73.5853 38.3252 73.5853ZM46.8639 60.2633C47.848 60.2633 48.7531 60.5063 49.5793 60.9923C50.4054 61.4661 51.0676 62.2133 51.5657 63.2339C52.076 64.2423 52.3311 65.5058 52.3311 67.0245C52.3311 69.3937 51.8209 71.1128 50.8003 72.182C49.7797 73.2511 48.4676 73.7857 46.8639 73.7857C45.904 73.7857 45.005 73.5488 44.1667 73.075C43.3405 72.589 42.6723 71.8418 42.162 70.8334C41.6517 69.8128 41.3966 68.5432 41.3966 67.0245C41.3966 65.4937 41.6517 64.224 42.162 63.2156C42.6723 62.2072 43.3405 61.4661 44.1667 60.9923C45.005 60.5063 45.904 60.2633 46.8639 60.2633ZM46.8639 61.8306C45.5639 61.8306 44.598 62.3044 43.9662 63.2521C43.3466 64.1876 43.0367 65.4451 43.0367 67.0245C43.0367 68.6404 43.3526 69.8857 43.9844 70.7605L48.5405 62.1951C48.0545 61.9521 47.4956 61.8306 46.8639 61.8306ZM46.8639 72.1091C48.176 72.1091 49.1419 71.6535 49.7615 70.7423C50.3811 69.8311 50.691 68.5918 50.691 67.0245C50.691 65.3722 50.369 64.1025 49.7251 63.2156L45.169 71.7628C45.6671 71.9937 46.2321 72.1091 46.8639 72.1091ZM59.0371 60.2633C60.0212 60.2633 60.9264 60.5063 61.7525 60.9923C62.5787 61.4661 63.2409 62.2133 63.739 63.2339C64.2493 64.2423 64.5044 65.5058 64.5044 67.0245C64.5044 69.3937 63.9941 71.1128 62.9736 72.182C61.953 73.2511 60.6409 73.7857 59.0371 73.7857C58.0773 73.7857 57.1782 73.5488 56.3399 73.075C55.5138 72.589 54.8455 71.8418 54.3352 70.8334C53.825 69.8128 53.5698 68.5432 53.5698 67.0245C53.5698 65.4937 53.825 64.224 54.3352 63.2156C54.8455 62.2072 55.5138 61.4661 56.3399 60.9923C57.1782 60.5063 58.0773 60.2633 59.0371 60.2633ZM59.0371 61.8306C57.7371 61.8306 56.7712 62.3044 56.1395 63.2521C55.5198 64.1876 55.21 65.4451 55.21 67.0245C55.21 68.6404 55.5259 69.8857 56.1577 70.7605L60.7138 62.1951C60.2278 61.9521 59.6689 61.8306 59.0371 61.8306ZM59.0371 72.1091C60.3493 72.1091 61.3152 71.6535 61.9348 70.7423C62.5544 69.8311 62.8642 68.5918 62.8642 67.0245C62.8642 65.3722 62.5423 64.1025 61.8983 63.2156L57.3423 71.7628C57.8404 71.9937 58.4053 72.1091 59.0371 72.1091ZM71.2104 60.2633C72.1945 60.2633 73.0996 60.5063 73.9258 60.9923C74.752 61.4661 75.4141 62.2133 75.9123 63.2339C76.4225 64.2423 76.6777 65.5058 76.6777 67.0245C76.6777 69.3937 76.1674 71.1128 75.1468 72.182C74.1263 73.2511 72.8141 73.7857 71.2104 73.7857C70.2506 73.7857 69.3515 73.5488 68.5132 73.075C67.687 72.589 67.0188 71.8418 66.5085 70.8334C65.9982 69.8128 65.7431 68.5432 65.7431 67.0245C65.7431 65.4937 65.9982 64.224 66.5085 63.2156C67.0188 62.2072 67.687 61.4661 68.5132 60.9923C69.3515 60.5063 70.2506 60.2633 71.2104 60.2633ZM71.2104 61.8306C69.9104 61.8306 68.9445 62.3044 68.3127 63.2521C67.6931 64.1876 67.3833 65.4451 67.3833 67.0245C67.3833 68.6404 67.6992 69.8857 68.3309 70.7605L72.887 62.1951C72.401 61.9521 71.8422 61.8306 71.2104 61.8306ZM71.2104 72.1091C72.5225 72.1091 73.4884 71.6535 74.108 70.7423C74.7277 69.8311 75.0375 68.5918 75.0375 67.0245C75.0375 65.3722 74.7155 64.1025 74.0716 63.2156L69.5155 71.7628C70.0137 71.9937 70.5786 72.1091 71.2104 72.1091ZM83.1832 65.3114C83.9608 65.3114 84.6897 65.4633 85.3701 65.767C86.0626 66.0708 86.6215 66.5385 87.0467 67.1703C87.472 67.8021 87.6846 68.5797 87.6846 69.503C87.6846 70.4993 87.4537 71.3194 86.9921 71.9633C86.5304 72.5951 85.9229 73.0568 85.1696 73.3483C84.4285 73.6399 83.6266 73.7857 82.764 73.7857C81.6463 73.7857 80.6682 73.4941 79.8299 72.911C79.0037 72.3278 78.4023 71.4895 78.0257 70.396H79.921C80.164 70.9063 80.5164 71.3194 80.978 71.6353C81.4519 71.9511 82.0472 72.1091 82.764 72.1091C83.7117 72.1091 84.4953 71.8722 85.115 71.3983C85.7346 70.9245 86.0444 70.2927 86.0444 69.503C86.0444 68.9198 85.8925 68.4339 85.5888 68.0451C85.2972 67.6441 84.9206 67.3525 84.4589 67.1703C83.9972 66.9759 83.5112 66.8787 83.0009 66.8787C82.2841 66.8787 81.6402 67.0002 81.0692 67.2432C80.4981 67.474 80.085 67.7899 79.8299 68.1909H78.2991L79.757 60.5549H86.2813V62.1222H81.215L80.2673 66.2955C81.0935 65.6395 82.0654 65.3114 83.1832 65.3114ZM98.334 73.4941H89.3859V72.1455C89.3859 71.2708 89.5802 70.5357 89.969 69.9404C90.37 69.3329 90.8438 68.8469 91.3905 68.4825C91.9494 68.1058 92.6723 67.6927 93.5592 67.2432C94.2517 66.8909 94.7924 66.5932 95.1812 66.3502C95.5821 66.1072 95.9102 65.8156 96.1653 65.4754C96.4326 65.1231 96.5662 64.7222 96.5662 64.2726C96.5662 63.5558 96.3475 62.9726 95.9102 62.5231C95.4728 62.0614 94.8288 61.8306 93.9784 61.8306C93.5167 61.8306 93.0672 61.9399 92.6298 62.1586C92.2045 62.3652 91.8583 62.6446 91.591 62.9969C91.3237 63.3371 91.184 63.7016 91.1718 64.0904H89.4223C89.4588 63.3128 89.6896 62.6385 90.1148 62.0675C90.5401 61.4843 91.0929 61.0409 91.7732 60.7371C92.4536 60.4212 93.1887 60.2633 93.9784 60.2633C94.8045 60.2633 95.5335 60.4273 96.1653 60.7554C96.8092 61.0834 97.3074 61.5511 97.6597 62.1586C98.0242 62.7661 98.2064 63.4708 98.2064 64.2726C98.2064 65.0745 98.0242 65.7488 97.6597 66.2955C97.3074 66.8423 96.87 67.2857 96.3475 67.6259C95.8373 67.9661 95.169 68.3427 94.3429 68.7558C93.6503 69.096 93.1036 69.3937 92.7027 69.6488C92.3017 69.904 91.9616 70.2138 91.6821 70.5783C91.4148 70.9427 91.2812 71.374 91.2812 71.8722H98.334V73.4941ZM109.208 73.4941H100.26V72.1455C100.26 71.2708 100.454 70.5357 100.843 69.9404C101.244 69.3329 101.718 68.8469 102.265 68.4825C102.823 68.1058 103.546 67.6927 104.433 67.2432C105.126 66.8909 105.666 66.5932 106.055 66.3502C106.456 66.1072 106.784 65.8156 107.039 65.4754C107.307 65.1231 107.44 64.7222 107.44 64.2726C107.44 63.5558 107.222 62.9726 106.784 62.5231C106.347 62.0614 105.703 61.8306 104.852 61.8306C104.391 61.8306 103.941 61.9399 103.504 62.1586C103.079 62.3652 102.732 62.6446 102.465 62.9969C102.198 63.3371 102.058 63.7016 102.046 64.0904H100.296C100.333 63.3128 100.564 62.6385 100.989 62.0675C101.414 61.4843 101.967 61.0409 102.647 60.7371C103.328 60.4212 104.063 60.2633 104.852 60.2633C105.679 60.2633 106.408 60.4273 107.039 60.7554C107.683 61.0834 108.181 61.5511 108.534 62.1586C108.898 62.7661 109.08 63.4708 109.08 64.2726C109.08 65.0745 108.898 65.7488 108.534 66.2955C108.181 66.8423 107.744 67.2857 107.222 67.6259C106.711 67.9661 106.043 68.3427 105.217 68.7558C104.524 69.096 103.978 69.3937 103.577 69.6488C103.176 69.904 102.836 70.2138 102.556 70.5783C102.289 70.9427 102.155 71.374 102.155 71.8722H109.208V73.4941ZM110.861 67.0245C110.861 65.4937 111.104 64.224 111.59 63.2156C112.088 62.2072 112.738 61.4661 113.54 60.9923C114.341 60.5063 115.216 60.2633 116.164 60.2633C116.905 60.2633 117.622 60.4212 118.314 60.7371C119.007 61.053 119.578 61.5025 120.027 62.0857C120.489 62.6568 120.738 63.325 120.775 64.0904H119.025C119.013 63.6895 118.879 63.3189 118.624 62.9787C118.369 62.6264 118.023 62.3469 117.585 62.1404C117.148 61.9339 116.674 61.8306 116.164 61.8306C114.961 61.8306 114.05 62.3105 113.43 63.2703C112.811 64.218 112.501 65.4694 112.501 67.0245C112.501 67.2068 112.519 67.4011 112.555 67.6077C112.726 67.2432 112.993 66.8848 113.357 66.5325C113.722 66.1801 114.171 65.8885 114.706 65.6577C115.253 65.4268 115.854 65.3114 116.51 65.3114C117.288 65.3114 118.017 65.4633 118.697 65.767C119.39 66.0708 119.948 66.5385 120.374 67.1703C120.799 67.8021 121.012 68.5797 121.012 69.503C121.012 70.4993 120.781 71.3194 120.319 71.9633C119.857 72.5951 119.25 73.0568 118.497 73.3483C117.755 73.6399 116.954 73.7857 116.091 73.7857C114.463 73.7857 113.181 73.2329 112.246 72.1273C111.322 71.0217 110.861 69.3208 110.861 67.0245ZM116.091 72.1091C117.039 72.1091 117.822 71.8722 118.442 71.3983C119.062 70.9245 119.371 70.2927 119.371 69.503C119.371 68.9198 119.22 68.4339 118.916 68.0451C118.624 67.6441 118.248 67.3525 117.786 67.1703C117.324 66.9759 116.838 66.8787 116.328 66.8787C115.648 66.8787 115.052 67.0063 114.542 67.2614C114.044 67.5166 113.655 67.8507 113.376 68.2638C113.108 68.6647 112.975 69.0778 112.975 69.503C112.975 69.9283 113.096 70.3413 113.339 70.7423C113.594 71.1432 113.953 71.4712 114.414 71.7264C114.888 71.9815 115.447 72.1091 116.091 72.1091ZM127.373 60.5549V73.4941H125.733V64.1451H123.163V62.5778H123.983C124.505 62.5778 124.925 62.4441 125.24 62.1768C125.569 61.9096 125.733 61.5147 125.733 60.9923V60.5549H127.373Z" fill="black"/>
<path d="M29.8889 36.9342C29.8346 36.4751 29.6141 36.1188 29.2275 35.8651C28.841 35.6114 28.3668 35.4845 27.8051 35.4845C27.3943 35.4845 27.0349 35.551 26.7269 35.6839C26.4218 35.8168 26.1833 35.9995 26.0111 36.232C25.842 36.4646 25.7574 36.7288 25.7574 37.0248C25.7574 37.2725 25.8163 37.4854 25.9341 37.6636C26.0549 37.8387 26.2089 37.9852 26.3962 38.103C26.5834 38.2178 26.7797 38.3129 26.9851 38.3884C27.1905 38.4609 27.3792 38.5198 27.5514 38.5651L28.4937 38.8188C28.7353 38.8822 29.0041 38.9698 29.3 39.0815C29.599 39.1933 29.8844 39.3458 30.1562 39.5391C30.4311 39.7293 30.6576 39.974 30.8358 40.273C31.0139 40.5719 31.103 40.9389 31.103 41.3738C31.103 41.8751 30.9717 42.3282 30.7089 42.7328C30.4492 43.1375 30.0686 43.4592 29.5673 43.6978C29.069 43.9364 28.4634 44.0557 27.7507 44.0557C27.0863 44.0557 26.5109 43.9485 26.0247 43.734C25.5415 43.5196 25.1609 43.2206 24.8831 42.837C24.6083 42.4535 24.4527 42.008 24.4165 41.5006H25.5762C25.6064 41.851 25.7242 42.1409 25.9296 42.3704C26.138 42.5969 26.4007 42.7661 26.7178 42.8778C27.038 42.9865 27.3822 43.0409 27.7507 43.0409C28.1796 43.0409 28.5646 42.9714 28.9059 42.8325C29.2472 42.6906 29.5175 42.4943 29.7168 42.2436C29.9161 41.9899 30.0158 41.6939 30.0158 41.3557C30.0158 41.0476 29.9297 40.7969 29.7576 40.6037C29.5854 40.4104 29.3589 40.2533 29.078 40.1325C28.7972 40.0117 28.4937 39.906 28.1675 39.8154L27.0259 39.4892C26.301 39.2808 25.7272 38.9834 25.3044 38.5968C24.8816 38.2102 24.6702 37.7043 24.6702 37.0792C24.6702 36.5597 24.8106 36.1067 25.0915 35.7201C25.3754 35.3305 25.7559 35.0285 26.2331 34.8141C26.7133 34.5966 27.2494 34.4879 27.8413 34.4879C28.4393 34.4879 28.9708 34.5951 29.4359 34.8095C29.901 35.021 30.2695 35.3109 30.5413 35.6793C30.8161 36.0478 30.9611 36.4661 30.9762 36.9342H29.8889ZM35.7227 44.0375C35.0522 44.0375 34.4739 43.8896 33.9876 43.5936C33.5044 43.2946 33.1314 42.8778 32.8687 42.3433C32.609 41.8057 32.4791 41.1805 32.4791 40.4678C32.4791 39.755 32.609 39.1268 32.8687 38.5832C33.1314 38.0366 33.4969 37.6107 33.965 37.3057C34.4361 36.9976 34.9858 36.8436 35.614 36.8436C35.9764 36.8436 36.3343 36.904 36.6876 37.0248C37.041 37.1456 37.3626 37.3419 37.6526 37.6137C37.9425 37.8825 38.1735 38.2389 38.3457 38.6829C38.5178 39.1268 38.6039 39.6735 38.6039 40.3228V40.7758H33.2402V39.8516H37.5167C37.5167 39.459 37.4381 39.1087 37.2811 38.8006C37.1271 38.4926 36.9066 38.2495 36.6197 38.0713C36.3358 37.8931 36.0006 37.804 35.614 37.804C35.1881 37.804 34.8197 37.9097 34.5086 38.1211C34.2006 38.3295 33.9635 38.6013 33.7974 38.9366C33.6313 39.2718 33.5482 39.6312 33.5482 40.0147V40.6308C33.5482 41.1563 33.6388 41.6018 33.82 41.9672C34.0042 42.3297 34.2594 42.606 34.5856 42.7963C34.9118 42.9835 35.2908 43.0771 35.7227 43.0771C36.0036 43.0771 36.2573 43.0379 36.4838 42.9594C36.7133 42.8778 36.9111 42.757 37.0772 42.5969C37.2433 42.4339 37.3717 42.2315 37.4623 41.9899L38.4952 42.2798C38.3865 42.6302 38.2037 42.9382 37.947 43.204C37.6903 43.4667 37.3732 43.6721 36.9957 43.8201C36.6182 43.9651 36.1938 44.0375 35.7227 44.0375ZM41.2994 39.7067V43.8926H40.2302V36.9342H41.2631V38.0215H41.3537C41.5168 37.6681 41.7645 37.3842 42.0967 37.1698C42.4289 36.9523 42.8577 36.8436 43.3832 36.8436C43.8544 36.8436 44.2666 36.9402 44.62 37.1335C44.9733 37.3238 45.2482 37.6137 45.4445 38.0033C45.6408 38.3899 45.7389 38.8792 45.7389 39.4711V43.8926H44.6698V39.5436C44.6698 38.997 44.5279 38.5711 44.244 38.2661C43.9601 37.958 43.5705 37.804 43.0752 37.804C42.7339 37.804 42.4289 37.878 42.1601 38.026C41.8943 38.174 41.6844 38.3899 41.5304 38.6738C41.3764 38.9577 41.2994 39.302 41.2994 39.7067ZM50.3201 44.0375C49.7402 44.0375 49.2283 43.8911 48.7844 43.5981C48.3404 43.3021 47.9931 42.8854 47.7424 42.3478C47.4918 41.8072 47.3664 41.1684 47.3664 40.4315C47.3664 39.7006 47.4918 39.0664 47.7424 38.5288C47.9931 37.9913 48.3419 37.576 48.7889 37.283C49.2359 36.9901 49.7523 36.8436 50.3382 36.8436C50.7912 36.8436 51.1491 36.9191 51.4119 37.0701C51.6776 37.2181 51.88 37.3872 52.0189 37.5775C52.1609 37.7647 52.2711 37.9188 52.3496 38.0396H52.4402V34.6148H53.5094V43.8926H52.4765V42.8235H52.3496C52.2711 42.9503 52.1594 43.1104 52.0144 43.3037C51.8694 43.4939 51.6625 43.6646 51.3938 43.8156C51.125 43.9636 50.7671 44.0375 50.3201 44.0375ZM50.4651 43.0771C50.8939 43.0771 51.2563 42.9654 51.5523 42.7419C51.8483 42.5154 52.0733 42.2028 52.2273 41.8042C52.3813 41.4025 52.4584 40.9389 52.4584 40.4134C52.4584 39.8939 52.3828 39.4394 52.2318 39.0498C52.0808 38.6572 51.8573 38.3522 51.5614 38.1347C51.2654 37.9142 50.9 37.804 50.4651 37.804C50.012 37.804 49.6345 37.9203 49.3325 38.1528C49.0335 38.3824 48.8085 38.6949 48.6575 39.0906C48.5095 39.4832 48.4355 39.9241 48.4355 40.4134C48.4355 40.9087 48.511 41.3587 48.6621 41.7634C48.8161 42.1651 49.0426 42.4852 49.3416 42.7238C49.6436 42.9594 50.0181 43.0771 50.4651 43.0771Z" fill="black" fill-opacity="0.6"/>
</svg>
