<svg width="170" height="184" viewBox="0 0 170 184" fill="none" xmlns="http://www.w3.org/2000/svg">
<rect y="0.849609" width="169.486" height="182.243" rx="18.2243" fill="#E5EAFD"/>
<path d="M22.6368 23.7959V33.0737H21.2324V25.2003H21.178L18.9583 26.6499V25.309L21.2732 23.7959H22.6368ZM28.6495 33.0737V23.7959H32.0471C32.7055 23.7959 33.2506 23.9046 33.6825 24.1221C34.1144 24.3365 34.4375 24.6279 34.652 24.9964C34.8664 25.3618 34.9736 25.7741 34.9736 26.2331C34.9736 26.6197 34.9026 26.9459 34.7607 27.2117C34.6187 27.4744 34.4285 27.6858 34.1899 27.8459C33.9543 28.0029 33.6946 28.1177 33.4107 28.1902V28.2808C33.7187 28.2959 34.0192 28.3956 34.3122 28.5798C34.6082 28.761 34.8528 29.0192 35.0461 29.3544C35.2394 29.6897 35.336 30.0974 35.336 30.5776C35.336 31.0518 35.2243 31.4776 35.0008 31.8551C34.7803 32.2296 34.439 32.5271 33.977 32.7476C33.5149 32.965 32.9245 33.0737 32.2057 33.0737H28.6495ZM30.0493 31.8732H32.0698C32.7402 31.8732 33.2204 31.7434 33.5104 31.4836C33.8003 31.2239 33.9453 30.8992 33.9453 30.5096C33.9453 30.2167 33.8713 29.9479 33.7233 29.7033C33.5753 29.4586 33.3639 29.2638 33.089 29.1189C32.8172 28.9739 32.4941 28.9014 32.1196 28.9014H30.0493V31.8732ZM30.0493 27.8097H31.9248C32.2389 27.8097 32.5213 27.7492 32.7719 27.6284C33.0256 27.5076 33.2265 27.3385 33.3745 27.1211C33.5255 26.9006 33.601 26.6409 33.601 26.3419C33.601 25.9583 33.4666 25.6367 33.1978 25.3769C32.929 25.1172 32.5167 24.9873 31.961 24.9873H30.0493V27.8097ZM36.5388 25.0009V23.7959H43.7191V25.0009H40.8243V33.0737H39.429V25.0009H36.5388ZM52.613 26.813H51.1996C51.1452 26.511 51.0441 26.2452 50.8961 26.0157C50.7481 25.7862 50.5669 25.5914 50.3525 25.4313C50.138 25.2712 49.8979 25.1504 49.6322 25.0689C49.3694 24.9873 49.0901 24.9466 48.7941 24.9466C48.2595 24.9466 47.7808 25.081 47.358 25.3498C46.9382 25.6185 46.606 26.0127 46.3614 26.5321C46.1198 27.0516 45.999 27.6858 45.999 28.4348C45.999 29.1898 46.1198 29.8271 46.3614 30.3466C46.606 30.866 46.9397 31.2586 47.3625 31.5244C47.7854 31.7902 48.261 31.9231 48.7896 31.9231C49.0825 31.9231 49.3604 31.8838 49.6231 31.8053C49.8889 31.7237 50.129 31.6044 50.3434 31.4474C50.5578 31.2903 50.739 31.0986 50.887 30.8721C51.038 30.6425 51.1422 30.3798 51.1996 30.0838L52.613 30.0883C52.5375 30.5444 52.3911 30.9642 52.1736 31.3477C51.9592 31.7283 51.6828 32.0575 51.3446 32.3353C51.0093 32.6101 50.6258 32.8231 50.1939 32.9741C49.762 33.1251 49.2909 33.2006 48.7805 33.2006C47.9771 33.2006 47.2614 33.0103 46.6332 32.6298C46.005 32.2462 45.5097 31.6981 45.1473 30.9853C44.7879 30.2726 44.6082 29.4224 44.6082 28.4348C44.6082 27.4442 44.7894 26.594 45.1518 25.8843C45.5142 25.1716 46.0095 24.6249 46.6377 24.2444C47.2659 23.8608 47.9802 23.6691 48.7805 23.6691C49.2728 23.6691 49.7318 23.74 50.1577 23.882C50.5865 24.0209 50.9716 24.2263 51.3129 24.4981C51.6541 24.7669 51.9365 25.0961 52.16 25.4857C52.3835 25.8722 52.5345 26.3147 52.613 26.813ZM57.9904 27.633V26.4461H63.7935V27.633H57.9904ZM57.9904 30.4236V29.2367H63.7935V30.4236H57.9904Z" fill="black"/>
<path d="M110.864 55.688H112.268V61.7902C112.268 62.4395 112.116 63.0148 111.811 63.5162C111.506 64.0145 111.077 64.4071 110.524 64.694C109.972 64.9779 109.324 65.1198 108.581 65.1198C107.841 65.1198 107.195 64.9779 106.642 64.694C106.089 64.4071 105.66 64.0145 105.355 63.5162C105.05 63.0148 104.898 62.4395 104.898 61.7902V55.688H106.298V61.6769C106.298 62.0967 106.39 62.4697 106.574 62.7959C106.761 63.122 107.025 63.3787 107.367 63.566C107.708 63.7502 108.113 63.8423 108.581 63.8423C109.052 63.8423 109.458 63.7502 109.799 63.566C110.144 63.3787 110.406 63.122 110.588 62.7959C110.772 62.4697 110.864 62.0967 110.864 61.6769V55.688ZM119.364 58.1252C119.315 57.6964 119.116 57.3642 118.766 57.1286C118.415 56.89 117.974 56.7707 117.443 56.7707C117.062 56.7707 116.733 56.8311 116.455 56.9519C116.178 57.0697 115.962 57.2328 115.808 57.4412C115.657 57.6465 115.581 57.8806 115.581 58.1434C115.581 58.3638 115.632 58.5541 115.735 58.7142C115.841 58.8742 115.978 59.0086 116.147 59.1173C116.319 59.2231 116.504 59.3121 116.7 59.3846C116.896 59.4541 117.085 59.5115 117.266 59.5568L118.172 59.7923C118.468 59.8648 118.772 59.963 119.083 60.0868C119.394 60.2106 119.682 60.3737 119.948 60.5761C120.214 60.7784 120.428 61.0291 120.591 61.3281C120.758 61.6271 120.841 61.985 120.841 62.4017C120.841 62.9272 120.705 63.3938 120.433 63.8016C120.164 64.2093 119.773 64.5309 119.26 64.7665C118.749 65.0021 118.132 65.1198 117.407 65.1198C116.712 65.1198 116.111 65.0096 115.604 64.7891C115.096 64.5687 114.699 64.2561 114.412 63.8514C114.125 63.4437 113.967 62.9605 113.937 62.4017H115.341C115.368 62.737 115.477 63.0163 115.667 63.2398C115.86 63.4603 116.107 63.6249 116.406 63.7336C116.708 63.8393 117.038 63.8922 117.398 63.8922C117.793 63.8922 118.145 63.8303 118.453 63.7064C118.764 63.5796 119.009 63.4044 119.187 63.1809C119.365 62.9544 119.454 62.6902 119.454 62.3881C119.454 62.1133 119.376 61.8883 119.219 61.7131C119.065 61.538 118.855 61.393 118.589 61.2782C118.326 61.1635 118.029 61.0623 117.697 60.9747L116.6 60.6757C115.857 60.4734 115.268 60.1759 114.834 59.7833C114.402 59.3907 114.186 58.8712 114.186 58.2249C114.186 57.6903 114.331 57.2237 114.621 56.8251C114.911 56.4264 115.303 56.1169 115.798 55.8964C116.294 55.6729 116.853 55.5611 117.475 55.5611C118.103 55.5611 118.657 55.6714 119.137 55.8919C119.62 56.1123 120.001 56.4158 120.279 56.8024C120.557 57.186 120.702 57.6269 120.714 58.1252H119.364ZM125.517 64.9658H122.513V55.688H125.612C126.521 55.688 127.302 55.8737 127.954 56.2452C128.606 56.6137 129.106 57.1437 129.454 57.8353C129.804 58.5239 129.979 59.3499 129.979 60.3133C129.979 61.2798 129.802 62.1103 129.449 62.8049C129.099 63.4995 128.591 64.0341 127.927 64.4086C127.262 64.7801 126.459 64.9658 125.517 64.9658ZM123.913 63.7427H125.44C126.147 63.7427 126.734 63.6098 127.202 63.344C127.67 63.0752 128.021 62.6871 128.253 62.1798C128.486 61.6694 128.602 61.0472 128.602 60.3133C128.602 59.5855 128.486 58.9678 128.253 58.4605C128.024 57.9531 127.681 57.568 127.225 57.3053C126.769 57.0425 126.202 56.9111 125.526 56.9111H123.913V63.7427Z" fill="black"/>
<path d="M127.563 31.5153V25.3905H128.782V31.5153H127.563ZM125.112 29.06V27.8459H131.237V29.06H125.112ZM136.449 33.2006C135.8 33.2006 135.226 33.0888 134.728 32.8653C134.232 32.6419 133.844 32.3338 133.563 31.9412C133.282 31.5486 133.143 31.1016 133.146 30.6002C133.143 30.2076 133.224 29.8467 133.387 29.5175C133.553 29.1853 133.778 28.909 134.062 28.6885C134.345 28.465 134.663 28.3231 135.013 28.2627V28.2083C134.551 28.0966 134.181 27.8489 133.903 27.4654C133.625 27.0818 133.488 26.6409 133.491 26.1425C133.488 25.6684 133.613 25.2456 133.867 24.8741C134.124 24.4996 134.475 24.2051 134.922 23.9907C135.369 23.7763 135.878 23.6691 136.449 23.6691C137.014 23.6691 137.518 23.7778 137.962 23.9952C138.409 24.2097 138.761 24.5041 139.018 24.8786C139.274 25.2501 139.404 25.6714 139.407 26.1425C139.404 26.6409 139.262 27.0818 138.981 27.4654C138.701 27.8489 138.335 28.0966 137.885 28.2083V28.2627C138.232 28.3231 138.545 28.465 138.823 28.6885C139.104 28.909 139.327 29.1853 139.493 29.5175C139.662 29.8467 139.748 30.2076 139.752 30.6002C139.748 31.1016 139.607 31.5486 139.326 31.9412C139.045 32.3338 138.655 32.6419 138.157 32.8653C137.662 33.0888 137.092 33.2006 136.449 33.2006ZM136.449 32.0544C136.833 32.0544 137.165 31.991 137.446 31.8642C137.727 31.7343 137.944 31.5546 138.098 31.3251C138.252 31.0925 138.331 30.8207 138.334 30.5096C138.331 30.1865 138.246 29.9011 138.08 29.6534C137.917 29.4058 137.695 29.211 137.414 29.069C137.133 28.9271 136.811 28.8561 136.449 28.8561C136.084 28.8561 135.759 28.9271 135.475 29.069C135.191 29.211 134.968 29.4058 134.805 29.6534C134.641 29.9011 134.561 30.1865 134.564 30.5096C134.561 30.8207 134.635 31.0925 134.786 31.3251C134.94 31.5546 135.159 31.7343 135.443 31.8642C135.727 31.991 136.062 32.0544 136.449 32.0544ZM136.449 27.7372C136.757 27.7372 137.03 27.6753 137.269 27.5514C137.508 27.4276 137.695 27.2555 137.831 27.035C137.97 26.8145 138.041 26.5563 138.044 26.2603C138.041 25.9704 137.971 25.7167 137.835 25.4993C137.702 25.2818 137.517 25.1142 137.278 24.9964C137.039 24.8756 136.763 24.8152 136.449 24.8152C136.129 24.8152 135.848 24.8756 135.606 24.9964C135.368 25.1142 135.182 25.2818 135.049 25.4993C134.916 25.7167 134.851 25.9704 134.854 26.2603C134.851 26.5563 134.918 26.8145 135.054 27.035C135.19 27.2555 135.377 27.4276 135.615 27.5514C135.857 27.6753 136.135 27.7372 136.449 27.7372ZM146.217 31.3341V30.8449C146.217 30.4945 146.29 30.1744 146.435 29.8845C146.583 29.5915 146.797 29.3575 147.078 29.1823C147.362 29.0041 147.705 28.915 148.106 28.915C148.517 28.915 148.861 29.0026 149.139 29.1778C149.417 29.3529 149.627 29.587 149.769 29.8799C149.914 30.1729 149.986 30.4945 149.986 30.8449V31.3341C149.986 31.6845 149.914 32.0061 149.769 32.2991C149.624 32.589 149.411 32.8231 149.13 33.0012C148.852 33.1764 148.511 33.264 148.106 33.264C147.699 33.264 147.354 33.1764 147.073 33.0012C146.793 32.8231 146.58 32.589 146.435 32.2991C146.29 32.0061 146.217 31.6845 146.217 31.3341ZM147.273 30.8449V31.3341C147.273 31.5939 147.335 31.8294 147.458 32.0408C147.582 32.2523 147.798 32.358 148.106 32.358C148.411 32.358 148.624 32.2523 148.745 32.0408C148.866 31.8294 148.926 31.5939 148.926 31.3341V30.8449C148.926 30.5851 148.867 30.3496 148.75 30.1382C148.635 29.9268 148.42 29.8211 148.106 29.8211C147.804 29.8211 147.59 29.9268 147.463 30.1382C147.336 30.3496 147.273 30.5851 147.273 30.8449ZM141.551 26.0248V25.5355C141.551 25.1852 141.624 24.8635 141.769 24.5706C141.917 24.2776 142.131 24.0436 142.412 23.8684C142.696 23.6932 143.039 23.6056 143.44 23.6056C143.851 23.6056 144.195 23.6932 144.473 23.8684C144.751 24.0436 144.961 24.2776 145.103 24.5706C145.245 24.8635 145.316 25.1852 145.316 25.5355V26.0248C145.316 26.3751 145.243 26.6967 145.098 26.9897C144.956 27.2796 144.745 27.5137 144.464 27.6919C144.186 27.867 143.845 27.9546 143.44 27.9546C143.029 27.9546 142.684 27.867 142.403 27.6919C142.125 27.5137 141.914 27.2796 141.769 26.9897C141.624 26.6967 141.551 26.3751 141.551 26.0248ZM142.611 25.5355V26.0248C142.611 26.2845 142.672 26.5201 142.792 26.7315C142.916 26.9429 143.132 27.0486 143.44 27.0486C143.742 27.0486 143.954 26.9429 144.074 26.7315C144.198 26.5201 144.26 26.2845 144.26 26.0248V25.5355C144.26 25.2758 144.201 25.0402 144.084 24.8288C143.966 24.6174 143.751 24.5117 143.44 24.5117C143.138 24.5117 142.924 24.6174 142.797 24.8288C142.673 25.0402 142.611 25.2758 142.611 25.5355ZM141.981 33.0737L148.36 23.7959H149.443L143.064 33.0737H141.981Z" fill="#00A323"/>
<path d="M30.1212 65.6763H19.3834V64.058C19.3834 63.0082 19.6167 62.1262 20.0832 61.4118C20.5644 60.6828 21.133 60.0996 21.789 59.6622C22.4597 59.2103 23.3272 58.7146 24.3915 58.1751C25.2225 57.7523 25.8713 57.3951 26.3378 57.1036C26.8189 56.812 27.2126 56.4621 27.5188 56.0538C27.8395 55.631 27.9999 55.1499 27.9999 54.6105C27.9999 53.7503 27.7375 53.0505 27.2126 52.511C26.6877 51.957 25.915 51.68 24.8945 51.68C24.3404 51.68 23.801 51.8112 23.2761 52.0736C22.7659 52.3215 22.3503 52.6568 22.0296 53.0796C21.7089 53.4879 21.5412 53.9252 21.5266 54.3918H19.4272C19.4709 53.4587 19.7479 52.6495 20.2582 51.9643C20.7685 51.2645 21.4318 50.7323 22.2483 50.3679C23.0647 49.9888 23.9468 49.7993 24.8945 49.7993C25.8859 49.7993 26.7606 49.9961 27.5188 50.3897C28.2915 50.7834 28.8892 51.3447 29.312 52.0736C29.7494 52.8026 29.9681 53.6482 29.9681 54.6105C29.9681 55.5727 29.7494 56.3819 29.312 57.0379C28.8892 57.694 28.3644 58.2262 27.7375 58.6344C27.1251 59.0426 26.3232 59.4946 25.3318 59.9903C24.5008 60.3985 23.8447 60.7557 23.3636 61.0619C22.8825 61.368 22.4743 61.7398 22.1389 62.1772C21.8182 62.6146 21.6578 63.1322 21.6578 63.7299H30.1212V65.6763ZM41.0488 57.8034C41.8798 58.1241 42.5359 58.5761 43.017 59.1593C43.5127 59.7424 43.7605 60.4641 43.7605 61.3243C43.7605 62.374 43.4835 63.2561 42.9295 63.9705C42.3755 64.6703 41.6611 65.1879 40.7863 65.5232C39.9116 65.8585 38.9858 66.0262 38.009 66.0262C37.0321 66.0262 36.1063 65.8585 35.2316 65.5232C34.3568 65.1879 33.6424 64.6703 33.0884 63.9705C32.5344 63.2561 32.2574 62.374 32.2574 61.3243C32.2574 60.4641 32.4979 59.7424 32.979 59.1593C33.4747 58.5761 34.1381 58.1241 34.9691 57.8034C33.4529 57.2348 32.6947 56.1559 32.6947 54.5667C32.6947 53.0359 33.2123 51.9206 34.2475 51.2208C35.2972 50.5064 36.551 50.1492 38.009 50.1492C39.4669 50.1492 40.7134 50.5064 41.7486 51.2208C42.7983 51.9206 43.3232 53.0359 43.3232 54.5667C43.3232 56.1559 42.565 57.2348 41.0488 57.8034ZM38.009 52.1611C37.0467 52.1611 36.2448 52.3798 35.6033 52.8172C34.9764 53.2546 34.663 53.8378 34.663 54.5667C34.663 55.3978 34.9691 56.0028 35.5815 56.3819C36.1938 56.7609 37.003 56.9505 38.009 56.9505C39.0149 56.9505 39.8241 56.7609 40.4364 56.3819C41.0488 56.0028 41.3549 55.3978 41.3549 54.5667C41.3549 53.8378 41.0342 53.2546 40.3927 52.8172C39.7658 52.3798 38.9712 52.1611 38.009 52.1611ZM38.009 64.0142C38.6942 64.0142 39.3211 63.8976 39.8897 63.6643C40.4729 63.4165 40.9321 63.0884 41.2675 62.6802C41.6174 62.272 41.7923 61.82 41.7923 61.3243C41.7923 60.7557 41.6101 60.2673 41.2456 59.8591C40.8811 59.4508 40.4073 59.1447 39.8241 58.9406C39.2555 58.7219 38.6504 58.6125 38.009 58.6125C37.3675 58.6125 36.7551 58.7219 36.1719 58.9406C35.6033 59.1447 35.1368 59.4508 34.7723 59.8591C34.4078 60.2673 34.2256 60.7557 34.2256 61.3243C34.2256 61.82 34.3933 62.272 34.7286 62.6802C35.0785 63.0884 35.5377 63.4165 36.1063 63.6643C36.6895 63.8976 37.3237 64.0142 38.009 64.0142ZM47.7016 65.7856C47.308 65.7856 46.9726 65.6544 46.6956 65.392C46.4186 65.115 46.2801 64.7796 46.2801 64.386C46.2801 63.9923 46.4186 63.657 46.6956 63.38C46.9726 63.0884 47.308 62.9426 47.7016 62.9426C48.0952 62.9426 48.4306 63.0884 48.7076 63.38C48.9846 63.657 49.1231 63.9923 49.1231 64.386C49.1231 64.7796 48.9846 65.115 48.7076 65.392C48.4306 65.6544 48.0952 65.7856 47.7016 65.7856ZM51.4747 57.9127C51.4747 56.0757 51.7663 54.5522 52.3495 53.3421C52.9472 52.132 53.7272 51.2426 54.6895 50.674C55.6517 50.0908 56.7015 49.7993 57.8386 49.7993C58.728 49.7993 59.5882 49.9888 60.4192 50.3679C61.2502 50.7469 61.9355 51.2864 62.4749 51.9862C63.0289 52.6714 63.3278 53.4733 63.3715 54.3918H61.2721C61.2575 53.9107 61.0972 53.466 60.791 53.0578C60.4848 52.635 60.0693 52.2996 59.5444 52.0518C59.0196 51.8039 58.451 51.68 57.8386 51.68C56.3953 51.68 55.3018 52.2559 54.5583 53.4077C53.8147 54.5449 53.4429 56.0465 53.4429 57.9127C53.4429 58.1314 53.4648 58.3647 53.5086 58.6125C53.7127 58.1751 54.0334 57.7451 54.4708 57.3222C54.9082 56.8994 55.4476 56.5495 56.0891 56.2725C56.7452 55.9955 57.4669 55.857 58.2542 55.857C59.1872 55.857 60.062 56.0393 60.8785 56.4037C61.7095 56.7682 62.3801 57.3295 62.8904 58.0877C63.4007 58.8458 63.6558 59.7789 63.6558 60.8869C63.6558 62.0824 63.3788 63.0665 62.8248 63.8393C62.2708 64.5974 61.5418 65.1514 60.6379 65.5013C59.7486 65.8512 58.7863 66.0262 57.7512 66.0262C55.7975 66.0262 54.2594 65.3628 53.1368 64.0361C52.0287 62.7094 51.4747 60.6682 51.4747 57.9127ZM57.7512 64.0142C58.8884 64.0142 59.8287 63.7299 60.5723 63.1613C61.3158 62.5927 61.6876 61.8346 61.6876 60.8869C61.6876 60.1871 61.5054 59.6039 61.1409 59.1374C60.791 58.6563 60.339 58.3064 59.785 58.0877C59.231 57.8544 58.6478 57.7378 58.0355 57.7378C57.219 57.7378 56.5046 57.8908 55.8923 58.197C55.2945 58.5032 54.828 58.9041 54.4927 59.3998C54.1719 59.8809 54.0115 60.3766 54.0115 60.8869C54.0115 61.3972 54.1573 61.8929 54.4489 62.374C54.7551 62.8551 55.1852 63.2488 55.7392 63.555C56.3078 63.8611 56.9785 64.0142 57.7512 64.0142ZM71.5735 49.7993C72.7544 49.7993 73.8406 50.0908 74.832 50.674C75.8234 51.2426 76.618 52.1393 77.2158 53.3639C77.8281 54.574 78.1343 56.0903 78.1343 57.9127C78.1343 60.7557 77.5219 62.8187 76.2972 64.1017C75.0726 65.3847 73.498 66.0262 71.5735 66.0262C70.4217 66.0262 69.3429 65.7419 68.3369 65.1733C67.3455 64.5901 66.5436 63.6935 65.9313 62.4834C65.3189 61.2587 65.0128 59.7351 65.0128 57.9127C65.0128 56.0757 65.3189 54.5522 65.9313 53.3421C66.5436 52.132 67.3455 51.2426 68.3369 50.674C69.3429 50.0908 70.4217 49.7993 71.5735 49.7993ZM71.5735 51.68C70.0135 51.68 68.8544 52.2486 68.0963 53.3858C67.3528 54.5084 66.981 56.0174 66.981 57.9127C66.981 59.8518 67.36 61.3462 68.1182 62.3959L73.5855 52.1174C73.0023 51.8258 72.3316 51.68 71.5735 51.68ZM71.5735 64.0142C73.1481 64.0142 74.3072 63.4675 75.0507 62.374C75.7943 61.2806 76.166 59.7935 76.166 57.9127C76.166 55.9299 75.7797 54.4064 75.007 53.3421L69.5397 63.5987C70.1374 63.8757 70.8154 64.0142 71.5735 64.0142ZM81.8295 65.7856C81.4358 65.7856 81.1005 65.6544 80.8235 65.392C80.5465 65.115 80.408 64.7796 80.408 64.386C80.408 63.9923 80.5465 63.657 80.8235 63.38C81.1005 63.0884 81.4358 62.9426 81.8295 62.9426C82.2231 62.9426 82.5584 63.0884 82.8354 63.38C83.1125 63.657 83.251 63.9923 83.251 64.386C83.251 64.7796 83.1125 65.115 82.8354 65.392C82.5584 65.6544 82.2231 65.7856 81.8295 65.7856ZM96.6684 65.6763H85.9306V64.058C85.9306 63.0082 86.1639 62.1262 86.6304 61.4118C87.1115 60.6828 87.6801 60.0996 88.3362 59.6622C89.0069 59.2103 89.8744 58.7146 90.9386 58.1751C91.7697 57.7523 92.4185 57.3951 92.885 57.1036C93.3661 56.812 93.7598 56.4621 94.0659 56.0538C94.3867 55.631 94.5471 55.1499 94.5471 54.6105C94.5471 53.7503 94.2846 53.0505 93.7598 52.511C93.2349 51.957 92.4622 51.68 91.4416 51.68C90.8876 51.68 90.3482 51.8112 89.8233 52.0736C89.313 52.3215 88.8975 52.6568 88.5768 53.0796C88.256 53.4879 88.0884 53.9252 88.0738 54.3918H85.9743C86.0181 53.4587 86.2951 52.6495 86.8054 51.9643C87.3157 51.2645 87.979 50.7323 88.7955 50.3679C89.6119 49.9888 90.494 49.7993 91.4416 49.7993C92.433 49.7993 93.3078 49.9961 94.0659 50.3897C94.8387 50.7834 95.4364 51.3447 95.8592 52.0736C96.2966 52.8026 96.5153 53.6482 96.5153 54.6105C96.5153 55.5727 96.2966 56.3819 95.8592 57.0379C95.4364 57.694 94.9115 58.2262 94.2846 58.6344C93.6723 59.0426 92.8704 59.4946 91.879 59.9903C91.048 60.3985 90.3919 60.7557 89.9108 61.0619C89.4297 61.368 89.0215 61.7398 88.6861 62.1772C88.3654 62.6146 88.205 63.1322 88.205 63.7299H96.6684V65.6763Z" fill="black"/>
<path d="M68.2755 147.184C68.9643 147.37 69.4892 147.725 69.85 148.25C70.2109 148.764 70.3913 149.371 70.3913 150.07C70.3913 150.891 70.189 151.563 69.7844 152.088C69.3799 152.602 68.9042 152.974 68.3575 153.203C67.8107 153.422 67.3078 153.531 66.8485 153.531H60.9602V141.886H66.1104C67.2804 141.886 68.1716 142.143 68.7839 142.657C69.4072 143.171 69.7188 143.914 69.7188 144.887C69.7188 145.358 69.5876 145.806 69.3252 146.232C69.0628 146.659 68.7128 146.976 68.2755 147.184ZM62.4364 143.296V146.642H66.0284C67.4499 146.642 68.1607 146.085 68.1607 144.969C68.1607 143.854 67.4499 143.296 66.0284 143.296H62.4364ZM66.3728 152.121C67.2367 152.121 67.86 151.924 68.2427 151.53C68.6363 151.126 68.8331 150.612 68.8331 149.988C68.8331 149.485 68.6691 149.037 68.3411 148.643C68.013 148.25 67.3952 148.053 66.4877 148.053H62.4364V152.121H66.3728ZM72.5834 143.592C72.31 143.592 72.0749 143.499 71.8781 143.313C71.6922 143.127 71.5993 142.897 71.5993 142.624C71.5993 142.351 71.6922 142.116 71.8781 141.919C72.0749 141.722 72.31 141.623 72.5834 141.623C72.8568 141.623 73.0864 141.722 73.2723 141.919C73.4691 142.116 73.5675 142.351 73.5675 142.624C73.5675 142.897 73.4691 143.127 73.2723 143.313C73.0864 143.499 72.8568 143.592 72.5834 143.592ZM71.8453 153.531V145.658H73.3215V153.531H71.8453ZM77.5086 147.069V150.021C77.5086 150.721 77.6398 151.246 77.9022 151.596C78.1646 151.946 78.6075 152.121 79.2308 152.121H79.7228V153.531H78.7551C77.9459 153.531 77.2899 153.274 76.7869 152.76C76.2839 152.246 76.0324 151.421 76.0324 150.284V147.069H74.8679V145.658H76.0324V141.623H77.5086V145.658H79.7228V147.069H77.5086ZM81.0423 148.972C81.0423 148.195 81.1954 147.539 81.5015 147.003C81.8077 146.457 82.2177 146.052 82.7317 145.79C83.2456 145.527 83.8087 145.396 84.4211 145.396H85.3724C86.1706 145.396 86.854 145.636 87.4226 146.118C87.9912 146.588 88.3247 147.282 88.4231 148.201H86.8813C86.7829 147.741 86.5752 147.397 86.2581 147.167C85.9519 146.927 85.4981 146.806 84.8967 146.806C84.0438 146.806 83.4315 147.014 83.0597 147.43C82.6989 147.845 82.5184 148.447 82.5184 149.234V149.956C82.5184 150.743 82.6989 151.344 83.0597 151.76C83.4315 152.175 84.0438 152.383 84.8967 152.383C85.5528 152.383 86.0394 152.246 86.3565 151.973C86.6736 151.7 86.8649 151.306 86.9305 150.792H88.4559C88.3903 151.776 88.0677 152.525 87.4882 153.039C86.9087 153.542 86.2034 153.794 85.3724 153.794H84.4211C83.8087 153.794 83.2456 153.662 82.7317 153.4C82.2177 153.138 81.8077 152.738 81.5015 152.203C81.1954 151.656 81.0423 150.994 81.0423 150.218V148.972ZM93.9436 145.396C94.5778 145.396 95.1574 145.527 95.6822 145.79C96.2071 146.052 96.6226 146.451 96.9288 146.987C97.2459 147.523 97.4044 148.184 97.4044 148.972V150.218C97.4044 151.005 97.2459 151.667 96.9288 152.203C96.6226 152.738 96.2071 153.138 95.6822 153.4C95.1574 153.662 94.5778 153.794 93.9436 153.794H92.9923C92.3581 153.794 91.7786 153.662 91.2537 153.4C90.7289 153.138 90.3079 152.738 89.9908 152.203C89.6846 151.667 89.5315 151.005 89.5315 150.218V148.972C89.5315 148.184 89.6846 147.523 89.9908 146.987C90.3079 146.451 90.7289 146.052 91.2537 145.79C91.7786 145.527 92.3581 145.396 92.9923 145.396H93.9436ZM95.9283 149.234C95.9283 148.447 95.7369 147.845 95.3542 147.43C94.9824 147.014 94.3537 146.806 93.468 146.806C92.5823 146.806 91.9481 147.014 91.5654 147.43C91.1936 147.845 91.0077 148.447 91.0077 149.234V149.956C91.0077 150.743 91.1936 151.344 91.5654 151.76C91.9481 152.175 92.5823 152.383 93.468 152.383C94.3537 152.383 94.9824 152.175 95.3542 151.76C95.7369 151.344 95.9283 150.743 95.9283 149.956V149.234ZM100.005 143.592C99.7319 143.592 99.4968 143.499 99.3 143.313C99.1141 143.127 99.0212 142.897 99.0212 142.624C99.0212 142.351 99.1141 142.116 99.3 141.919C99.4968 141.722 99.7319 141.623 100.005 141.623C100.279 141.623 100.508 141.722 100.694 141.919C100.891 142.116 100.989 142.351 100.989 142.624C100.989 142.897 100.891 143.127 100.694 143.313C100.508 143.499 100.279 143.592 100.005 143.592ZM99.2672 153.531V145.658H100.743V153.531H99.2672ZM107.424 145.396C107.927 145.396 108.402 145.505 108.85 145.724C109.299 145.932 109.665 146.282 109.949 146.774C110.245 147.255 110.392 147.878 110.392 148.643V153.531H108.916V148.906C108.916 148.173 108.758 147.643 108.44 147.315C108.134 146.976 107.637 146.806 106.948 146.806C106.631 146.806 106.303 146.894 105.964 147.069C105.625 147.233 105.335 147.512 105.094 147.905C104.865 148.288 104.75 148.791 104.75 149.414V153.531H103.274V145.658H104.652V146.954C104.925 146.506 105.324 146.134 105.849 145.839C106.385 145.544 106.91 145.396 107.424 145.396Z" fill="black"/>
<ellipse cx="34.6262" cy="148.467" rx="16.4019" ry="16.4019" fill="#2B5AF3"/>
<g clip-path="url(#clip0_551_5003)">
<path d="M40.6922 148.915C40.2688 148.367 39.6299 147.991 38.7756 147.787C39.8636 147.232 40.3417 146.29 40.2104 144.961C40.1665 144.479 40.0333 144.062 39.8105 143.707C39.5876 143.353 39.2867 143.069 38.9068 142.853C38.5272 142.638 38.1143 142.474 37.6691 142.36C37.2238 142.247 36.7126 142.165 36.1357 142.114V139.354H34.4492V142.037C34.1572 142.037 33.7118 142.045 33.1132 142.059V139.354H31.4264V142.114C31.1854 142.121 30.8313 142.125 30.3641 142.125L28.0422 142.114V143.91H29.2579C29.8128 143.91 30.1377 144.159 30.2326 144.655V147.798C30.3057 147.798 30.3641 147.802 30.4079 147.809H30.2326V152.212C30.1743 152.584 29.9625 152.771 29.5974 152.771H28.3819L28.0423 154.775H30.2328C30.3716 154.775 30.5722 154.777 30.8352 154.78C31.098 154.784 31.2951 154.786 31.4265 154.786V157.578H33.1135V154.818C33.4201 154.826 33.8655 154.83 34.4496 154.83V157.578H36.1361V154.786C36.735 154.756 37.2661 154.702 37.7296 154.621C38.1932 154.541 38.6369 154.415 39.0603 154.243C39.4837 154.072 39.8377 153.858 40.1225 153.603C40.4073 153.347 40.6426 153.022 40.8291 152.628C41.015 152.234 41.1338 151.777 41.1847 151.259C41.2801 150.244 41.1157 149.463 40.6922 148.915ZM33.146 144.03C33.1971 144.03 33.3413 144.029 33.5786 144.025C33.816 144.021 34.0131 144.017 34.1701 144.014C34.3271 144.01 34.5388 144.019 34.8054 144.041C35.0719 144.063 35.2964 144.092 35.4789 144.129C35.6614 144.165 35.8624 144.226 36.0812 144.31C36.3004 144.393 36.4755 144.496 36.6068 144.616C36.7384 144.737 36.8497 144.89 36.9408 145.076C37.0322 145.262 37.0778 145.476 37.0778 145.717C37.0778 145.921 37.045 146.108 36.9794 146.276C36.9139 146.443 36.815 146.584 36.6838 146.697C36.5525 146.81 36.4171 146.909 36.2784 146.993C36.1398 147.077 35.9625 147.144 35.7472 147.196C35.5319 147.247 35.3439 147.287 35.1834 147.316C35.0227 147.345 34.822 147.365 34.581 147.376C34.34 147.387 34.1574 147.395 34.0333 147.398C33.9092 147.402 33.7395 147.402 33.524 147.398C33.3085 147.395 33.1827 147.393 33.1461 147.393V144.03L33.146 144.03ZM37.7516 151.489C37.682 151.657 37.5927 151.803 37.4833 151.927C37.3737 152.051 37.2294 152.161 37.0506 152.255C36.8718 152.351 36.6982 152.427 36.5304 152.485C36.3624 152.544 36.1597 152.595 35.9227 152.639C35.685 152.683 35.4771 152.714 35.298 152.732C35.1192 152.75 34.9057 152.765 34.6574 152.776C34.4092 152.787 34.2156 152.792 34.077 152.792C33.9382 152.792 33.7629 152.79 33.5512 152.787C33.3393 152.783 33.2044 152.781 33.1459 152.781V149.079C33.2042 149.079 33.3777 149.076 33.6661 149.068C33.9547 149.061 34.19 149.058 34.3726 149.058C34.5551 149.058 34.8071 149.068 35.1285 149.09C35.4495 149.112 35.7197 149.145 35.939 149.189C36.1579 149.233 36.3969 149.3 36.6563 149.391C36.9154 149.483 37.1254 149.594 37.2861 149.725C37.4468 149.857 37.5818 150.025 37.6912 150.229C37.801 150.434 37.8557 150.667 37.8557 150.93C37.8557 151.135 37.8211 151.321 37.7516 151.489Z" fill="white"/>
</g>
<defs>
<clipPath id="clip0_551_5003">
<rect width="18.2243" height="18.2243" fill="white" transform="translate(25.5142 139.354)"/>
</clipPath>
</defs>
</svg>
