 <svg viewBox="0 0 60 60" fill="none" xmlns="http://www.w3.org/2000/svg">
        
        <circle cx="30" cy="30" r="30" fill="#7E30E1"></circle>
        <path
          d="M38.75 26.25C38.75 28.0625 38.2125 29.725 37.2875 31.1125C35.9375 33.1125 33.8 34.525 31.3125 34.8875C30.8875 34.9625 30.45 35 30 35C29.55 35 29.1125 34.9625 28.6875 34.8875C26.2 34.525 24.0625 33.1125 22.7125 31.1125C21.7875 29.725 21.25 28.0625 21.25 26.25C21.25 21.4125 25.1625 17.5 30 17.5C34.8375 17.5 38.75 21.4125 38.75 26.25Z"
          stroke="white"
          stroke-width="1.5"
          stroke-linecap="round"
          stroke-linejoin="round"
        ></path>
        <path
          d="M41.5625 38.0875L39.5 38.575C39.0375 38.6875 38.675 39.0375 38.575 39.5L38.1375 41.3375C37.9 42.3375 36.625 42.6375 35.9625 41.85L30 35L24.0375 41.8625C23.375 42.65 22.1 42.35 21.8625 41.35L21.425 39.5125C21.3125 39.05 20.95 38.6875 20.5 38.5875L18.4375 38.1C17.4875 37.875 17.15 36.6875 17.8375 36L22.7125 31.125C24.0625 33.125 26.2 34.5375 28.6875 34.9C29.1125 34.975 29.55 35.0125 30 35.0125C30.45 35.0125 30.8875 34.975 31.3125 34.9C33.8 34.5375 35.9375 33.125 37.2875 31.125L42.1625 36C42.85 36.675 42.5125 37.8625 41.5625 38.0875Z"
          stroke="white"
          stroke-width="1.5"
          stroke-linecap="round"
          stroke-linejoin="round"
        ></path>
        <path
          d="M30.725 22.475L31.4625 23.95C31.5625 24.15 31.825 24.35 32.0625 24.3875L33.4 24.6125C34.25 24.75 34.45 25.375 33.8375 25.9875L32.8 27.025C32.625 27.2 32.525 27.5375 32.5875 27.7875L32.8875 29.075C33.125 30.0875 32.5875 30.4875 31.6875 29.95L30.4375 29.2125C30.2125 29.075 29.8375 29.075 29.6125 29.2125L28.3625 29.95C27.4625 30.475 26.925 30.0875 27.1625 29.075L27.4625 27.7875C27.5125 27.55 27.425 27.2 27.25 27.025L26.2125 25.9875C25.6 25.375 25.8 24.7625 26.65 24.6125L27.9875 24.3875C28.2125 24.35 28.475 24.15 28.575 23.95L29.3125 22.475C29.675 21.675 30.325 21.675 30.725 22.475Z"
          stroke="white"
          stroke-width="1.5"
          stroke-linecap="round"
          stroke-linejoin="round"
        ></path>
      </svg>