 <svg viewBox="0 0 60 60" fill="none" xmlns="http://www.w3.org/2000/svg">
        
        <circle cx="30" cy="30" r="30" fill="#7E30E1"></circle>
        <path
          d="M37.5 23.95C37.425 23.9375 37.3375 23.9375 37.2625 23.95C35.5375 23.8875 34.1625 22.475 34.1625 20.725C34.1625 18.9375 35.6 17.5 37.3875 17.5C39.175 17.5 40.6125 18.95 40.6125 20.725C40.6 22.475 39.225 23.8875 37.5 23.95Z"
          stroke="white"
          stroke-width="1.5"
          stroke-linecap="round"
          stroke-linejoin="round"
        ></path>
        <path
          d="M36.2124 33.0502C37.9249 33.3377 39.8124 33.0377 41.1374 32.1502C42.8999 30.9752 42.8999 29.0502 41.1374 27.8752C39.7999 26.9877 37.8874 26.6877 36.1749 26.9877"
          stroke="white"
          stroke-width="1.5"
          stroke-linecap="round"
          stroke-linejoin="round"
        ></path>
        <path
          d="M22.4626 23.95C22.5376 23.9375 22.6251 23.9375 22.7001 23.95C24.4251 23.8875 25.8001 22.475 25.8001 20.725C25.8001 18.9375 24.3626 17.5 22.5751 17.5C20.7876 17.5 19.3501 18.95 19.3501 20.725C19.3626 22.475 20.7376 23.8875 22.4626 23.95Z"
          stroke="white"
          stroke-width="1.5"
          stroke-linecap="round"
          stroke-linejoin="round"
        ></path>
        <path
          d="M23.75 33.0502C22.0375 33.3377 20.15 33.0377 18.825 32.1502C17.0625 30.9752 17.0625 29.0502 18.825 27.8752C20.1625 26.9877 22.075 26.6877 23.7875 26.9877"
          stroke="white"
          stroke-width="1.5"
          stroke-linecap="round"
          stroke-linejoin="round"
        ></path>
        <path
          d="M30 33.2874C29.925 33.2749 29.8375 33.2749 29.7625 33.2874C28.0375 33.2249 26.6625 31.8124 26.6625 30.0624C26.6625 28.2749 28.1 26.8374 29.8875 26.8374C31.675 26.8374 33.1125 28.2874 33.1125 30.0624C33.1 31.8124 31.725 33.2374 30 33.2874Z"
          stroke="white"
          stroke-width="1.5"
          stroke-linecap="round"
          stroke-linejoin="round"
        ></path>
        <path
          d="M26.3625 37.2247C24.6 38.3997 24.6 40.3247 26.3625 41.4997C28.3625 42.8372 31.6375 42.8372 33.6375 41.4997C35.4 40.3247 35.4 38.3997 33.6375 37.2247C31.65 35.8997 28.3625 35.8997 26.3625 37.2247Z"
          stroke="white"
          stroke-width="1.5"
          stroke-linecap="round"
          stroke-linejoin="round"
        ></path>
      </svg>